<svg width="50" height="50" viewBox="0 0 50 50" fill="none" xmlns="http://www.w3.org/2000/svg">
<path fill-rule="evenodd" clip-rule="evenodd" d="M49.017 43.3334C48.5337 44.5668 47.4171 46.3 45.8174 47.5333C44.9007 48.2336 43.8008 48.9167 42.3006 49.3667C40.7001 49.85 38.7174 50 36.2507 50H13.7502C11.2834 50 9.31728 49.8334 7.70023 49.3667C6.20002 48.9167 5.10084 48.2502 4.18343 47.5333C2.60026 46.3166 1.46706 44.5668 0.983813 43.3334C0.017316 40.8501 0 38.0336 0 36.25V13.7502C0 11.9665 0.0166246 9.15003 0.983813 6.66673C1.46706 5.43337 2.58367 3.70018 4.18343 2.46682C5.10015 1.76719 6.20002 1.08334 7.70023 0.633281C9.31728 0.166624 11.2834 0 13.7502 0H36.2507C38.7174 0 40.6835 0.166624 42.3006 0.633281C43.8008 1.08334 44.9 1.75059 45.8174 2.46682C47.4006 3.68359 48.5337 5.43337 49.017 6.66673C50.0008 9.15003 50.0007 11.9831 50.0007 13.7502V36.25C50.0007 38.0336 49.9842 40.8501 49.017 43.3334Z" fill="url(#paint0_linear_16404_118228)"/>
<path fill-rule="evenodd" clip-rule="evenodd" d="M29.2831 30.1861C29.2167 29.586 29.0163 29.1525 28.6167 28.7529C27.8666 27.9696 26.5503 27.4531 24.9996 27.4531C23.4496 27.4531 22.1326 27.9537 21.3825 28.7529C20.9995 29.1698 20.7823 29.586 20.716 30.1861C20.5825 31.3531 20.6663 32.3527 20.799 33.969C20.9324 35.5024 21.1819 37.5523 21.4986 39.6187C21.7323 41.1024 21.9154 41.9023 22.082 42.4692C22.3655 43.4025 23.3819 44.2022 24.9989 44.2022C26.616 44.2022 27.6488 43.3859 27.9156 42.4692C28.0823 41.9023 28.2654 41.1024 28.4991 39.6187C28.8157 37.5357 29.0661 35.5017 29.1988 33.969C29.3488 32.3527 29.4152 31.3524 29.2817 30.1861H29.2831Z" fill="white"/>
<path fill-rule="evenodd" clip-rule="evenodd" d="M29.101 21.6863C29.101 23.9525 27.2677 25.786 25.0008 25.786C22.7339 25.786 20.9004 23.9525 20.9004 21.6863C20.9004 19.4194 22.7339 17.5859 25.0008 17.5859C27.2677 17.5859 29.101 19.436 29.101 21.6863Z" fill="white"/>
<path fill-rule="evenodd" clip-rule="evenodd" d="M24.9506 5.53518C15.3838 5.56837 7.55092 13.3349 7.41749 22.9017C7.31794 30.6516 12.2672 37.285 19.1841 39.7186C19.3507 39.7849 19.5173 39.6357 19.5007 39.4684C19.4178 38.8683 19.3176 38.2681 19.2505 37.668C19.2173 37.4516 19.0839 37.2851 18.9007 37.1849C13.4342 34.8018 9.61728 29.3181 9.68434 22.9681C9.76799 14.6346 16.5674 7.85112 24.8843 7.78475C33.4009 7.71838 40.3509 14.618 40.3509 23.1181C40.3509 29.401 36.5514 34.8012 31.1347 37.1849C30.9349 37.2679 30.8015 37.4516 30.7849 37.668C30.7019 38.2681 30.6182 38.8683 30.5345 39.4684C30.5013 39.6516 30.6846 39.7849 30.8512 39.7186C37.701 37.3182 42.6179 30.7851 42.6179 23.1188C42.5847 13.4186 34.6681 5.51859 24.9513 5.53518H24.9506Z" fill="white"/>
<path fill-rule="evenodd" clip-rule="evenodd" d="M24.5519 11.3688C18.3188 11.6018 13.3189 16.7524 13.2353 22.9856C13.1855 27.0852 15.2353 30.7188 18.3851 32.8689C18.5351 32.9692 18.7516 32.8524 18.7516 32.6692C18.7018 31.953 18.7018 31.3197 18.7349 30.6526C18.7515 30.4362 18.6687 30.2356 18.5013 30.0856C16.5849 28.2853 15.4179 25.719 15.4843 22.8852C15.6177 17.8854 19.6344 13.8183 24.6342 13.6185C30.0674 13.4021 34.5341 17.7687 34.5341 23.1356C34.5341 25.8691 33.3673 28.3351 31.5172 30.0856C31.3672 30.2356 31.2842 30.4355 31.2842 30.6526C31.3173 31.3024 31.3007 31.9357 31.2676 32.6526C31.251 32.8358 31.4674 32.9691 31.634 32.8523C34.734 30.7354 36.7838 27.1523 36.7838 23.119C36.8004 16.4855 31.2504 11.1027 24.5506 11.3688H24.5519Z" fill="white"/>
<defs>
<linearGradient id="paint0_linear_16404_118228" x1="25.0003" y1="0" x2="25.0003" y2="50" gradientUnits="userSpaceOnUse">
<stop stop-color="#F452FF"/>
<stop offset="1" stop-color="#832BC1"/>
</linearGradient>
</defs>
</svg>
