<svg width="20" height="20" viewBox="0 0 20 20" fill="none" xmlns="http://www.w3.org/2000/svg">
<mask id="mask0_16569_135188" style="mask-type:alpha" maskUnits="userSpaceOnUse" x="0" y="0" width="20" height="20">
<rect width="20" height="20" fill="#D9D9D9"/>
</mask>
<g mask="url(#mask0_16569_135188)">
<path d="M8.81697 13.5435L14.4195 7.94099L13.5413 7.06287L8.81697 11.7872L6.44197 9.41224L5.56384 10.2904L8.81697 13.5435ZM10.0011 17.9154C8.90613 17.9154 7.8769 17.7076 6.91342 17.292C5.94995 16.8765 5.1119 16.3125 4.39926 15.6002C3.68662 14.8878 3.12238 14.0501 2.70655 13.087C2.29085 12.124 2.08301 11.095 2.08301 10.0002C2.08301 8.90516 2.29079 7.87592 2.70634 6.91245C3.1219 5.94898 3.68586 5.11092 4.39822 4.39828C5.11058 3.68564 5.94829 3.12141 6.91134 2.70557C7.8744 2.28988 8.90335 2.08203 9.99822 2.08203C11.0932 2.08203 12.1225 2.28981 13.0859 2.70536C14.0494 3.12092 14.8875 3.68488 15.6001 4.39724C16.3127 5.1096 16.877 5.94731 17.2928 6.91036C17.7085 7.87342 17.9163 8.90238 17.9163 9.99724C17.9163 11.0922 17.7086 12.1215 17.293 13.0849C16.8775 14.0484 16.3135 14.8865 15.6011 15.5991C14.8888 16.3118 14.0511 16.876 13.088 17.2918C12.125 17.7075 11.096 17.9154 10.0011 17.9154ZM9.99967 16.6654C11.8608 16.6654 13.4372 16.0195 14.7288 14.7279C16.0205 13.4362 16.6663 11.8598 16.6663 9.9987C16.6663 8.13759 16.0205 6.5612 14.7288 5.26953C13.4372 3.97786 11.8608 3.33203 9.99967 3.33203C8.13856 3.33203 6.56217 3.97786 5.27051 5.26953C3.97884 6.5612 3.33301 8.13759 3.33301 9.9987C3.33301 11.8598 3.97884 13.4362 5.27051 14.7279C6.56217 16.0195 8.13856 16.6654 9.99967 16.6654Z" fill="#1ACD7E"/>
</g>
</svg>
