<svg width="36" height="36" viewBox="0 0 36 36" fill="none" xmlns="http://www.w3.org/2000/svg">
<path d="M17.553 29.9132C17.749 29.9132 17.95 29.8692 18.156 29.7812C18.362 29.6932 18.5285 29.5857 18.6555 29.4587L30.3495 17.7632C30.7265 17.3862 31.0175 17.0012 31.2225 16.6082C31.4265 16.2132 31.5285 15.7802 31.5285 15.3092C31.5285 14.8322 31.4265 14.3692 31.2225 13.9202C31.0175 13.4702 30.7265 13.0602 30.3495 12.6902L24.7245 7.06518C24.3535 6.68818 23.972 6.41168 23.58 6.23568C23.189 6.05968 22.755 5.97168 22.278 5.97168C21.807 5.97168 21.3695 6.05968 20.9655 6.23568C20.5615 6.41168 20.181 6.68768 19.824 7.06368L18.516 8.37168L21.291 11.1542C21.589 11.4472 21.8115 11.7802 21.9585 12.1532C22.1045 12.5262 22.1775 12.9047 22.1775 13.2887C22.1775 14.0697 21.922 14.7157 21.411 15.2267C20.9 15.7377 20.2545 15.9927 19.4745 15.9917C19.0895 15.9917 18.714 15.9332 18.348 15.8162C17.982 15.6992 17.6525 15.4942 17.3595 15.2012L15.153 13.0052C14.98 12.8322 14.759 12.7457 14.49 12.7457C14.22 12.7457 13.9985 12.8322 13.8255 13.0052L8.01299 18.8177C7.86199 18.9697 7.74849 19.1422 7.67248 19.3352C7.59648 19.5282 7.55849 19.7232 7.55849 19.9202C7.55849 20.2742 7.67198 20.5657 7.89898 20.7947C8.12498 21.0247 8.41499 21.1397 8.76899 21.1397C8.96499 21.1397 9.16599 21.0957 9.37199 21.0077C9.57799 20.9187 9.74448 20.8107 9.87148 20.6837L14.094 16.4612C14.234 16.3212 14.405 16.2447 14.607 16.2317C14.809 16.2187 14.992 16.2952 15.156 16.4612C15.316 16.6212 15.396 16.7982 15.396 16.9922C15.396 17.1862 15.316 17.3632 15.156 17.5232L10.941 21.7457C10.789 21.8977 10.675 22.0702 10.599 22.2632C10.524 22.4572 10.4865 22.6522 10.4865 22.8482C10.4865 23.1832 10.6045 23.4687 10.8405 23.7047C11.0765 23.9407 11.362 24.0592 11.697 24.0602C11.893 24.0602 12.094 24.0157 12.3 23.9267C12.506 23.8377 12.6725 23.7302 12.7995 23.6042L17.3685 19.0442C17.5085 18.9032 17.679 18.8262 17.88 18.8132C18.081 18.8002 18.264 18.8767 18.429 19.0427C18.589 19.2027 18.669 19.3797 18.669 19.5737C18.669 19.7677 18.589 19.9447 18.429 20.1047L13.869 24.6737C13.737 24.8007 13.628 24.9672 13.542 25.1732C13.456 25.3792 13.413 25.5802 13.413 25.7762C13.413 26.1102 13.5315 26.3952 13.7685 26.6312C14.0055 26.8692 14.291 26.9882 14.625 26.9882C14.821 26.9882 15.016 26.9502 15.21 26.8742C15.404 26.7982 15.576 26.6842 15.726 26.5322L20.2965 21.9722C20.4365 21.8312 20.607 21.7542 20.808 21.7412C21.009 21.7292 21.1925 21.8057 21.3585 21.9707C21.5175 22.1307 21.597 22.3077 21.597 22.5017C21.597 22.6957 21.517 22.8727 21.357 23.0327L16.7895 27.6002C16.6385 27.7522 16.525 27.9347 16.449 28.1477C16.373 28.3607 16.335 28.5552 16.335 28.7312C16.335 29.0852 16.4595 29.3707 16.7085 29.5877C16.9575 29.8047 17.2395 29.9132 17.5545 29.9132M17.5455 31.4132C16.7745 31.4132 16.1145 31.1312 15.5655 30.5672C15.0165 30.0032 14.7755 29.3062 14.8425 28.4762C13.9925 28.4862 13.285 28.2327 12.72 27.7157C12.155 27.1987 11.8865 26.4767 11.9145 25.5497C10.9885 25.5597 10.2585 25.2947 9.72448 24.7547C9.19049 24.2147 8.94749 23.5037 8.99549 22.6217C8.16149 22.6317 7.46348 22.3967 6.90148 21.9167C6.34048 21.4387 6.05999 20.7727 6.05999 19.9187C6.05999 19.5337 6.13449 19.1487 6.28349 18.7637C6.43249 18.3777 6.65249 18.0387 6.94349 17.7467L12.786 11.9042C13.246 11.4452 13.813 11.2157 14.487 11.2157C15.161 11.2157 15.728 11.4457 16.188 11.9057L18.3645 14.0822C18.4915 14.2152 18.6485 14.3247 18.8355 14.4107C19.0225 14.4967 19.233 14.5392 19.467 14.5382C19.788 14.5382 20.0715 14.4262 20.3175 14.2022C20.5635 13.9782 20.687 13.6862 20.688 13.3262C20.688 13.0922 20.645 12.8822 20.559 12.6962C20.473 12.5092 20.364 12.3522 20.232 12.2252L15.072 7.06518C14.7 6.68818 14.3135 6.41168 13.9125 6.23568C13.5115 6.05968 13.0725 5.97168 12.5955 5.97168C12.1245 5.97168 11.6965 6.05968 11.3115 6.23568C10.9275 6.41168 10.547 6.68818 10.17 7.06518L5.60249 11.6402C5.07849 12.1632 4.74149 12.8017 4.59149 13.5557C4.44149 14.3097 4.50999 15.0297 4.79699 15.7157C4.85299 15.9097 4.82799 16.0972 4.72199 16.2782C4.61599 16.4592 4.46599 16.5742 4.27199 16.6232C4.07799 16.6722 3.88549 16.6462 3.69449 16.5452C3.50349 16.4442 3.38349 16.2957 3.33449 16.0997C3.01149 15.1297 2.94099 14.1502 3.12299 13.1612C3.30499 12.1722 3.77499 11.2987 4.53299 10.5407L9.06898 6.00318C9.59199 5.48518 10.1455 5.10018 10.7295 4.84818C11.3135 4.59718 11.945 4.47168 12.624 4.47168C13.303 4.47168 13.929 4.59768 14.502 4.84968C15.076 5.10068 15.622 5.48518 16.14 6.00318L17.445 7.30968L18.753 6.00318C19.276 5.48518 19.8245 5.10018 20.3985 4.84818C20.9725 4.59718 21.599 4.47168 22.278 4.47168C22.957 4.47168 23.5885 4.59768 24.1725 4.84968C24.7555 5.10068 25.3055 5.48518 25.8225 6.00318L31.4115 11.5907C31.9285 12.1077 32.3275 12.6882 32.6085 13.3322C32.8895 13.9762 33.0295 14.6377 33.0285 15.3167C33.0285 15.9967 32.8885 16.6232 32.6085 17.1962C32.3285 17.7692 31.9295 18.3152 31.4115 18.8342L19.716 30.5192C19.405 30.8312 19.066 31.0582 18.699 31.2002C18.333 31.3422 17.9495 31.4132 17.5455 31.4132Z" fill="black"/>
</svg>
