<svg width="284" height="250" viewBox="0 0 284 250" fill="none" xmlns="http://www.w3.org/2000/svg">
<g opacity="0.46532">
<path d="M151.187 5.69292L141.797 8.92894L26.119 48.7997L16.7298 52.036C7.2414 55.3183 2.20057 65.6616 5.46159 75.1574L59.8781 233.038C63.1604 242.526 73.5037 247.567 82.9995 244.306L83.0236 244.298L217.432 197.971L217.456 197.963C226.945 194.681 231.986 184.337 228.725 174.842L174.308 16.9611C171.026 7.47274 160.683 2.43191 151.187 5.69292Z" fill="#E7E7E7"/>
<path d="M152.893 10.6444L141.772 14.4775L29.5565 53.1544L18.4358 56.9874C11.6788 59.3249 8.0889 66.6907 10.4111 73.4529L64.8276 231.333C67.1651 238.09 74.5309 241.68 81.293 239.358L81.3174 239.349L215.726 193.023L215.75 193.014C222.507 190.677 226.097 183.311 223.774 176.549L169.358 18.6687C167.02 11.9121 159.655 8.32211 152.893 10.6444Z" fill="white"/>
<path d="M148.479 63.5263L80.4849 86.9617C78.9029 87.5053 77.18 86.6637 76.6364 85.0817C76.0936 83.5019 76.9323 81.781 78.511 81.2351L146.505 57.7996C148.087 57.2571 149.81 58.1 150.352 59.6823C150.894 61.2611 150.056 62.9799 148.479 63.5263Z" fill="#E7E7E7"/>
<path d="M163.623 69.1169L83.8177 96.6232C82.2368 97.1698 80.5122 96.3314 79.9655 94.7505C79.4189 93.1696 80.2573 91.445 81.8382 90.8984C81.8402 90.8977 81.8421 90.8972 81.8441 90.8965L161.649 63.3899C163.231 62.8449 164.955 63.6851 165.5 65.2664C166.045 66.8477 165.205 68.5719 163.623 69.1169Z" fill="#E7E7E7"/>
<path d="M163.409 106.833L95.4156 130.268C93.8347 130.815 92.1101 129.976 91.5635 128.396C91.0168 126.815 91.8552 125.09 93.4361 124.543C93.4381 124.543 93.4397 124.542 93.4417 124.542L161.436 101.106C163.016 100.559 164.741 101.397 165.289 102.977C165.836 104.558 164.998 106.283 163.417 106.83C163.415 106.831 163.412 106.832 163.409 106.833Z" fill="#E7E7E7"/>
<path d="M178.548 112.425L98.7425 139.932C97.1616 140.478 95.437 139.64 94.8903 138.059C94.3437 136.478 95.1821 134.754 96.763 134.207C96.765 134.206 96.7666 134.206 96.7686 134.205L176.574 106.698C178.156 106.154 179.879 106.994 180.424 108.575C180.969 110.157 180.129 111.88 178.548 112.425Z" fill="#E7E7E7"/>
<path d="M178.331 150.141L110.337 173.576C108.754 174.119 107.032 173.275 106.49 171.693C105.949 170.115 106.787 168.396 108.363 167.85L176.357 144.414C177.938 143.869 179.662 144.709 180.207 146.291C180.752 147.872 179.912 149.596 178.331 150.141Z" fill="#E7E7E7"/>
<path d="M193.475 155.738L113.669 183.244C112.088 183.792 110.363 182.955 109.815 181.375C109.267 179.794 110.104 178.069 111.684 177.521C111.688 177.52 111.691 177.519 111.695 177.517L191.501 150.011C193.082 149.466 194.806 150.306 195.351 151.888C195.895 153.469 195.056 155.193 193.475 155.738Z" fill="#E7E7E7"/>
<path d="M70.0982 106.26L46.0359 114.554C45.2777 114.814 44.4519 114.411 44.1897 113.654L36.8074 92.2348C36.5469 91.4766 36.9492 90.6505 37.707 90.3884L61.7693 82.095C62.5275 81.8345 63.3536 82.2368 63.6158 82.9945L70.9981 104.414C71.2586 105.172 70.856 105.998 70.0982 106.26Z" fill="#E7E7E7"/>
<path d="M85.0233 149.568L60.9609 157.862C60.2028 158.123 59.3769 157.72 59.1148 156.962L51.7322 135.543C51.4717 134.785 51.8743 133.959 52.632 133.697L76.6944 125.404C77.4526 125.143 78.2784 125.546 78.5406 126.303L85.9232 147.722C86.1837 148.48 85.7811 149.306 85.0233 149.568Z" fill="#E7E7E7"/>
<path d="M99.9559 192.881L75.8933 201.175C75.1351 201.435 74.3093 201.032 74.0471 200.275L66.6648 178.856C66.4043 178.098 66.8066 177.272 67.5644 177.01L91.627 168.716C92.3852 168.456 93.2111 168.858 93.4732 169.616L100.856 191.035C101.116 191.793 100.714 192.619 99.9559 192.881Z" fill="#E7E7E7"/>
</g>
<path d="M265.553 40.8281H123.334C113.294 40.8395 105.158 48.9756 105.146 59.0156V226.011C105.158 236.051 113.294 244.187 123.334 244.199H265.553C275.593 244.187 283.729 236.051 283.741 226.011V59.0156C283.729 48.9756 275.593 40.8395 265.553 40.8281Z" fill="#E7E7E7"/>
<path d="M265.546 46.0625H123.326C116.176 46.0704 110.382 51.8644 110.374 59.0141V226.009C110.382 233.159 116.176 238.953 123.326 238.961H265.546C272.695 238.953 278.489 233.159 278.497 226.009V59.0141C278.489 51.8644 272.695 46.0707 265.546 46.0625Z" fill="white"/>
<path d="M244.146 137.827H172.226C170.554 137.829 169.196 136.474 169.194 134.802C169.192 133.129 170.547 131.772 172.219 131.77C172.222 131.77 172.224 131.77 172.226 131.77H244.146C245.819 131.772 247.173 133.129 247.171 134.802C247.169 136.472 245.816 137.825 244.146 137.827Z" fill="#E7E7E7"/>
<path d="M256.639 148.05H172.226C170.554 148.052 169.196 146.697 169.194 145.024C169.192 143.352 170.547 141.994 172.219 141.992C172.222 141.992 172.224 141.992 172.226 141.992H256.639C258.312 141.992 259.668 143.348 259.668 145.021C259.668 146.694 258.312 148.05 256.639 148.05Z" fill="#E7E7E7"/>
<path d="M244.144 183.636H172.224C170.551 183.636 169.195 182.28 169.195 180.607C169.195 178.934 170.551 177.578 172.224 177.578H244.144C245.816 177.578 247.172 178.934 247.172 180.607C247.172 182.28 245.816 183.636 244.144 183.636Z" fill="#E7E7E7"/>
<path d="M256.637 193.858H172.224C170.551 193.858 169.195 192.502 169.195 190.83C169.195 189.157 170.551 187.801 172.224 187.801H256.637C258.31 187.801 259.666 189.157 259.666 190.83C259.666 192.502 258.31 193.858 256.637 193.858Z" fill="#E7E7E7"/>
<path d="M156.12 152.689H130.668C129.866 152.688 129.217 152.038 129.216 151.237V128.581C129.217 127.779 129.866 127.13 130.668 127.129H156.12C156.921 127.13 157.571 127.779 157.572 128.581V151.237C157.571 152.038 156.921 152.688 156.12 152.689Z" fill="#E7E7E7"/>
<path d="M156.12 198.498H130.668C129.866 198.497 129.217 197.847 129.216 197.045V174.39C129.217 173.588 129.866 172.938 130.668 172.938H156.12C156.921 172.938 157.571 173.588 157.572 174.39V197.045C157.571 197.847 156.921 198.497 156.12 198.498Z" fill="#E7E7E7"/>
<path d="M244.227 86.8309H191.204C189.531 86.8309 188.175 85.4748 188.175 83.8022C188.175 82.1295 189.531 80.7734 191.204 80.7734H244.227C245.9 80.7734 247.255 82.1295 247.255 83.8022C247.255 85.4748 245.9 86.8309 244.227 86.8309Z" fill="#D1D1D1"/>
<path d="M256.72 97.0536H191.204C189.531 97.0536 188.175 95.6975 188.175 94.0248C188.175 92.3522 189.531 90.9961 191.204 90.9961H256.72C258.393 90.9961 259.749 92.3522 259.749 94.0248C259.749 95.6975 258.393 97.0536 256.72 97.0536Z" fill="#D1D1D1"/>
<path d="M179.47 109.442H130.587C129.785 109.441 129.136 108.791 129.135 107.989V69.839C129.136 69.0372 129.785 68.3876 130.587 68.3867H179.47C180.272 68.3876 180.921 69.0372 180.922 69.839V107.989C180.921 108.791 180.272 109.441 179.47 109.442Z" fill="#5340FF"/>
</svg>
