<svg width="50" height="50" viewBox="0 0 50 50" fill="none" xmlns="http://www.w3.org/2000/svg">
<path fill-rule="evenodd" clip-rule="evenodd" d="M6.24973 23.2967V26.7058C6.24973 28.4315 4.85048 29.8307 3.12487 29.8307C1.39925 29.8307 0 28.4315 0 26.7058V23.2967C0 21.5711 1.39925 20.1719 3.12487 20.1719C4.85048 20.1719 6.24973 21.5711 6.24973 23.2967Z" fill="#0066D9"/>
<path fill-rule="evenodd" clip-rule="evenodd" d="M43.7522 23.3853C43.7515 23.3556 43.7507 23.3258 43.7507 23.2967C43.7507 21.5711 45.1501 20.1719 46.8757 20.1719C48.6013 20.1719 50.0005 21.5711 50.0005 23.2967C50.0005 23.3265 50.0006 23.3563 49.9992 23.3853H50.0005V26.7943H49.9992C49.9522 28.4791 48.5716 29.83 46.8757 29.83C45.1791 29.83 43.7985 28.4784 43.7515 26.7943H43.75V23.3845H43.7515L43.7522 23.3853Z" fill="#4285F4"/>
<path fill-rule="evenodd" clip-rule="evenodd" d="M17.0448 33.5214V36.9305C17.0448 38.6562 15.6455 40.0554 13.9199 40.0554C12.1936 40.0554 10.7949 38.6562 10.7949 36.9305V33.5214C10.7949 31.7958 12.1943 30.3966 13.9199 30.3966C15.6455 30.3966 17.0448 31.7958 17.0448 33.5214ZM17.0448 13.0664V24.2172H17.0441C17.0061 25.9103 15.622 27.2709 13.9199 27.2709C12.2178 27.2709 10.8329 25.9096 10.7956 24.2172H10.7949V13.0664C10.7949 11.3408 12.1943 9.94141 13.9199 9.94141C15.6455 9.94141 17.0448 11.3408 17.0448 13.0664Z" fill="#EA4335"/>
<path fill-rule="evenodd" clip-rule="evenodd" d="M32.9551 16.4794C32.9551 18.205 34.3543 19.6043 36.0799 19.6043C37.8063 19.6043 39.2048 18.205 39.2048 16.4794V13.0703C39.2048 11.3447 37.8056 9.94531 36.0799 9.94531C34.3543 9.94531 32.9551 11.3447 32.9551 13.0703V16.4794Z" fill="#34A853"/>
<path fill-rule="evenodd" clip-rule="evenodd" d="M21.875 6.53397C21.875 8.25959 23.2744 9.65883 25 9.65883C26.7256 9.65883 28.1249 8.25959 28.1249 6.53397V3.12487C28.1249 1.39925 26.7256 0 25 0C23.2744 0 21.875 1.39925 21.875 3.12487V6.53397ZM21.875 43.466C21.875 41.7404 23.2744 40.3412 25 40.3412C26.7256 40.3412 28.1249 41.7404 28.1249 43.466V46.8751C28.1249 48.6008 26.7256 50 25 50C23.2744 50 21.875 48.6008 21.875 46.8751V43.466Z" fill="#FAB908"/>
<path fill-rule="evenodd" clip-rule="evenodd" d="M32.9551 25.8516C32.9551 24.1259 34.3543 22.7266 36.0799 22.7266C37.8063 22.7266 39.2048 24.1259 39.2048 25.8516V36.9312C39.2048 38.6568 37.8056 40.056 36.0799 40.056C34.3543 40.056 32.9551 38.6568 32.9551 36.9312V25.8516Z" fill="#34A853"/>
<path fill-rule="evenodd" clip-rule="evenodd" d="M28.1249 15.91V34.0919C28.1249 35.8176 26.7256 37.2168 25 37.2168C23.2744 37.2168 21.875 35.8176 21.875 34.0919V15.91C21.875 14.1844 23.2744 12.7852 25 12.7852C26.7256 12.7852 28.1249 14.1844 28.1249 15.91Z" fill="#FAB908"/>
</svg>
