<svg width="50" height="50" viewBox="0 0 50 50" fill="none" xmlns="http://www.w3.org/2000/svg">
<g clip-path="url(#clip0_17896_19085)">
<path d="M10.6465 31.5301C10.6465 34.3934 8.31133 36.732 5.44766 36.732C2.58398 36.732 0.246094 34.3934 0.246094 31.5301C0.246094 28.6668 2.58477 26.3281 5.44805 26.3281H10.6469L10.6465 31.5301ZM13.2672 31.5301C13.2672 28.6668 15.6059 26.3281 18.4691 26.3281C21.3324 26.3281 23.6711 28.6664 23.6711 31.5301V44.5516C23.6711 47.4148 21.3328 49.7535 18.4691 49.7535C15.6059 49.7535 13.2672 47.4148 13.2672 44.5516V31.5301Z" fill="#DE1C59"/>
<path d="M18.4691 10.6465C15.6059 10.6465 13.2672 8.31133 13.2672 5.44766C13.2672 2.58398 15.6059 0.246094 18.4691 0.246094C21.3324 0.246094 23.6711 2.58477 23.6711 5.44805V10.6469L18.4691 10.6465ZM18.4691 13.2672C21.3324 13.2672 23.6711 15.6059 23.6711 18.4691C23.6711 21.3324 21.3328 23.6711 18.4691 23.6711H5.44766C2.58437 23.6711 0.246094 21.3328 0.246094 18.4691C0.246094 15.6059 2.58477 13.2672 5.44805 13.2672H18.4691Z" fill="#35C5F0"/>
<path d="M39.3537 18.4691C39.3537 15.6059 41.6889 13.2672 44.5525 13.2672C47.4162 13.2672 49.7545 15.6059 49.7545 18.4691C49.7545 21.3324 47.4158 23.6711 44.5525 23.6711H39.3537V18.4691ZM36.733 18.4691C36.733 21.3324 34.3943 23.6711 31.5311 23.6711C28.6678 23.6711 26.3291 21.3328 26.3291 18.4691V5.44766C26.3291 2.58437 28.6674 0.246094 31.5311 0.246094C34.3943 0.246094 36.733 2.58477 36.733 5.44805V18.4691Z" fill="#2EB57D"/>
<path d="M31.5311 39.3527C34.3943 39.3527 36.733 41.6879 36.733 44.5516C36.733 47.4152 34.3943 49.7535 31.5311 49.7535C28.6678 49.7535 26.3291 47.4148 26.3291 44.5516V39.3527H31.5311ZM31.5311 36.732C28.6678 36.732 26.3291 34.3934 26.3291 31.5301C26.3291 28.6668 28.6674 26.3281 31.5311 26.3281H44.5525C47.4158 26.3281 49.7545 28.6664 49.7545 31.5301C49.7545 34.3934 47.4158 36.732 44.5525 36.732H31.5311Z" fill="#EBB02E"/>
</g>
<defs>
<clipPath id="clip0_17896_19085">
<rect width="50" height="50" fill="white"/>
</clipPath>
</defs>
</svg>
