<svg width="89" height="40" viewBox="0 0 89 40" fill="none" xmlns="http://www.w3.org/2000/svg">
<path d="M31.4887 1.31271C31.5571 1.31212 31.5571 1.31212 31.6266 1.31152C31.6763 1.31195 31.7262 1.31237 31.7773 1.31281C31.8298 1.31261 31.8825 1.31241 31.9364 1.3122C32.1099 1.31174 32.284 1.3125 32.4575 1.31331C32.5782 1.31334 32.6983 1.31331 32.819 1.31323C33.0715 1.31324 33.3239 1.31381 33.5753 1.31482C33.8995 1.31608 34.226 1.31611 34.5485 1.31574C34.7971 1.31555 35.0457 1.31592 35.2938 1.31647C35.4133 1.31668 35.5329 1.31674 35.6525 1.31666C35.8193 1.31664 35.9861 1.31734 36.153 1.31824C36.2275 1.31803 36.2275 1.31803 36.3037 1.31782C36.6452 1.32079 36.6452 1.32079 36.7692 1.44462C36.8004 1.56363 36.8004 1.56363 36.8248 1.70545C36.8677 1.93902 36.926 2.16203 36.9916 2.38949C37.0973 2.81326 37.1852 3.24037 37.2697 3.66859C37.4015 4.39712 37.4015 4.39712 37.6028 5.10341C37.6862 5.36868 37.7207 5.63952 37.7619 5.91536C37.8002 6.16062 37.8553 6.38251 37.9365 6.61609C37.965 6.74678 37.9916 6.87747 38.0166 7.00872C38.1395 7.67607 38.1395 7.67607 38.3258 8.33231C38.3936 8.54531 38.4298 8.75664 38.4648 8.97742C38.478 9.05862 38.4912 9.13926 38.5048 9.22045C38.5105 9.25588 38.5162 9.29108 38.5221 9.32778C38.5437 9.43178 38.5715 9.53411 38.6011 9.63588C38.6606 9.8461 38.7079 10.0569 38.7518 10.2699C38.7686 10.3505 38.7855 10.4317 38.8024 10.5123C38.8284 10.638 38.8545 10.7637 38.8803 10.8894C38.9056 11.0118 38.9311 11.1347 38.957 11.257C38.9646 11.2942 38.9722 11.3315 38.98 11.3699C39.0261 11.5896 39.0874 11.7987 39.1602 12.0095C39.1819 12.1168 39.2017 12.2247 39.2192 12.3326C39.2369 12.5216 39.2369 12.5216 39.3271 12.6768C39.3461 12.7636 39.3623 12.8509 39.3772 12.9382C39.3866 12.9917 39.3959 13.045 39.4056 13.1006C39.4249 13.2135 39.4441 13.3264 39.4634 13.4393C39.5115 13.714 39.5669 13.9709 39.6608 14.2345C39.6892 14.3558 39.7158 14.4776 39.7409 14.5994C39.8099 14.9308 39.885 15.2612 39.9639 15.5893C39.9946 15.7361 39.9946 15.7361 39.9946 15.9029C40.0496 15.8846 40.1047 15.8662 40.1614 15.8473C40.2132 15.696 40.2132 15.696 40.2448 15.5136C40.2994 15.2534 40.3622 15.0064 40.4495 14.7573C40.5969 14.3307 40.7237 13.9064 40.8049 13.4615C40.8338 13.323 40.8872 13.2001 40.94 13.0689C40.9678 12.9376 40.9919 12.8058 41.0145 12.6735C41.0457 12.5367 41.084 12.411 41.1296 12.2792C41.222 12.0083 41.2909 11.7342 41.3571 11.4561C41.4338 11.1341 41.5195 10.8221 41.6268 10.5107C41.6676 10.3878 41.6975 10.2649 41.7219 10.1381C41.7496 10.0052 41.7781 9.89226 41.8298 9.76602C41.8836 9.6281 41.9104 9.50463 41.9377 9.35948C41.9813 9.12758 42.0456 8.91291 42.1234 8.69213C42.1768 8.52751 42.2119 8.36178 42.2458 8.19216C42.2751 8.06759 42.2751 8.06759 42.3237 7.92578C42.4321 7.59432 42.5116 7.25286 42.5973 6.91918C42.6115 6.86384 42.6256 6.80851 42.6403 6.75178C42.6593 6.67671 42.6593 6.67671 42.6787 6.60052C42.7207 6.45537 42.7743 6.31856 42.8316 6.17897C42.8524 6.08665 42.8709 5.99378 42.8872 5.9009C42.9247 5.70236 42.979 5.53274 43.0541 5.34477C43.0818 5.21352 43.106 5.08172 43.1286 4.94936C43.1594 4.81422 43.197 4.69076 43.2421 4.56007C43.3444 4.26032 43.4217 3.95389 43.499 3.64801C43.5857 3.30433 43.6769 2.96397 43.7926 2.63029C43.8799 2.36168 43.9433 2.08529 44.0106 1.81278C44.0221 1.76773 44.0335 1.72269 44.0453 1.67597C44.0553 1.63549 44.0653 1.59478 44.0756 1.55307C44.1111 1.4513 44.1111 1.4513 44.2224 1.34007C44.3931 1.32961 44.5594 1.32605 44.7301 1.32744C44.7828 1.32743 44.8353 1.32741 44.8898 1.3274C45.0644 1.32747 45.239 1.32834 45.4131 1.32921C45.5338 1.32942 45.6544 1.32957 45.7757 1.32969C46.0938 1.33011 46.4097 1.3312 46.7322 1.33243C47.057 1.33357 47.3829 1.33408 47.7055 1.33464C48.345 1.33584 48.979 1.33773 49.6185 1.34007C49.7136 1.56364 49.7531 1.76663 49.7854 2.00743C49.8037 2.02578 49.8221 2.04414 49.841 2.06305C49.857 2.16871 49.8696 2.27493 49.881 2.3806C49.8916 2.47736 49.8916 2.47736 49.9025 2.57635C49.9097 2.6442 49.917 2.71261 49.9245 2.78268C49.9388 2.91671 49.9532 3.05018 49.9679 3.18365C49.9742 3.24316 49.9806 3.30266 49.9871 3.36439C49.9999 3.50787 49.9999 3.50787 50.0633 3.62021C50.0789 3.72755 50.0918 3.83544 50.1033 3.94333C50.1139 4.04009 50.1139 4.04009 50.1248 4.13853C50.1395 4.27478 50.1541 4.41159 50.1687 4.54784C50.1793 4.64461 50.1793 4.64461 50.1902 4.74304C50.1966 4.80255 50.2029 4.8615 50.2095 4.92267C50.2224 5.06504 50.2224 5.06504 50.2857 5.17738C50.3012 5.28527 50.3141 5.39372 50.3257 5.50272C50.3363 5.59948 50.3363 5.59948 50.3472 5.69848C50.3618 5.83584 50.3764 5.97265 50.3911 6.11001C50.4017 6.20678 50.4017 6.20678 50.4126 6.30577C50.4189 6.36528 50.4253 6.42478 50.4318 6.48651C50.4382 6.62054 50.4382 6.62054 50.508 6.67949C50.5281 6.81074 50.5451 6.94087 50.5602 7.07212C50.5649 7.11138 50.5696 7.15054 50.5745 7.19113C50.5948 7.35964 50.6146 7.52871 50.6346 7.69721C50.6491 7.82012 50.6638 7.94302 50.6786 8.06593C50.683 8.10441 50.6874 8.14267 50.692 8.18272C50.7008 8.36457 50.7008 8.36457 50.7865 8.51473C50.8025 8.62095 50.8152 8.72772 50.8265 8.8345C50.8371 8.93182 50.8371 8.93182 50.848 9.03082C50.8627 9.16874 50.8773 9.30666 50.8919 9.44458C50.9025 9.5419 50.9025 9.5419 50.9134 9.64089C50.9198 9.70095 50.9261 9.76102 50.9327 9.82275C50.9389 9.95733 50.9389 9.95733 51.0089 10.0163C51.0248 10.1264 51.0376 10.2376 51.0489 10.3483C51.056 10.4156 51.063 10.4829 51.0704 10.5524C51.085 10.6959 51.0996 10.8388 51.1143 10.9823C51.1214 11.0496 51.1284 11.1169 51.1358 11.1864C51.1453 11.2798 51.1453 11.2798 51.155 11.3749C51.1606 11.5139 51.1606 11.5139 51.2312 11.574C51.2472 11.6802 51.2599 11.787 51.2712 11.8938C51.2818 11.9911 51.2818 11.9911 51.2927 12.0901C51.3073 12.228 51.322 12.3659 51.3366 12.5039C51.3472 12.6012 51.3472 12.6012 51.3581 12.7002C51.3645 12.7602 51.3708 12.8203 51.3774 12.882C51.3836 13.0166 51.3836 13.0166 51.4536 13.0756C51.4736 13.2057 51.4907 13.3353 51.5057 13.4665C51.5104 13.5057 51.5152 13.5449 51.5201 13.585C51.5352 13.7107 51.55 13.8363 51.5648 13.962C51.5796 14.0877 51.5945 14.2128 51.6096 14.3385C51.619 14.4169 51.6282 14.4948 51.6373 14.5732C51.6607 14.7768 51.6607 14.7768 51.7318 14.967C51.7474 15.0749 51.7603 15.1833 51.7718 15.2923C51.7789 15.3568 51.786 15.4213 51.7934 15.4881C51.808 15.6254 51.8226 15.7622 51.8372 15.8996C51.8479 15.9964 51.8479 15.9964 51.8588 16.0954C51.8651 16.1549 51.8714 16.2144 51.878 16.2761C51.8843 16.4101 51.8843 16.4101 51.9542 16.4691C51.9701 16.5708 51.9828 16.6726 51.9942 16.7749C52.0013 16.8372 52.0084 16.899 52.0157 16.9629C52.0229 17.028 52.0302 17.0936 52.0377 17.1609C52.052 17.2894 52.0664 17.4178 52.0811 17.5463C52.0874 17.6036 52.0938 17.6609 52.1003 17.7198C52.1136 17.8588 52.1136 17.8588 52.1765 17.9706C52.192 18.0785 52.2049 18.187 52.2165 18.296C52.2271 18.3927 52.2271 18.3927 52.238 18.4917C52.2527 18.6291 52.2673 18.7659 52.2819 18.9033C52.2925 19 52.2925 19 52.3034 19.099C52.3098 19.1585 52.3161 19.218 52.3227 19.2798C52.329 19.4138 52.329 19.4138 52.3989 19.4727C52.4163 19.5823 52.4304 19.6924 52.4432 19.8031C52.4559 19.9093 52.4559 19.9093 52.4688 20.0177C52.4732 20.0558 52.4777 20.0939 52.4823 20.1334C52.5924 21.0733 52.7309 22.0076 52.8771 22.9419C52.8992 23.0887 52.8992 23.0887 52.8992 23.1443C52.2707 23.1482 51.6423 23.1512 51.0139 23.1529C50.7219 23.1538 50.4299 23.155 50.1352 23.1569C49.8538 23.1587 49.5735 23.1597 49.2899 23.1601C49.182 23.1604 49.0746 23.161 48.9668 23.1619C48.8166 23.1631 48.6659 23.1633 48.5157 23.1632C48.4484 23.1641 48.4484 23.1641 48.38 23.1651C48.256 23.1644 48.256 23.1644 48.0592 23.1443C47.9318 22.9536 47.9229 22.8468 47.9007 22.6204C47.8899 22.5159 47.8899 22.5159 47.8789 22.4091C47.8719 22.3363 47.8648 22.2634 47.8576 22.1883C47.8501 22.1138 47.8426 22.0398 47.835 21.9653C47.8167 21.7835 47.7987 21.6016 47.7811 21.4197H47.7255C47.6705 20.8692 47.6154 20.3186 47.5587 19.7514H47.5031C47.4297 19.0173 47.3563 18.2832 47.2806 17.5268H47.225C47.17 16.9373 47.1149 16.3534 47.0582 15.7472H47.0026C46.9291 14.9964 46.8557 14.2401 46.7801 13.4671H46.7245C46.6694 12.7886 46.6144 12.1101 46.5577 11.4094H46.502C46.4768 11.1341 46.4521 10.8588 46.4275 10.5863C46.4192 10.4929 46.4107 10.3989 46.4021 10.3055C46.3898 10.1709 46.3779 10.0369 46.3661 9.90227C46.3621 9.86028 46.3582 9.81829 46.3542 9.77491C46.3287 9.47794 46.3287 9.47794 46.3906 9.35448H46.2794C46.2712 9.38301 46.2631 9.41176 46.2547 9.44068C46.1212 9.89559 45.9694 10.3472 45.8181 10.7921C45.7491 10.9984 45.6802 11.2042 45.6118 11.4094C45.571 11.5317 45.53 11.6541 45.4889 11.7759C45.3749 12.1146 45.2636 12.4544 45.1602 12.7936C45.0595 13.1234 44.9505 13.4443 44.8054 13.7557C44.7064 13.9809 44.6563 14.2167 44.6018 14.4564C44.5556 14.6294 44.4973 14.7918 44.4328 14.9586C44.356 15.1627 44.2893 15.3702 44.2215 15.5759C44.1047 15.933 43.9795 16.2822 43.8438 16.6326C43.7499 16.8756 43.672 17.1203 43.6008 17.3722C43.5506 17.5324 43.4924 17.6881 43.4329 17.8449C43.3528 18.0579 43.2783 18.2732 43.2032 18.49C43.1777 18.5629 43.1777 18.5629 43.1517 18.6374C42.9654 19.173 42.7869 19.7108 42.6095 20.2502C42.5505 20.4298 42.491 20.6089 42.4315 20.7885C42.4037 20.8731 42.4037 20.8731 42.3753 20.9598C42.3014 21.1828 42.2263 21.4014 42.1334 21.6161C42.0305 21.8574 41.9549 22.1038 41.8787 22.3557C41.8497 22.4508 41.8209 22.5454 41.7914 22.6405C41.7788 22.6819 41.7661 22.7233 41.7531 22.7661C41.7188 22.8635 41.7188 22.8635 41.663 22.9191C41.5451 22.9243 41.4272 22.9256 41.3093 22.9254C41.2725 22.9254 41.2354 22.9254 41.1975 22.9254C41.0752 22.9254 40.9528 22.925 40.8299 22.9245C40.7454 22.9244 40.6603 22.9244 40.5758 22.9243C40.3522 22.9241 40.1292 22.9235 39.9084 22.9229C39.6804 22.9224 39.453 22.9221 39.2244 22.9218C38.7773 22.9212 38.329 22.9203 37.8841 22.9191V22.7523H37.7729C37.7588 22.6985 37.7446 22.6449 37.7301 22.5893C37.5999 22.0971 37.5999 22.0971 37.4564 21.6105C37.4105 21.4615 37.3775 21.3275 37.3519 21.1723C37.3353 21.0171 37.3353 21.0171 37.2162 20.8631C37.1862 20.7413 37.16 20.6178 37.1361 20.4949C37.0799 20.2185 37.0121 19.9583 36.917 19.6941C36.8656 19.5312 36.8503 19.3643 36.8269 19.1958C36.7719 19.1135 36.7719 19.1135 36.7157 19.029C36.6858 18.9055 36.6595 18.7815 36.6356 18.6569C36.5899 18.4317 36.5444 18.217 36.4582 18.0007C36.3814 17.8016 36.3542 17.6236 36.3258 17.4112C36.3081 17.3771 36.2904 17.3433 36.2722 17.3077C36.1815 17.1203 36.1659 16.9235 36.1348 16.7182C36.1098 16.5636 36.1098 16.5636 35.9924 16.409C35.9704 16.3089 35.9522 16.2077 35.9368 16.1065C35.906 15.9041 35.8617 15.7561 35.77 15.5748C35.7358 15.453 35.7049 15.3301 35.676 15.2067C35.6609 15.1427 35.6457 15.0793 35.6302 15.0131C35.603 14.8519 35.603 14.8519 35.6586 14.7406H35.5474C35.518 14.6227 35.489 14.5043 35.4607 14.3858L35.4118 14.1862C35.3807 14.0171 35.3807 14.0171 35.4363 13.9059H35.3251C35.3128 13.858 35.3004 13.8102 35.2878 13.7607C35.2409 13.5789 35.1943 13.397 35.1471 13.2152C35.127 13.1373 35.1069 13.0595 35.087 12.9816C35.0675 12.906 35.048 12.8303 35.0286 12.7547C35.009 12.6785 34.9895 12.6029 34.9702 12.5267C34.9199 12.3315 34.8684 12.1368 34.8139 11.9427C34.7981 11.8855 34.7981 11.8855 34.7818 11.8265C34.7524 11.7208 34.7223 11.6146 34.6929 11.509C34.6579 11.3477 34.6579 11.3477 34.7136 11.2365H34.6023C34.5882 11.1797 34.5741 11.1236 34.5595 11.0652C34.5457 11.01 34.5457 11.01 34.5316 10.9539C34.5115 10.8733 34.4913 10.7927 34.471 10.7115C34.4238 10.5218 34.3759 10.3322 34.3259 10.1442C34.3104 10.0853 34.2949 10.0263 34.2789 9.9657C34.2648 9.91309 34.2507 9.86059 34.2361 9.80609C34.2129 9.6804 34.2129 9.6804 34.2685 9.56918H34.1573C33.9854 10.598 33.9854 10.598 33.8569 11.6324C33.8292 11.8977 33.8292 11.8977 33.768 11.9589C33.7527 12.0651 33.7406 12.1719 33.7299 12.2792C33.7231 12.3448 33.7162 12.411 33.7092 12.4789C33.6952 12.6179 33.6813 12.7564 33.6675 12.8954C33.6328 13.2274 33.5835 13.5294 33.4901 13.8519C33.4547 14.09 33.4289 14.3285 33.4033 14.5694C33.3896 14.6956 33.3756 14.8218 33.3614 14.9475C33.3554 15.003 33.3494 15.0587 33.3432 15.1155C33.3234 15.2434 33.3234 15.2434 33.2676 15.299C33.2524 15.3913 33.2402 15.4842 33.2296 15.5771C33.2227 15.6343 33.2159 15.6922 33.2088 15.7511C33.2018 15.8118 33.1949 15.8724 33.1876 15.9352C33.1439 16.3145 33.0937 16.686 33.0147 17.0586C32.9679 17.2988 32.9463 17.5419 32.9224 17.7871C32.8976 18.0179 32.8551 18.2331 32.795 18.4601C32.7383 18.7081 32.7138 18.9622 32.6838 19.2164C32.6403 19.5784 32.5892 19.9338 32.5147 20.2897C32.4786 20.4716 32.4558 20.654 32.4335 20.8375C32.4052 21.0594 32.3762 21.2769 32.3223 21.4937C32.2511 21.7852 32.225 22.0832 32.1944 22.3836C32.1612 22.6933 32.1612 22.6933 32.0998 22.7545C32.0815 22.883 32.0631 23.0114 32.0442 23.1438H27.3727C27.3027 22.933 27.3336 22.7578 27.3623 22.5432C27.3669 22.5043 27.3715 22.4653 27.3763 22.4253C27.3986 22.2506 27.4257 22.0955 27.4831 21.9286C27.5631 21.6823 27.5904 21.4337 27.6232 21.1779C27.6966 20.6106 27.6966 20.6106 27.7661 20.3437C27.8074 20.1835 27.8329 20.045 27.8423 19.881C27.8611 19.6613 27.9013 19.4555 27.9536 19.2414C28.0364 18.9022 28.0837 18.5629 28.1226 18.2181C28.1519 18.0285 28.1519 18.0285 28.2071 17.8667C28.2767 17.6525 28.2972 17.4457 28.3184 17.2215C28.3456 16.9346 28.3935 16.6899 28.4852 16.4152C28.5106 16.2583 28.5258 16.1004 28.5408 15.9424C28.5815 15.5137 28.5815 15.5137 28.6504 15.314C28.7344 15.0576 28.7588 14.7974 28.7911 14.5299C28.8332 14.1834 28.8867 13.8625 28.9857 13.5233C29.0068 13.3859 29.0252 13.248 29.0413 13.1095C29.0723 12.8565 29.1109 12.6134 29.1804 12.3699C29.2365 12.119 29.2588 11.861 29.2883 11.608C29.3195 11.4139 29.3195 11.4139 29.3745 11.2798C29.4306 11.1364 29.4557 11.0134 29.474 10.8605C29.4807 10.8087 29.4874 10.7571 29.4942 10.7037C29.5007 10.6502 29.5073 10.5969 29.5139 10.5413C29.5583 10.1848 29.6102 9.83501 29.683 9.48464C29.7303 9.24773 29.7575 9.00748 29.7881 8.76723C29.8194 8.57871 29.8194 8.57871 29.8749 8.38628C29.9522 8.11267 29.9783 7.83794 30.0106 7.55765C30.0418 7.35633 30.0418 7.35633 30.0957 7.20117C30.178 6.94424 30.2041 6.68452 30.2364 6.41702C30.3098 5.82196 30.3098 5.82196 30.3771 5.56614C30.4427 5.30921 30.471 5.05617 30.4983 4.79312C30.5187 4.61238 30.5476 4.44554 30.5978 4.27036C30.6701 4.01732 30.6946 3.76817 30.7208 3.50846C30.7385 3.34829 30.7572 3.20481 30.8186 3.05521C30.8804 2.89616 30.9059 2.75212 30.9293 2.58361C30.9382 2.52243 30.9472 2.46126 30.9563 2.39842C30.9744 2.27051 30.9923 2.14204 31.0098 2.01413C31.0233 1.92293 31.0233 1.92293 31.037 1.8295C31.0448 1.77388 31.0525 1.71827 31.0605 1.66099C31.125 1.4174 31.2401 1.3312 31.4893 1.3312L31.4887 1.31271Z" fill="#1C1C1C"/>
<path d="M13.0253 1.31738C13.0721 1.31767 13.1187 1.31796 13.1671 1.31825C13.2167 1.31812 13.2661 1.31798 13.3173 1.31784C13.4841 1.31753 13.6509 1.31801 13.8183 1.31849C13.9373 1.31843 14.0569 1.31832 14.1759 1.31817C14.5007 1.3179 14.8266 1.31833 15.1492 1.31889C15.4884 1.31938 15.8276 1.31928 16.1669 1.31926C16.7341 1.31931 17.3069 1.3198 17.8742 1.32056C18.536 1.32143 19.1922 1.32172 19.854 1.32169C20.488 1.32165 21.122 1.32194 21.756 1.3224C22.0257 1.32259 22.296 1.3227 22.5679 1.32273C22.8855 1.32278 23.2019 1.32312 23.5189 1.32368C23.6357 1.32384 23.7525 1.32391 23.8699 1.32388C24.0289 1.32385 24.188 1.32417 24.347 1.32457C24.3938 1.32448 24.4404 1.3244 24.4888 1.32431C24.8075 1.32565 24.8075 1.32565 24.9309 1.38771V5.22501C24.3815 5.22839 23.8298 5.23174 23.2681 5.23525C22.9211 5.2375 22.573 5.23976 22.2281 5.24209C21.677 5.24579 21.127 5.24943 20.5764 5.25271C20.1749 5.25509 19.7756 5.25767 19.3696 5.2605C19.1572 5.26198 18.9442 5.26336 18.7301 5.26451C18.5299 5.2656 18.3302 5.26694 18.1295 5.26848C18.0205 5.26926 17.912 5.26975 17.803 5.27024C17.7068 5.27106 17.7068 5.27106 17.6084 5.27189C17.5522 5.27225 17.496 5.27261 17.4382 5.27298C17.3142 5.26664 17.3142 5.26664 17.2569 5.33638C17.2516 5.48042 17.2499 5.62279 17.2506 5.76627C17.2505 5.81132 17.2505 5.85636 17.2505 5.90252C17.2506 6.05212 17.251 6.20172 17.2514 6.35132C17.2515 6.45476 17.2516 6.5582 17.2517 6.66164C17.2519 6.93415 17.2524 7.20721 17.253 7.47916C17.2536 7.75722 17.2539 8.03529 17.2541 8.31335C17.2547 8.85947 17.2557 9.40337 17.2569 9.95394C17.2935 9.95389 17.3303 9.95384 17.3675 9.95378C18.2573 9.95256 19.1472 9.95164 20.037 9.95106C20.4669 9.95077 20.899 9.95038 21.3272 9.94975C21.702 9.94919 22.078 9.94883 22.4506 9.94871C22.6491 9.94864 22.8476 9.94847 23.0456 9.94807C23.267 9.94762 23.4883 9.94761 23.7074 9.94763C23.7736 9.94743 23.8398 9.94723 23.9082 9.94703C23.9983 9.94714 23.9983 9.94714 24.09 9.94726C24.1424 9.94721 24.1946 9.94716 24.2485 9.9471C24.3737 9.95395 24.3737 9.95394 24.4849 10.0094V13.7911C23.9677 13.7945 23.4505 13.7978 22.9166 13.8013C22.5902 13.8036 22.2659 13.8058 21.9378 13.8082C21.4189 13.8119 20.8979 13.8155 20.3807 13.8188C20.0025 13.8212 19.6243 13.8237 19.2461 13.8266C19.0459 13.828 18.8457 13.8294 18.6455 13.8306C18.4225 13.8319 18.1989 13.8336 17.9782 13.8353C17.8781 13.8358 17.8781 13.8358 17.7757 13.8363C17.6851 13.8371 17.6851 13.8371 17.5928 13.838C17.5399 13.8383 17.4871 13.8387 17.4326 13.8391C17.3147 13.8336 17.3147 13.8336 17.258 13.9025C17.2527 14.0682 17.251 14.2328 17.2516 14.3991C17.2516 14.4511 17.2516 14.5031 17.2516 14.557C17.2516 14.73 17.2521 14.9029 17.2525 15.0759C17.2526 15.1955 17.2527 15.315 17.2528 15.4346C17.253 15.7499 17.2535 16.063 17.2541 16.38C17.2547 16.7015 17.255 17.0251 17.2552 17.3477C17.2558 17.9817 17.2568 18.6101 17.2579 19.2441C17.2994 19.244 17.3408 19.244 17.3836 19.2439C18.3902 19.2427 19.4024 19.2418 20.409 19.2412C20.8967 19.2409 21.3822 19.2405 21.8716 19.2399C22.2965 19.2393 22.7225 19.239 23.1451 19.2389C23.3704 19.2388 23.5956 19.2386 23.8181 19.2382C24.03 19.2378 24.2413 19.2377 24.4521 19.2378C24.5299 19.2378 24.6078 19.2377 24.6856 19.2375C24.7913 19.2372 24.8975 19.2373 25.0032 19.2374C25.0627 19.2374 25.1222 19.2373 25.1834 19.2373C25.3163 19.2441 25.3163 19.2441 25.3719 19.2995V23.1369H12.6365C12.5581 22.98 12.5736 22.8504 12.5736 22.6753C12.5735 22.6387 12.5735 22.6024 12.5734 22.5646C12.5731 22.4411 12.5732 22.3177 12.5734 22.1937C12.5733 22.1047 12.5731 22.0157 12.573 21.9267C12.5726 21.6809 12.5727 21.4356 12.5727 21.1926C12.5727 20.9279 12.5724 20.6637 12.5722 20.3973C12.5717 19.879 12.5715 19.3629 12.5715 18.8402C12.5715 18.4192 12.5714 18.0004 12.5712 17.5778C12.5707 16.3876 12.5704 15.192 12.5705 14.0018C12.5705 13.9373 12.5705 13.8734 12.5705 13.8066C12.5705 13.7421 12.5705 13.6776 12.5705 13.6114C12.5705 12.5659 12.57 11.5204 12.5692 10.4749C12.5684 9.40152 12.568 8.33374 12.5681 7.26041C12.5681 6.65979 12.5679 6.05361 12.5673 5.45298C12.5668 4.94023 12.5667 4.4297 12.5671 3.9125C12.5673 3.65056 12.5673 3.38918 12.5668 3.12835C12.5664 2.88922 12.5664 2.64952 12.5669 2.41094C12.567 2.32419 12.5669 2.23687 12.5666 2.15012C12.5662 2.03277 12.5665 1.91543 12.567 1.79753C12.5669 1.73191 12.5669 1.66684 12.5669 1.59899C12.5943 1.29924 12.7621 1.32259 13.0229 1.32093L13.0253 1.31738Z" fill="#1C1C1C"/>
<path d="M82.9866 1.0459C83.0428 1.04603 83.099 1.04617 83.1568 1.04631C85.2089 1.05215 85.2089 1.05215 86.0654 1.2543C86.1777 1.28066 86.29 1.3038 86.4035 1.32549C86.5064 1.34529 86.5064 1.34529 86.6115 1.36547C86.6804 1.37865 86.7494 1.39183 86.8206 1.40546C87.0036 1.44578 87.1748 1.49833 87.3517 1.56006C87.4396 1.58459 87.528 1.60895 87.6159 1.63292C88.3666 1.85648 88.3666 1.85648 88.5724 2.17181C88.5436 2.69846 88.3727 3.22846 88.2298 3.73454C88.2062 3.81796 88.1826 3.90138 88.1592 3.9848C88.1472 4.0269 88.1353 4.06877 88.123 4.11215C88.0251 4.46251 87.9445 4.81844 87.8738 5.17436C87.8231 5.41962 87.7504 5.62149 87.6275 5.84172C87.3205 5.78388 87.0736 5.7038 86.7933 5.56365C86.642 5.51772 86.4896 5.47745 86.3361 5.43852C86.1815 5.39704 86.1815 5.39704 86.0225 5.34176C85.8228 5.2778 85.6221 5.23721 85.4163 5.19883C85.0276 5.12598 85.0276 5.12598 84.9019 5.06314C84.5765 5.00858 84.2512 4.99918 83.9175 5.00029C83.8738 5.00024 83.8302 5.00019 83.7846 5.00013C83.6928 5.00009 83.6011 5.00019 83.5093 5.00043C83.3703 5.00073 83.2313 5.00043 83.0922 5.00008C83.0021 5.00011 82.9126 5.00018 82.8225 5.00029C82.7816 5.00018 82.7407 5.00007 82.6985 4.99995C82.2908 5.00176 81.8921 5.03933 81.4972 5.14343C81.4405 5.15828 81.3838 5.17313 81.3254 5.18842C81.1435 5.2377 80.9617 5.28686 80.7809 5.34136C80.7453 5.35187 80.7098 5.36233 80.6731 5.37317C80.336 5.47828 80.0391 5.62677 79.7276 5.79694C79.6348 5.84777 79.5413 5.89816 79.4479 5.94877C79.4074 5.97101 79.3667 5.99326 79.325 6.01606C79.2232 6.06444 79.2232 6.06444 79.112 6.06444C79.0936 6.1195 79.0753 6.17456 79.0564 6.23128C78.9452 6.26838 78.8339 6.30525 78.7227 6.34251C78.7043 6.39757 78.686 6.45262 78.6671 6.50935C78.5803 6.59889 78.5803 6.59889 78.4758 6.68675C78.4415 6.71623 78.4074 6.7457 78.3718 6.77629C78.2778 6.84358 78.2778 6.84358 78.1666 6.84358C78.1631 6.87456 78.1597 6.90531 78.1561 6.93757C78.0916 7.12109 77.9776 7.2173 77.833 7.3441H77.7218C77.7071 7.38437 77.6924 7.42474 77.6772 7.46645C77.6099 7.62439 77.5299 7.75175 77.4331 7.89356C77.0115 8.54423 76.7157 9.26164 76.5377 10.0124C76.5085 10.1309 76.4754 10.2482 76.4393 10.365C75.9632 12.1558 76.1818 14.4971 77.051 16.1488C77.0732 16.1927 77.0953 16.2366 77.1183 16.2817C77.358 16.7399 77.6433 17.1659 78.0526 17.4829C78.0698 17.5196 78.087 17.5563 78.1048 17.5942C78.1932 17.761 78.3422 17.8266 78.4974 17.9278V18.0391C78.5892 18.0758 78.6809 18.1125 78.7755 18.1503V18.2615C78.8214 18.2741 78.8672 18.2868 78.9145 18.2998C79.0691 18.3576 79.1753 18.4099 79.3105 18.4978C79.8944 18.8732 80.495 19.0928 81.168 19.2652C81.2364 19.2825 81.3048 19.2998 81.3754 19.3176C83.2885 19.7352 85.6576 19.5356 87.4372 18.7002C87.5646 18.6546 87.5646 18.6546 87.7314 18.7103C87.7373 18.7469 87.7431 18.7837 87.7492 18.8215C87.8905 19.7113 87.8905 19.7113 88.0807 20.5955C88.1407 20.853 88.1863 21.1133 88.2319 21.3741C88.2523 21.5599 88.2523 21.5599 88.3432 21.7139C88.3562 21.8352 88.3662 21.957 88.3744 22.0787C88.3791 22.1455 88.3838 22.2122 88.3885 22.2806C88.3919 22.3322 88.3953 22.3835 88.3988 22.4369C87.6591 22.8646 86.7804 23.0431 85.9518 23.2155C85.9143 23.2234 85.8767 23.2313 85.8378 23.2394C83.6689 23.6804 81.3164 23.6198 79.1642 23.1043C79.1219 23.0944 79.0797 23.0845 79.0357 23.0742C78.612 22.9741 78.2127 22.8462 77.8123 22.6705C77.6771 22.6115 77.5414 22.5604 77.4029 22.5098C76.9858 22.3451 76.6021 22.1077 76.2128 21.8869C76.1038 21.8263 75.9937 21.7701 75.8819 21.7156V21.6044C75.8429 21.591 75.8041 21.5776 75.764 21.5638C75.5777 21.4815 75.4326 21.3764 75.2702 21.2534C75.214 21.2112 75.1578 21.1689 75.1 21.1255C74.9415 20.9965 74.8008 20.8614 74.6584 20.7146C74.6178 20.6746 74.5772 20.6345 74.5355 20.5933C74.2975 20.3581 74.0695 20.1184 73.8515 19.8648C73.7642 19.7625 73.7642 19.7625 73.6429 19.6479C73.5306 19.5317 73.4594 19.4088 73.3788 19.2692C73.349 19.2302 73.3193 19.1913 73.2887 19.1513C73.2119 19.0467 73.2119 19.0467 73.1563 18.8799C73.13 18.8546 73.1035 18.8294 73.0762 18.8031C72.9689 18.6919 72.9344 18.5773 72.8783 18.435C72.8416 18.4166 72.8048 18.3983 72.767 18.3794V18.1569H72.6558C72.6334 18.0968 72.6334 18.0968 72.6106 18.0351C72.5484 17.8772 72.5484 17.8772 72.4577 17.7359C72.3826 17.6086 72.3565 17.519 72.322 17.3778L72.2353 17.2143C72.1557 17.0446 72.139 16.9495 72.1552 16.766H72.0439C72.0252 16.677 72.0067 16.5875 71.9883 16.4985C71.9729 16.424 71.9729 16.424 71.9571 16.3478C71.9327 16.2099 71.9327 16.2099 71.9327 16.0431H71.8215C71.7866 15.8973 71.752 15.7511 71.7169 15.6048C71.7073 15.5644 71.6976 15.5242 71.6876 15.4825C71.6573 15.3546 71.6281 15.2261 71.5987 15.0976C71.5888 15.0559 71.5789 15.0142 71.5688 14.9708C71.477 14.5543 71.447 14.1366 71.4214 13.7084C71.419 13.6698 71.4166 13.6311 71.4141 13.5911C71.3329 12.2452 71.3441 10.8382 71.71 9.53131C71.728 9.45012 71.7454 9.36948 71.7622 9.28773C71.8662 8.81279 71.9863 8.35342 72.2104 7.91964C72.2482 7.82732 72.2855 7.73445 72.3216 7.64158C72.5546 7.1088 72.8055 6.58493 73.1002 6.08441H73.2114C73.2266 6.04426 73.2417 6.00433 73.2573 5.96262C73.4169 5.58111 73.6304 5.25077 73.9357 4.9727C73.9862 4.91208 74.0358 4.85035 74.0853 4.78862C74.1487 4.71466 74.1487 4.71466 74.2138 4.63902H74.325C74.3377 4.60805 74.3503 4.57729 74.3633 4.54504C74.5262 4.25752 74.8076 4.05397 75.0529 3.83875C75.1552 3.75088 75.1552 3.75088 75.2359 3.66468C75.3504 3.55401 75.475 3.4667 75.6051 3.37494C75.654 3.34029 75.703 3.30542 75.7531 3.26983C75.8799 3.1903 75.8799 3.1903 75.9911 3.1903V3.07907C76.0447 3.04888 76.0984 3.01846 76.1535 2.98787C76.2247 2.94766 76.2953 2.90723 76.3665 2.86719C76.4194 2.83743 76.4194 2.83743 76.4733 2.80713C76.6562 2.70313 76.8242 2.59413 76.9921 2.46733C77.0828 2.41778 77.174 2.37056 77.2669 2.32496C77.3132 2.30194 77.3597 2.27891 77.4076 2.25544C77.5455 2.19093 77.6851 2.13476 77.8269 2.07859C77.8785 2.05223 77.9303 2.02582 77.9832 1.99851C78.3452 1.8211 78.7228 1.70654 79.1065 1.60254C79.1916 1.5793 79.2773 1.55605 79.3624 1.53303C79.4033 1.52196 79.4441 1.51089 79.4864 1.49955C79.5932 1.47013 79.6994 1.43837 79.8056 1.40668C79.9958 1.35518 80.1804 1.32326 80.3729 1.29656C80.5886 1.28377 80.5886 1.28377 80.7688 1.18867C81.4973 1.06187 82.2259 1.05965 82.9655 1.06354L82.9866 1.0459Z" fill="#1C1C1C"/>
<path d="M65.4122 1.0459C65.5645 1.04692 65.7164 1.04704 65.8688 1.04703C66.3737 1.04802 66.8753 1.05837 67.3814 1.08279C67.4504 1.08608 67.4504 1.08608 67.521 1.08946C67.7818 1.10342 68.0315 1.12933 68.2885 1.19068C68.4219 1.22032 68.5538 1.2434 68.6889 1.26464C68.7341 1.27176 68.7795 1.27888 68.8257 1.28616C68.9164 1.30023 69.007 1.31408 69.0982 1.3276C69.3017 1.3598 69.4336 1.38655 69.6071 1.50222C69.7155 1.52814 69.8245 1.55088 69.9341 1.57174C70.3578 1.66517 70.9129 1.79308 71.1631 2.17236C71.1856 2.42484 71.1318 2.60225 71.0519 2.83972C71.0136 2.98654 70.9763 3.13335 70.9407 3.28129C70.8723 3.56269 70.7983 3.84298 70.7182 4.12104C70.6899 4.23338 70.662 4.34572 70.6348 4.45806C70.5792 4.68385 70.5136 4.9013 70.4402 5.11986C70.3823 5.34175 70.3273 5.5642 70.2733 5.78721C70.0992 5.8445 70.0075 5.84338 69.839 5.77331C69.7998 5.75746 69.7606 5.74161 69.72 5.72532C69.6232 5.68355 69.5275 5.64023 69.4319 5.59629C68.8702 5.35438 68.2584 5.24259 67.6634 5.14138C67.5878 5.12709 67.5121 5.11029 67.437 5.09122C66.9888 4.98221 66.5361 4.99222 66.0801 4.99445C65.9383 4.99504 65.7959 4.99445 65.6541 4.99374C65.1975 4.99333 64.7698 5.00459 64.3249 5.11998C64.2426 5.13695 64.1598 5.15357 64.0769 5.16976C63.3929 5.31157 62.7811 5.52568 62.1582 5.84268H62.047C62.0287 5.89773 62.0103 5.95279 61.9914 6.00952C61.8479 6.10295 61.8479 6.10295 61.6683 6.20082C61.4453 6.32206 61.2751 6.43607 61.101 6.62126C61.0354 6.67743 60.9698 6.73304 60.9031 6.7881C60.7612 6.90767 60.6545 7.02724 60.5449 7.17739H60.4337C60.4188 7.21754 60.4039 7.25747 60.3885 7.29918C60.3223 7.45546 60.2517 7.59393 60.1555 7.73352H60.0443C60.0297 7.78219 60.0152 7.83085 60.0002 7.8809C59.934 8.06498 59.8528 8.21068 59.7488 8.37641C59.4424 8.89306 59.2589 9.42194 59.1371 10.0114C59.0995 10.1822 59.0995 10.1822 59.0447 10.3562C58.968 10.6477 58.933 10.9402 58.8979 11.2405C58.887 11.3328 58.887 11.3328 58.8758 11.4268C58.8245 11.8828 58.7841 12.3388 58.8215 12.8004C58.8398 12.8188 58.8582 12.8371 58.8771 12.856C58.8857 12.9456 58.8911 13.0351 58.8951 13.1247C58.9646 14.3871 59.2382 15.5605 59.9351 16.6394C59.9633 16.6836 59.9918 16.7278 60.0207 16.7734C60.2532 17.1305 60.4834 17.4352 60.8271 17.6966C60.9266 17.7817 61.0256 17.8679 61.1246 17.9541C61.2253 18.0403 61.2253 18.0403 61.3832 18.1415V18.2527C61.4505 18.2699 61.4505 18.2699 61.5189 18.2875C61.6896 18.3537 61.802 18.4171 61.9499 18.5205C63.6906 19.7106 66.1932 19.6272 68.1786 19.2657C68.8293 19.1401 69.4466 18.9688 70.0472 18.6929C70.0873 18.6779 70.1273 18.6628 70.169 18.6473C70.2802 18.7029 70.2802 18.7029 70.3375 18.872C70.397 19.0995 70.437 19.3297 70.4749 19.5616C70.5185 19.8269 70.5694 20.0849 70.6367 20.3457C70.7073 20.6422 70.7624 20.9408 70.8202 21.2411C70.8432 21.3596 70.8664 21.478 70.8897 21.5965C70.9045 21.6721 70.9191 21.7483 70.9338 21.8239C70.9537 21.9263 70.9537 21.9263 70.974 22.0308C71.0029 22.2071 71.0029 22.2071 71.0029 22.4296C70.5274 22.7043 70.0297 22.8456 69.5013 22.9857C69.4307 23.0052 69.3601 23.0247 69.2867 23.0447C68.2245 23.3233 67.0955 23.4662 65.9999 23.4862C65.9466 23.4874 65.8932 23.4885 65.8381 23.4897C64.4533 23.5153 63.1186 23.4372 61.7728 23.097C61.7088 23.0813 61.7088 23.0813 61.6438 23.0652C60.8151 22.8589 60.0699 22.5252 59.3025 22.1421C59.2661 22.124 59.2296 22.106 59.1923 22.0874C58.9532 21.9673 58.7207 21.8388 58.4916 21.7042V21.593C58.431 21.5716 58.431 21.5716 58.3687 21.5498C58.2058 21.4786 58.0929 21.3968 57.9566 21.2834C57.9085 21.2437 57.8604 21.2039 57.8109 21.1633C57.7604 21.1214 57.7097 21.0798 57.658 21.0365C57.5796 20.9747 57.5796 20.9747 57.4995 20.9113C57.1235 20.6132 56.7487 20.3107 56.5429 19.8658H56.4317C56.4093 19.7985 56.4093 19.7985 56.3865 19.7301C56.3647 19.6831 56.3429 19.6361 56.3204 19.5877C56.2653 19.5694 56.2102 19.551 56.1535 19.5321C56.0723 19.4287 56.0723 19.4287 55.99 19.2991C55.9613 19.254 55.9327 19.209 55.9027 19.1623C55.8752 19.1191 55.8478 19.0761 55.8193 19.0311C55.7754 18.9682 55.7314 18.9059 55.6869 18.8431C55.5968 18.6974 55.5968 18.6974 55.5968 18.5305H55.4856C55.4321 18.4343 55.3788 18.3381 55.3254 18.2419C55.2957 18.1883 55.2659 18.1346 55.2354 18.0795C55.1603 17.9349 55.0991 17.792 55.0401 17.6407C55.0021 17.5595 54.964 17.4783 54.9256 17.3971C54.8266 17.178 54.7827 16.9895 54.7621 16.752H54.6509C54.6447 16.7198 54.6387 16.6875 54.6324 16.6541C54.6236 16.6107 54.6148 16.5674 54.6057 16.5223C54.5973 16.4797 54.5889 16.4373 54.5803 16.3933C54.5431 16.2448 54.5431 16.2448 54.4579 16.0963C54.3573 15.885 54.315 15.6881 54.275 15.4568C54.2673 15.4168 54.2596 15.3767 54.2517 15.3356C54.1981 15.0403 54.1981 15.0403 54.2611 14.9146H54.1498C54.0442 14.2083 54.0214 13.5131 54.0242 12.7957C54.0247 12.6194 54.0242 12.4437 54.0234 12.2674C54.023 11.7057 54.0368 11.1496 54.088 10.5934C54.0923 10.5458 54.0966 10.4983 54.101 10.4494C54.1269 10.1986 54.1722 9.9789 54.2606 9.7431C54.2876 9.62076 54.313 9.49785 54.3374 9.37494C54.6516 7.89564 55.3718 6.44969 56.3061 5.2707C56.3801 5.1756 56.3801 5.1756 56.4579 5.03601C56.558 4.87417 56.6798 4.75739 56.8172 4.62614C56.8839 4.55829 56.8839 4.55829 56.9523 4.48933C57.2137 4.22517 57.4779 3.97491 57.7643 3.73855C57.7878 3.71353 57.8114 3.6885 57.836 3.66292C57.9767 3.52889 58.1346 3.41989 58.2926 3.30755L58.3977 3.23303C58.6991 3.02059 59.0039 2.81927 59.3209 2.62685C59.3727 2.59431 59.4243 2.56178 59.4777 2.52841C59.9093 2.26481 60.3508 2.08184 60.8235 1.90554C60.873 1.88569 60.9225 1.86584 60.9737 1.84548C61.6355 1.58188 62.3251 1.40336 63.0258 1.29102C63.221 1.2745 63.221 1.2745 63.3829 1.18257C64.0613 1.07357 64.7343 1.05522 65.4183 1.05967L65.4122 1.0459Z" fill="#1C1C1C"/>
<path d="M45.5576 27.4178C45.9763 27.9066 46.2027 28.5356 46.3973 29.1418C46.5458 29.6056 46.7065 30.0594 46.8995 30.5043C47.0269 30.8502 47.0219 31.3719 46.9032 31.7278C46.6424 32.1232 46.1413 32.3062 45.7131 32.4563C45.6668 32.4729 45.6207 32.4895 45.5729 32.5066C45.2643 32.6167 44.9556 32.7218 44.6442 32.8236C44.5179 32.8655 44.3934 32.9098 44.2688 32.9565C44.2337 32.9695 44.1987 32.9826 44.1626 32.996C44.0942 33.0231 44.0263 33.0522 43.9596 33.0839C43.5925 33.2474 43.1587 33.2835 42.7695 33.1667C42.3857 32.9693 42.1299 32.5772 41.9464 32.2046C41.9034 32.0573 41.8702 31.9093 41.8351 31.7597C41.7984 31.7047 41.7617 31.6496 41.7239 31.5929C41.7036 31.5123 41.6864 31.4311 41.6718 31.3493C41.6283 31.138 41.5583 30.9989 41.446 30.8143C41.4004 30.6747 41.3609 30.5335 41.3214 30.3922C41.2812 30.2493 41.2812 30.2493 41.189 30.0952C41.0261 29.7326 41.0194 29.3723 41.1369 28.9941C41.3193 28.5598 41.6129 28.349 42.0378 28.1655C42.3415 28.0487 42.6495 27.9402 42.9554 27.8329C43.2452 27.73 43.5282 27.6154 43.8174 27.5003C44.3736 27.2795 45.0187 27.076 45.5637 27.4219L45.5576 27.4178Z" fill="#00CCC6"/>
<path d="M35.0474 33.8141C35.3749 34.0483 35.4934 34.4203 35.6257 34.7818C35.6474 34.8396 35.6474 34.8396 35.6695 34.8991C35.7918 35.2289 35.9091 35.5609 36.0237 35.8946C36.086 36.0737 36.1505 36.2422 36.2317 36.414C36.3157 36.6315 36.3368 36.8234 36.3351 37.0536C36.3348 37.0929 36.3344 37.132 36.3341 37.1726C36.3248 37.4345 36.2989 37.622 36.1177 37.8177C36.0885 37.8417 36.0593 37.8658 36.0293 37.8906C35.9995 37.9152 35.9698 37.9397 35.9392 37.9651C35.6317 38.1825 35.2718 38.2899 34.9159 38.4089C34.7558 38.4631 34.5967 38.5201 34.4377 38.5768C34.3164 38.62 34.1946 38.6625 34.0728 38.7048C33.9505 38.7475 33.8298 38.7915 33.7091 38.8388C33.3304 38.9823 32.9472 39.0173 32.5579 38.8814C32.3944 38.7685 32.2671 38.6495 32.1342 38.5027C32.0741 38.4393 32.0741 38.4393 32.0124 38.3742C31.8806 38.179 31.8472 38.0099 31.8005 37.7791H31.6892C31.6231 37.5633 31.578 37.3943 31.578 37.1674C31.5413 37.149 31.5046 37.1307 31.4668 37.1118C31.4851 37.0751 31.5035 37.0384 31.5224 37.0005H31.4112C31.3317 36.7408 31.2777 36.4928 31.2443 36.222H31.1331C30.9974 35.9506 31.0341 35.5379 31.1175 35.2487C31.5135 34.4145 32.5467 34.2199 33.3476 33.9307C33.4549 33.8916 33.5617 33.8512 33.6685 33.8111C34.1512 33.6354 34.5805 33.5536 35.0477 33.8185L35.0474 33.8141Z" fill="#00CCC6"/>
<path d="M23.2557 35.2019C23.3392 35.2614 23.3392 35.2614 23.3948 35.3726C23.4207 35.4058 23.4466 35.4393 23.4732 35.4732C23.7685 35.8798 23.9142 36.3964 24.0738 36.8691C24.1116 36.9809 24.1494 37.0927 24.1873 37.2045C24.2036 37.253 24.2199 37.3018 24.2366 37.3513C24.2822 37.4837 24.2822 37.4837 24.3461 37.5999C24.4857 37.893 24.449 38.334 24.3971 38.651C24.2225 39.0419 23.8355 39.2238 23.4517 39.3739C23.2004 39.4635 22.9473 39.5469 22.6954 39.6281C22.4073 39.721 22.1226 39.8272 21.8445 39.9406C21.4725 40.0396 21.166 40.0207 20.8268 39.8311C20.68 39.7315 20.5626 39.6209 20.4486 39.4857V39.3745H20.3374C20.3121 39.315 20.2869 39.2555 20.2606 39.1938C20.2114 39.0775 20.1611 38.968 20.1005 38.8567C20.0867 38.8258 20.0729 38.795 20.0588 38.7628L20.1144 38.6515H20.0032C19.997 38.618 19.991 38.5842 19.9847 38.5498C19.9369 38.2767 19.9369 38.2767 19.8051 38.0398C19.6911 37.8807 19.6972 37.7272 19.6866 37.5354C19.6809 37.5 19.6753 37.4647 19.6694 37.428C19.6327 37.4097 19.596 37.3913 19.5582 37.3724C19.5765 37.3357 19.5949 37.299 19.6138 37.2612H19.5026C19.4742 36.8758 19.4907 36.5772 19.725 36.2602C19.9986 35.9582 20.2923 35.7919 20.6705 35.6484C20.7472 35.6178 20.8245 35.5872 20.9012 35.5561C21.1571 35.4543 21.414 35.3565 21.6687 35.2591C21.7327 35.2346 21.7966 35.21 21.8622 35.1846C22.3628 35.0028 22.7743 34.9382 23.2526 35.1996L23.2557 35.2019Z" fill="#00CCC6"/>
<path d="M12.1339 30.753V30.8643C12.1702 30.8979 12.1702 30.8979 12.2073 30.9321C12.556 31.3003 12.7073 32.0055 12.858 32.4782C12.8983 32.6022 12.9386 32.7262 12.9798 32.8502C12.9978 32.9055 13.0157 32.9609 13.0343 33.0176C13.069 33.1416 13.069 33.1416 13.136 33.2011C13.1461 33.3457 13.1515 33.4875 13.1534 33.6321C13.1558 33.6922 13.1558 33.6922 13.1583 33.7528C13.1605 33.9419 13.145 34.0743 13.0548 34.2411C12.7145 34.5486 12.2985 34.6999 11.8703 34.8417C11.4765 34.9719 11.4765 34.9719 11.0917 35.1231C10.6952 35.2922 10.3409 35.3923 9.9127 35.3144C9.5907 35.1837 9.3599 34.8862 9.18973 34.5915C9.15497 34.4246 9.15497 34.4246 9.13411 34.2578C9.0785 34.1404 9.01732 34.0275 8.95281 33.9147C8.91155 33.8129 8.91155 33.8129 8.96716 33.646C8.93046 33.6277 8.89375 33.6093 8.85594 33.5904C8.81639 33.4931 8.81639 33.4931 8.77919 33.368C8.72135 33.1806 8.65295 33.0087 8.5673 32.833C8.4444 32.5577 8.40992 32.3536 8.51753 32.06C8.68937 31.6829 8.86511 31.4482 9.25162 31.2925C9.45239 31.2196 9.65426 31.1518 9.85781 31.0851C9.96458 31.0473 10.0714 31.0089 10.1776 30.9705C10.2261 30.9529 10.2749 30.9352 10.3244 30.9171C10.519 30.8442 10.7115 30.7658 10.9028 30.6868C11.3388 30.5211 11.7259 30.5405 12.1374 30.7519L12.1339 30.753Z" fill="#00CCC6"/>
<path d="M4.36049 21.9109C4.73421 22.2763 4.86768 22.8675 5.02229 23.3569C5.04131 23.4147 5.06033 23.4731 5.08012 23.5331C5.11633 23.6438 5.15242 23.7545 5.18801 23.8652C5.22444 23.9769 5.26254 24.0876 5.30146 24.1988C5.36876 24.4163 5.38655 24.6165 5.34534 24.8439C5.22021 25.0041 5.22021 25.0041 5.06728 25.122C5.0363 25.1488 5.00555 25.1755 4.97329 25.2032C4.79867 25.3194 4.61125 25.3801 4.4116 25.4457C4.158 25.5319 3.90496 25.6181 3.65526 25.7187C2.76545 26.0786 2.76545 26.0786 2.27049 25.8872C2.00132 25.6181 1.84783 25.2588 1.72826 24.8973C1.74662 24.8606 1.76497 24.8239 1.78388 24.7861H1.67265C1.60647 24.5703 1.56142 24.4013 1.56142 24.1744H1.4502C1.43946 24.1368 1.42868 24.0993 1.41761 24.0604C1.39586 23.9858 1.39586 23.9858 1.37373 23.9102C1.35955 23.8612 1.34537 23.8123 1.33074 23.7617C1.2877 23.6316 1.23397 23.5176 1.17224 23.3958C1.13426 23.195 1.17554 23.111 1.26957 22.9264C1.64662 22.4426 2.39295 22.2869 2.95465 22.0978C3.10424 22.0457 3.24995 21.9865 3.39733 21.9276C3.73879 21.8041 4.01463 21.773 4.35387 21.9102L4.36049 21.9109Z" fill="#00CCC6"/>
<path d="M2.68055 10.4552V10.5664C2.7356 10.5848 2.79066 10.6031 2.84739 10.622C3.04148 10.8161 3.11488 11.008 3.1933 11.2616C3.23857 11.404 3.29173 11.5413 3.3479 11.6798C3.36653 11.7266 3.38516 11.7732 3.40463 11.8216C3.43789 11.9022 3.47303 11.9823 3.51085 12.0607C3.67825 12.4306 3.72162 12.9061 3.58537 13.2954C3.42632 13.5223 3.17161 13.5951 2.91801 13.6752C2.78232 13.7196 2.65274 13.767 2.52094 13.8209C1.53102 14.2213 1.53102 14.2213 1.0305 14.0851C0.654559 13.8826 0.46325 13.4066 0.340901 13.0117C0.325496 12.9685 0.310091 12.9255 0.294186 12.8805C0.218552 12.6664 0.174061 12.5201 0.174061 12.291C0.137357 12.2726 0.100652 12.2543 0.0628352 12.2354C0.00788942 11.9773 -0.0456104 11.6459 0.0628352 11.4012C0.323105 11.0981 0.641212 10.9763 1.00826 10.845C1.09112 10.8118 1.17454 10.7783 1.25741 10.7449C2.16946 10.3834 2.16946 10.3834 2.67554 10.4557L2.68055 10.4552Z" fill="#00CCC6"/>
<path d="M7.0722 0C7.09055 0.0367047 7.1089 0.0734093 7.12781 0.111226C7.16451 0.092874 7.20122 0.0745216 7.23904 0.0556131C7.33024 0.0474936 7.422 0.0433226 7.51376 0.0417099C7.58662 0.0395576 7.58662 0.0395576 7.66114 0.0373665C7.79517 0.0556076 7.79517 0.0556076 7.89638 0.133021C7.96201 0.222558 7.96201 0.222558 7.96201 0.333785H8.07323C8.17167 0.558462 8.26844 0.783695 8.36353 1.01226C8.40107 1.10069 8.43972 1.18911 8.47865 1.27698C8.63771 1.66405 8.69276 2.03332 8.62936 2.45042C8.3652 2.88754 7.66726 3.03992 7.20567 3.18451C7.07164 3.22467 7.07164 3.22467 6.9593 3.28462C6.69236 3.31876 6.43098 3.33005 6.19184 3.18729C5.82368 2.88087 5.66296 2.3531 5.54673 1.90263C5.51497 1.78139 5.51497 1.78139 5.45274 1.67239C5.33929 1.43103 5.35375 1.14296 5.43689 0.893809C5.69772 0.446679 6.33226 0.287626 6.79941 0.148593C6.91676 0.11161 6.91676 0.11161 7.06636 0.00177406L7.0722 0Z" fill="#00CCC6"/>
<path d="M75.7569 27.7502C75.7844 27.7754 75.8119 27.8007 75.8403 27.8269V27.9381L75.9515 27.9938C76.0199 28.0972 76.0839 28.2029 76.1461 28.3102C76.18 28.368 76.214 28.4253 76.2485 28.4848C76.6011 29.1633 76.6266 30.1866 76.442 30.9262C76.1873 31.6158 75.7913 32.0496 75.1573 32.4C74.5456 32.6725 73.7503 32.6319 73.1163 32.4408C72.9612 32.3752 72.8199 32.2979 72.6714 32.2184V32.1071C72.6181 32.0848 72.6181 32.0848 72.5635 32.062C72.449 31.9958 72.449 31.9958 72.3934 31.829H72.2821C72.0102 31.458 71.845 31.1227 71.8372 30.6611H71.7816C71.7278 29.7157 71.8042 28.8536 72.449 28.1029C73.3054 27.1686 74.718 27.074 75.758 27.7481L75.7569 27.7502ZM73.1152 28.7735C72.7732 29.363 72.6865 29.9858 72.811 30.6587C72.9484 31.102 73.2337 31.365 73.6174 31.6097C74.0006 31.7376 74.4405 31.721 74.8075 31.5576C75.1407 31.3668 75.3036 31.0882 75.4582 30.7456C75.53 30.4548 75.5222 30.1672 75.5199 29.8725C75.5204 29.8113 75.5208 29.7501 75.5212 29.6867C75.521 29.5994 75.521 29.5994 75.5208 29.5099C75.5207 29.4567 75.5206 29.4037 75.5204 29.3486C75.5185 29.2079 75.5185 29.2079 75.3947 29.1078C75.3694 29.0377 75.3465 28.9671 75.3252 28.8959C75.2229 28.6145 75.0572 28.4705 74.7913 28.3287C74.174 28.0639 73.5289 28.2386 73.1174 28.7719L73.1152 28.7735Z" fill="#1C1C1C"/>
<path d="M78.4247 27.3624C78.5159 27.3615 78.6066 27.36 78.6978 27.3578C79.2706 27.3445 79.8212 27.3426 80.3217 27.6598C80.4201 27.8022 80.4201 27.8022 80.4885 27.9379C80.5099 27.9712 80.5314 28.0046 80.5536 28.0391C80.7427 28.3628 80.7549 28.6842 80.711 29.0512C80.6031 29.3727 80.4274 29.5768 80.1549 29.7742C80.1897 29.7957 80.2244 29.8172 80.2605 29.8393C80.306 29.8683 80.3512 29.8971 80.3984 29.9271C80.4663 29.9697 80.4663 29.9697 80.5352 30.0133C80.6615 30.1129 80.7115 30.1813 80.7666 30.3303V30.4416C80.7754 30.4728 80.7842 30.5039 80.7933 30.5361C80.8845 30.9388 80.8962 31.4315 80.6771 31.793C80.3612 32.1878 79.9875 32.427 79.4869 32.4993C79.3273 32.5038 79.1694 32.5058 79.0098 32.5047C78.9419 32.5046 78.9419 32.5046 78.8724 32.5045C78.7284 32.5041 78.5843 32.5034 78.4409 32.5027C78.343 32.5025 78.2451 32.5022 78.1472 32.502C77.9081 32.5014 77.6684 32.5004 77.4298 32.4993C77.3414 32.323 77.3664 32.1328 77.367 31.9376C77.3669 31.8912 77.3668 31.8447 77.3667 31.7969C77.3664 31.6428 77.3666 31.4893 77.3668 31.3353C77.3667 31.2285 77.3667 31.1217 77.3666 31.0155C77.3665 30.7919 77.3666 30.5678 77.3669 30.3426C77.3672 30.0556 77.367 29.7698 77.3667 29.4806C77.3665 29.2603 77.3666 29.0401 77.3667 28.8188C77.3668 28.7131 77.3667 28.6069 77.3666 28.5012C77.3664 28.3533 77.3667 28.2054 77.367 28.0574C77.3669 28.0135 77.3667 27.9696 77.3666 27.9245C77.3673 27.7466 77.373 27.6047 77.43 27.4346C77.7437 27.33 78.0974 27.3617 78.4255 27.3595L78.4247 27.3624ZM78.3196 28.2188C78.2529 28.3523 78.2579 28.4352 78.2584 28.5842C78.2586 28.634 78.2588 28.6838 78.259 28.7349C78.2595 28.787 78.2599 28.8389 78.2604 28.8929C78.2606 28.9454 78.2609 28.998 78.2612 29.0519C78.2618 29.182 78.2627 29.3116 78.2639 29.4418C78.6493 29.5891 79.0035 29.5802 79.3928 29.4568C79.5202 29.3889 79.578 29.3439 79.6525 29.2193C79.7016 28.9301 79.7243 28.6354 79.5847 28.3684C79.291 28.0909 78.6893 28.1248 78.3167 28.2194L78.3196 28.2188ZM78.3752 30.2765C78.2545 30.4573 78.2507 30.5062 78.2529 30.7153C78.2532 30.7675 78.2536 30.8199 78.254 30.8732C78.2549 30.9275 78.2558 30.9817 78.2568 31.0379C78.2573 31.0928 78.2578 31.148 78.2583 31.2041C78.2596 31.3398 78.2615 31.4755 78.2637 31.6112C78.6636 31.7414 79.0924 31.787 79.4928 31.6171C79.6163 31.5359 79.7164 31.4374 79.8209 31.3329C79.8345 31.1588 79.8345 31.1588 79.8279 30.9647C79.8269 30.8985 79.8259 30.8324 79.8248 30.7645C79.8235 30.7136 79.8222 30.6627 79.8209 30.6105H79.7097C79.6913 30.5554 79.673 30.5004 79.6541 30.4436C79.2881 30.2228 78.7865 30.2212 78.375 30.2768L78.3752 30.2765Z" fill="#1C1C1C"/>
<path d="M66.6358 27.3606C66.7054 27.3602 66.7743 27.3598 66.8455 27.3594C67.2548 27.3622 67.6074 27.4057 67.9911 27.5518C67.9728 27.6252 67.9544 27.6986 67.9355 27.7742V27.6074C67.8276 27.7153 67.8577 27.9116 67.8488 28.0557C67.8418 28.1635 67.8418 28.1635 67.8346 28.2731C67.8313 28.3287 67.8279 28.3843 67.8244 28.4416C67.7688 28.4295 67.7126 28.4175 67.6553 28.4051C66.9324 28.2555 66.2094 28.141 65.5365 28.5075C65.1372 28.7738 64.9025 29.1637 64.7968 29.6308C64.7508 29.9562 64.7543 30.2871 64.8212 30.6096C64.8579 30.628 64.8946 30.6463 64.9324 30.6652C64.9381 30.7065 64.9439 30.7481 64.9498 30.7904C65.0014 30.9973 65.1099 31.0801 65.2662 31.2214C65.2922 31.2491 65.3181 31.2769 65.3446 31.3054C65.7506 31.6863 66.3179 31.6318 66.8351 31.6185C66.9051 31.6159 66.9746 31.6133 67.0464 31.6106C67.0461 31.5626 67.0458 31.5144 67.0455 31.4655C67.0445 31.2875 67.0439 31.109 67.0433 30.931C67.043 30.8537 67.0427 30.777 67.0422 30.6997C67.0415 30.589 67.0412 30.4778 67.041 30.3671C67.0407 30.3004 67.0404 30.2336 67.0401 30.1652C67.0464 29.9984 67.0464 29.9984 67.1018 29.8315H68.0472C68.0289 30.6379 68.0105 31.4443 67.9916 32.2785C67.436 32.5165 66.9405 32.5666 66.3455 32.5705C66.2726 32.5713 66.2726 32.5713 66.1986 32.5721C65.4423 32.5684 64.8862 32.3657 64.3245 31.8491C64.013 31.5149 63.8473 31.1706 63.7822 30.7201C63.7749 30.6128 63.7749 30.6128 63.7088 30.5572C63.7002 30.3976 63.6959 30.2408 63.6949 30.0811C63.6938 30.0374 63.6926 29.9938 63.6915 29.9488C63.6894 29.6351 63.7471 29.3965 63.8755 29.109C63.9031 29.0445 63.9306 28.98 63.959 28.9133C63.9865 28.8526 64.014 28.7926 64.0424 28.7303C64.0699 28.6691 64.0974 28.608 64.1258 28.5451C64.1998 28.4039 64.2582 28.3221 64.3761 28.2192C64.415 28.1768 64.4539 28.1341 64.494 28.0907C65.1168 27.5068 65.7953 27.3455 66.6351 27.3622L66.6358 27.3606Z" fill="#1C1C1C"/>
<path d="M82.9284 27.4179C83.043 27.399 83.043 27.399 83.1825 27.4016C83.2324 27.4022 83.2821 27.4027 83.3333 27.4033C83.4117 27.4054 83.4117 27.4054 83.4912 27.4075C83.5438 27.4083 83.5963 27.409 83.6503 27.4098C83.7804 27.4118 83.91 27.4145 84.0401 27.4179C84.0466 27.4735 84.053 27.5291 84.0597 27.587C84.0913 27.8078 84.1553 28.0102 84.2276 28.221C84.2402 28.2578 84.2528 28.2944 84.2658 28.3328C84.3386 28.5458 84.4143 28.7571 84.4955 28.9667C84.5817 29.1948 84.6612 29.4255 84.7418 29.6563C84.7991 29.8165 84.8625 29.9745 84.9265 30.1318C85.0416 30.4182 85.14 30.7102 85.2357 30.9994C85.3547 31.3626 85.4765 31.7224 85.6177 32.0783C85.6527 32.1984 85.6527 32.1984 85.6527 32.4765H84.7073C84.6798 32.2835 84.6798 32.2835 84.6517 32.0872C84.5966 32.0597 84.5966 32.0597 84.5405 32.0316C84.4854 31.8664 84.4303 31.7012 84.3736 31.5311C83.4115 31.5035 83.4115 31.5035 82.4272 31.4755C82.3721 31.6406 82.317 31.8058 82.2603 31.976L82.0935 32.4765H81.2593C81.202 32.2468 81.2101 32.1773 81.2732 31.9587C81.2873 31.9085 81.3013 31.8581 81.3158 31.8063C81.3668 31.6534 81.4287 31.5088 81.4932 31.3614C81.5777 31.154 81.6394 30.9388 81.704 30.7219C81.7996 30.4066 81.9058 30.1046 82.0376 29.8043C82.0854 29.6669 82.1316 29.529 82.1767 29.3905C82.259 29.138 82.3452 28.8883 82.4397 28.6397C82.4842 28.5207 82.5265 28.4006 82.5682 28.2805C82.5822 28.24 82.5962 28.1993 82.6107 28.1576C82.6394 28.0747 82.668 27.9913 82.6963 27.9084C82.7597 27.726 82.8203 27.5736 82.9277 27.4124L82.9284 27.4179ZM83.3733 28.6414C83.2109 29.0324 83.0702 29.4256 82.9423 29.8316C82.9159 29.9127 82.9159 29.9127 82.8891 29.9951C82.8725 30.0471 82.8559 30.0991 82.8389 30.1524C82.824 30.199 82.8091 30.2453 82.7938 30.2937C82.7525 30.4361 82.7525 30.4361 82.7616 30.6446H84.0407C84.1002 30.4066 84.0962 30.3805 83.9955 30.1752C83.8643 29.9027 83.7564 29.6375 83.6791 29.3466C83.6162 29.1119 83.5517 28.8778 83.4844 28.6459H83.3732L83.3733 28.6414Z" fill="#1C1C1C"/>
<path d="M86.3777 27.418H87.3231V31.5333C88.0962 31.5609 88.0962 31.5609 88.8803 31.589C88.9359 31.7558 88.9359 31.7558 88.9359 32.4788H86.3777C86.3082 32.2708 86.3143 32.0778 86.3149 31.8615C86.3148 31.8156 86.3147 31.7697 86.3146 31.7224C86.3143 31.5706 86.3145 31.4188 86.3147 31.267C86.3147 31.1618 86.3146 31.0562 86.3145 30.9511C86.3144 30.7303 86.3146 30.5095 86.3148 30.2893C86.3151 30.0062 86.315 29.722 86.3146 29.4384C86.3144 29.2209 86.3145 29.0035 86.3146 28.7877C86.3147 28.6832 86.3146 28.5786 86.3145 28.4741C86.3144 28.3284 86.3146 28.1821 86.3149 28.0364C86.3148 27.9931 86.3147 27.9496 86.3145 27.9051C86.3152 27.7283 86.3213 27.5887 86.3779 27.4196L86.3777 27.418Z" fill="#1C1C1C"/>
<path d="M69.0814 27.4174H70.0268V31.5328C70.5591 31.5511 71.089 31.5695 71.6396 31.5884C71.6213 31.882 71.6029 32.1779 71.584 32.4782H69.0814C69.0675 31.5606 69.0675 31.5606 69.0617 31.1657C69.0577 30.8971 69.0537 30.6285 69.0496 30.3593C69.0235 28.6464 69.0235 28.6464 69.0206 27.9958C69.0203 27.9544 69.0199 27.9129 69.0195 27.8701C69.0194 27.7016 69.0277 27.5753 69.0813 27.4141L69.0814 27.4174Z" fill="#1C1C1C"/>
<path d="M68.9707 29.3633H69.0263V32.3108H68.9707V29.3633Z" fill="#1C1C1C"/>
<path d="M68.9707 27.6953H69.0263V28.6407H68.9707V27.6953Z" fill="#1C1C1C"/>
</svg>
