<svg width="100" height="100" viewBox="0 0 100 100" fill="none" xmlns="http://www.w3.org/2000/svg">
<rect width="100" height="100" rx="6" fill="white"/>
<rect x="10" y="10" width="80" height="80" rx="6" fill="white"/>
<path d="M37.7325 86.8068C44.5037 86.8068 49.9992 81.3113 49.9992 74.5401V62.2734H37.7325C30.9613 62.2734 25.4658 67.7689 25.4658 74.5401C25.4658 81.3113 30.9613 86.8068 37.7325 86.8068Z" fill="#0ACF83"/>
<path d="M25.4658 50.001C25.4658 43.2298 30.9613 37.7344 37.7325 37.7344H49.9992V62.2677H37.7325C30.9613 62.2677 25.4658 56.7722 25.4658 50.001Z" fill="#A259FF"/>
<path d="M25.4658 25.4698C25.4658 18.6986 30.9613 13.2031 37.7325 13.2031H49.9992V37.7365H37.7325C30.9613 37.7365 25.4658 32.241 25.4658 25.4698Z" fill="#F24E1E"/>
<path d="M50 13.2031H62.2667C69.0379 13.2031 74.5333 18.6986 74.5333 25.4698C74.5333 32.241 69.0379 37.7365 62.2667 37.7365H50V13.2031Z" fill="#FF7262"/>
<path d="M74.5333 50.001C74.5333 56.7722 69.0379 62.2677 62.2667 62.2677C55.4955 62.2677 50 56.7722 50 50.001C50 43.2298 55.4955 37.7344 62.2667 37.7344C69.0379 37.7344 74.5333 43.2298 74.5333 50.001Z" fill="#1ABCFE"/>
</svg>
