<svg width="22" height="21" viewBox="0 0 22 21" fill="none" xmlns="http://www.w3.org/2000/svg">
<path d="M21.7429 0.0877354C21.847 0.159173 21.9149 0.239985 21.9417 0.365235C21.9495 0.42711 21.9516 0.48636 21.9516 0.54861C21.9516 0.560629 21.9516 0.57261 21.9517 0.584985C21.9517 0.625298 21.9517 0.66561 21.9516 0.705923C21.9516 0.735173 21.9517 0.76461 21.9517 0.79386C21.9518 0.874673 21.9518 0.955485 21.9517 1.03574C21.9517 1.12349 21.9518 1.21142 21.9518 1.30011C21.9519 1.45405 21.952 1.60761 21.9519 1.76136C21.9519 1.99011 21.952 2.21886 21.9521 2.44761C21.9523 2.88074 21.9523 3.31386 21.9523 3.74699C21.9524 4.08074 21.9524 4.41449 21.9524 4.75011C21.9525 4.8463 21.9525 4.94323 21.9525 5.03886C21.9525 5.06267 21.9525 5.08667 21.9525 5.11124C21.9526 5.78436 21.9527 6.45561 21.9527 7.13624C21.9527 7.16192 21.9527 7.18742 21.9527 7.21311C21.9527 7.3288 21.9527 7.44373 21.9527 7.55998C21.9527 7.61155 21.9527 7.66311 21.9527 7.71467C21.9527 7.74055 21.9527 7.76623 21.9527 7.79211C21.9527 8.60773 21.9528 9.42524 21.9531 10.2484C21.9531 10.4546 21.9532 10.659 21.9533 10.8652C21.9533 10.8842 21.9533 10.8842 21.9533 10.9037C21.9535 11.588 21.9535 12.2705 21.9535 12.9474C21.9535 13.0436 21.9535 13.1405 21.9535 13.2362C21.9535 13.2598 21.9535 13.2836 21.9535 13.308C21.9535 13.6886 21.9536 14.0711 21.9538 14.4517C21.9539 14.8342 21.954 15.2186 21.9538 15.6011C21.9538 15.828 21.9538 16.0567 21.954 16.2836C21.9541 16.4357 21.9541 16.5874 21.9539 16.7392C21.9539 16.8259 21.9538 16.9127 21.954 16.9999C21.9541 17.0788 21.9541 17.1575 21.9539 17.2361C21.9539 17.2644 21.9539 17.2927 21.954 17.321C21.9554 17.7354 21.9554 17.7354 21.8149 17.876C21.7138 17.9659 21.6255 17.9707 21.4962 17.9694C21.3634 17.9571 21.243 17.9102 21.1174 17.8655C21.0878 17.8553 21.0583 17.8451 21.0287 17.8348C20.9668 17.8134 20.9052 17.7919 20.8433 17.7703C20.7083 17.723 20.5733 17.6777 20.4364 17.6321C20.3608 17.6068 20.2855 17.5811 20.2095 17.5556C20.1792 17.5453 20.1488 17.535 20.1184 17.5249C20.0728 17.5094 20.0273 17.4939 19.9815 17.4785C19.8754 17.4427 19.7697 17.4067 19.6628 17.3709C19.6479 17.3659 19.633 17.3608 19.6176 17.3556C19.3832 17.2767 19.1507 17.1985 18.9163 17.1213C18.6388 17.0292 18.3632 16.936 18.0876 16.8419C18.0503 16.8293 18.0132 16.8166 17.9758 16.804C17.6777 16.703 17.3796 16.6015 17.0815 16.4984C16.7646 16.3895 16.4458 16.2828 16.1271 16.1778C15.6977 16.0353 15.2683 15.8928 14.8408 15.7465C14.825 15.7411 14.8092 15.7357 14.7928 15.7301C14.628 15.6736 14.4628 15.6172 14.2997 15.5602C14.0241 15.4653 13.7503 15.3727 13.4728 15.2827C13.1297 15.1723 12.7885 15.0558 12.4472 14.9396C12.2847 14.8837 12.1228 14.828 11.9597 14.7723C11.9438 14.7669 11.9278 14.7614 11.9115 14.7558C11.6584 14.6694 11.4053 14.5841 11.1522 14.499C11.1405 14.4951 11.1289 14.4912 11.1169 14.4872C11.0914 14.4788 11.0659 14.4704 11.0402 14.4623C10.959 14.436 10.8795 14.4071 10.8002 14.3758C10.4777 14.2528 10.1871 14.2243 9.84397 14.2285C9.77947 14.2291 9.71497 14.2287 9.65084 14.2284C9.52578 14.2281 9.40147 14.2286 9.27584 14.23C9.27589 14.2538 9.27594 14.2776 9.276 14.3022C9.27722 14.8684 9.27815 15.4347 9.27872 16.0009C9.27879 16.0709 9.27886 16.1408 9.27893 16.2109C9.27895 16.2248 9.27896 16.2387 9.27898 16.2531C9.27922 16.4781 9.27966 16.7012 9.28018 16.9262C9.28071 17.1569 9.28102 17.3875 9.28114 17.6181C9.28121 17.7602 9.28146 17.9031 9.28191 18.0437C9.28225 18.1532 9.28228 18.2631 9.28221 18.3719C9.28222 18.4165 9.28233 18.4609 9.28255 18.5056C9.2854 19.1187 9.19836 19.6849 8.7688 20.1518C8.75652 20.1654 8.75652 20.1654 8.74405 20.1794C8.40468 20.5525 7.92093 20.7831 7.41468 20.8112C6.85968 20.8334 6.34593 20.6637 5.93343 20.2844C5.54718 19.9187 5.31468 19.4406 5.29593 18.9044C5.29339 18.7812 5.29401 18.6587 5.2946 18.535C5.29462 18.4879 5.29461 18.4407 5.29458 18.3936C5.29456 18.2927 5.29472 18.1911 5.29504 18.0917C5.2955 17.9459 5.29564 17.7992 5.29571 17.6549C5.29584 17.4186 5.29621 17.1824 5.29674 16.9442C5.29726 16.7136 5.29766 16.4849 5.2979 16.2542C5.29791 16.24 5.29793 16.2259 5.29794 16.2113C5.29801 16.1401 5.29809 16.0688 5.29815 15.9976C5.29874 15.4088 5.29973 14.8182 5.30099 14.2294C5.27774 14.2296 5.25449 14.2297 5.23049 14.2298C5.19974 14.2299 5.16899 14.23 5.13824 14.2301C5.11536 14.2303 5.11536 14.2303 5.09192 14.2304C4.98936 14.2307 4.89317 14.2261 4.79192 14.2013L4.75049 14.1916C4.38486 14.0977 4.05861 13.8541 3.86549 13.5316C3.72505 13.2728 3.66486 13.0347 3.66674 12.7403L3.66699 12.6826C3.66721 12.6359 3.66752 12.589 3.66791 12.5423C3.64709 12.543 3.62647 12.5436 3.60491 12.5443C2.82678 12.5607 2.07303 12.3849 1.42991 11.9237L1.4001 11.9021C0.657596 11.364 0.237595 10.584 0.0707204 9.68962C0.0482204 9.53606 0.0399694 9.38212 0.0392194 9.22837C0.0391125 9.21051 0.0390073 9.19256 0.0388967 9.17419C0.0387208 9.1365 0.0385948 9.09881 0.0385236 9.06131C0.0383432 9.00525 0.0377611 8.94919 0.0371686 8.89294C0.0325186 8.04544 0.301544 7.22231 0.886544 6.58669C0.922169 6.54844 0.955732 6.50925 0.989294 6.46931C1.52179 5.86181 2.36367 5.52994 3.16429 5.47744C3.32667 5.46887 3.48867 5.46334 3.65179 5.45869C3.65207 5.44757 3.65234 5.43637 3.65262 5.42494C3.66623 4.92806 3.76175 4.51369 4.12887 4.15369C4.36887 3.93431 4.6595 3.81056 4.982 3.78619C5.0015 3.78469 5.02081 3.78319 5.04087 3.78165C5.26775 3.76562 5.4965 3.76588 5.72337 3.76674C5.77137 3.76678 5.81937 3.76681 5.86737 3.76682C5.96975 3.76687 6.07175 3.76704 6.17487 3.76731C6.32319 3.7677 6.47112 3.76786 6.61925 3.76797C6.86112 3.76814 7.10112 3.76846 7.343 3.7689C7.35736 3.76893 7.37169 3.76896 7.3865 3.76898C7.40088 3.76901 7.41519 3.76903 7.43 3.76906C7.63437 3.76943 7.83875 3.76977 8.04312 3.77006C8.05752 3.77008 8.072 3.7701 8.08681 3.77012C8.32681 3.77046 8.56868 3.77072 8.80868 3.77094C8.95662 3.77108 9.10493 3.7713 9.25306 3.77163C9.36631 3.77187 9.47993 3.77202 9.59243 3.77214C9.63875 3.7722 9.68487 3.7723 9.73118 3.77243C10.1568 3.78713 10.1568 3.78713 10.5693 3.70943C10.5819 3.70514 10.5946 3.70083 10.6076 3.6964C10.6484 3.68242 10.6891 3.6679 10.7298 3.65347C10.7592 3.64332 10.7885 3.63322 10.8179 3.62309C10.8792 3.6019 10.9406 3.58072 11.0017 3.55915C11.0919 3.52747 11.1822 3.49653 11.2736 3.46559C11.2882 3.4606 11.3028 3.4556 11.3178 3.45046C11.3474 3.44037 11.3769 3.43021 11.4065 3.42027C11.4515 3.40488 11.4965 3.38952 11.5415 3.37396C11.7346 3.30758 11.9277 3.24215 12.1227 3.17708C12.136 3.17268 12.1492 3.16827 12.1629 3.16373C12.2354 3.13955 12.308 3.11555 12.3804 3.09136C12.5904 3.02161 12.8004 2.95167 13.0104 2.88136C13.0336 2.87365 13.0567 2.86593 13.0807 2.85792C13.3826 2.75742 13.6826 2.65542 13.9844 2.5523C14.2638 2.45611 14.5451 2.36292 14.8263 2.26917C15.1301 2.16792 15.4357 2.06667 15.7394 1.96167C15.755 1.95633 15.7706 1.951 15.7867 1.94551C15.9337 1.89526 16.0811 1.84482 16.2273 1.79401C16.2952 1.77057 16.3631 1.74713 16.4317 1.7237C16.4449 1.71912 16.4581 1.71457 16.4718 1.70986C16.6893 1.63505 16.9068 1.56342 17.1262 1.49236C17.4599 1.38492 17.7899 1.27298 18.1218 1.15861C18.3318 1.08661 18.5418 1.01517 18.7518 0.942985C18.7717 0.936197 18.7917 0.929391 18.8124 0.92236C19.0767 0.83236 19.3411 0.743297 19.6074 0.65611C19.8211 0.585235 20.033 0.51286 20.2467 0.440485C20.4736 0.362672 20.7005 0.285235 20.9274 0.20986C20.9562 0.200185 20.9851 0.190547 21.014 0.180797C21.5502 0.000609823 21.5502 0.000609813 21.7452 0.0756098L21.7429 0.0877354ZM20.9085 1.07774C20.8923 1.08332 20.8761 1.08891 20.8594 1.09465C20.8238 1.10693 20.7882 1.11921 20.7525 1.13159C20.6535 1.1659 20.5538 1.20002 20.4544 1.23396C20.433 1.24129 20.4117 1.24862 20.3897 1.25609C20.1366 1.34309 19.8816 1.42765 19.6266 1.51296C19.2685 1.63184 18.9104 1.75109 18.5541 1.87484C18.2897 1.9654 18.0254 2.0539 17.761 2.14109C17.4929 2.23034 17.2247 2.3209 16.9566 2.41296C16.6979 2.50146 16.4391 2.58827 16.1803 2.67359C15.9385 2.75402 15.6966 2.83577 15.4547 2.91921C15.1847 3.01165 14.9147 3.1024 14.6447 3.19296C14.3785 3.28127 14.1141 3.37052 13.8497 3.46109C13.5272 3.57152 13.2066 3.67859 12.8822 3.78546C12.571 3.88877 12.2616 3.99359 11.9522 4.10046C11.7861 4.15746 11.6204 4.21352 11.4535 4.26809C11.4167 4.28018 11.38 4.29227 11.3432 4.30427C11.2729 4.32734 11.2026 4.35021 11.1314 4.37309C11.0997 4.38349 11.068 4.3939 11.0363 4.4044C11.0218 4.40901 11.0072 4.41362 10.9924 4.41839C10.8975 4.44782 10.8975 4.44782 10.8293 4.51439C10.8238 4.56482 10.8218 4.61095 10.8223 4.66139C10.8222 4.67659 10.8222 4.69176 10.8221 4.70751C10.8219 4.75889 10.8222 4.81026 10.8224 4.86182C10.8224 4.89895 10.8223 4.93588 10.8222 4.97301C10.822 5.0752 10.8222 5.17738 10.8225 5.27863C10.8227 5.3887 10.8226 5.49801 10.8225 5.60863C10.8224 5.82426 10.8226 6.03988 10.8229 6.25551C10.8231 6.43082 10.8232 6.60613 10.8232 6.78051C10.8232 6.79294 10.8232 6.80545 10.8232 6.8182C10.8232 6.86863 10.8232 6.91926 10.8232 6.9697C10.8233 7.43095 10.8236 7.89032 10.824 8.35157C10.8245 8.78657 10.8247 9.22157 10.8248 9.65657C10.8248 9.66996 10.8248 9.68338 10.8248 9.69707C10.8248 9.75107 10.8248 9.80507 10.8248 9.85907C10.8248 9.88607 10.8248 9.91288 10.8248 9.93989C10.8248 9.9667 10.8248 9.99351 10.8248 10.0205C10.8249 10.448 10.8251 10.8755 10.8254 11.303C10.8254 11.4283 10.8255 11.5543 10.8255 11.678C10.8256 11.9405 10.8258 12.2049 10.8261 12.4674C10.8262 12.5763 10.8263 12.6849 10.8263 12.7936C10.8263 12.8932 10.8264 12.9924 10.8266 13.0918C10.8266 13.1279 10.8266 13.1641 10.8266 13.2001C10.8266 13.2491 10.8267 13.2978 10.8268 13.3468C10.8268 13.361 10.8268 13.3753 10.8267 13.3899C10.827 13.4484 10.8294 13.4939 10.8481 13.55C10.8903 13.5685 10.93 13.5832 10.9739 13.5969C10.9936 13.6033 10.9936 13.6033 11.0137 13.6099C11.0573 13.6242 11.101 13.638 11.1447 13.6521C11.1755 13.6621 11.206 13.6722 11.2368 13.6821C11.3005 13.7029 11.3645 13.7237 11.428 13.7444C11.5585 13.7867 11.6887 13.8302 11.818 13.8737C11.8883 13.8974 11.9588 13.9208 12.0299 13.9442C12.0439 13.9489 12.0578 13.9535 12.0723 13.9583C12.1546 13.9857 12.2369 14.0131 12.3198 14.0405C12.6742 14.1578 13.0267 14.2767 13.3792 14.3967C13.6923 14.5032 14.0035 14.6086 14.3185 14.7117C14.7517 14.8553 15.1848 15.0005 15.616 15.1467C15.6588 15.1612 15.7015 15.1756 15.7443 15.19C16.0799 15.3037 16.4174 15.4169 16.753 15.5332C16.9373 15.5965 17.1224 15.6588 17.3062 15.7203C17.3232 15.726 17.3403 15.7317 17.3579 15.7375C17.3969 15.7505 17.4361 15.7636 17.4751 15.7765C17.5043 15.7862 17.5338 15.796 17.563 15.8058C17.578 15.8107 17.593 15.8157 17.6084 15.8208C18.0378 15.9633 18.4672 16.1058 18.8947 16.2521C18.9105 16.2575 18.9263 16.2629 18.9427 16.2685C19.0936 16.3201 19.2445 16.3718 19.3945 16.424C19.4628 16.4476 19.531 16.471 19.5989 16.4947C19.6121 16.4992 19.6253 16.5038 19.639 16.5085C19.8659 16.5869 20.0965 16.6615 20.3253 16.7354C20.5353 16.8027 20.7434 16.8734 20.9497 16.951C20.967 16.9574 20.9843 16.9639 21.0023 16.9705C21.0247 16.9789 21.0247 16.9789 21.0475 16.9876C21.0882 17.0023 21.0882 17.0023 21.1422 16.9995V1.02449C21.0562 1.02449 20.9887 1.04811 20.9078 1.07624L20.9085 1.07774ZM5.10229 4.60274C5.08886 4.60337 5.07548 4.60401 5.0616 4.60467C4.86473 4.61638 4.7316 4.69523 4.60035 4.83904C4.50079 4.96654 4.46441 5.09592 4.46423 5.25717C4.46416 5.27038 4.4641 5.2836 4.46403 5.29729C4.46385 5.34154 4.46394 5.38579 4.46404 5.42985C4.46397 5.46192 4.46388 5.49398 4.46378 5.52604C4.46355 5.61398 4.46356 5.7021 4.4636 5.79042C4.46361 5.88529 4.4634 5.97979 4.46322 6.07542C4.46291 6.26142 4.46281 6.44667 4.46279 6.63417C4.46277 6.78548 4.46269 6.93604 4.46257 7.08792C4.46224 7.51729 4.46207 7.94479 4.4621 8.37417C4.4621 8.39723 4.4621 8.42048 4.4621 8.44429C4.46211 8.46735 4.46211 8.4906 4.46211 8.51442C4.46212 8.88942 4.46177 9.26442 4.46124 9.63942C4.4607 10.0238 4.46044 10.41 4.46047 10.7944C4.46048 11.01 4.46038 11.2275 4.45998 11.4432C4.45964 11.6273 4.45955 11.8107 4.45981 11.9963C4.45993 12.0902 4.45993 12.1838 4.45961 12.2775C4.45931 12.3636 4.45937 12.4497 4.45969 12.5363C4.45975 12.5674 4.45968 12.5984 4.45947 12.6295C4.45797 12.8676 4.48479 13.0795 4.65635 13.2595C4.78329 13.3714 4.93197 13.4307 5.1026 13.4305C5.12904 13.4305 5.12904 13.4305 5.15604 13.4306C5.17516 13.4305 5.19447 13.4305 5.21416 13.4304C5.2346 13.4304 5.25522 13.4305 5.27641 13.4305C5.34522 13.4305 5.41422 13.4304 5.48266 13.4303C5.53197 13.4303 5.58129 13.4303 5.6306 13.4303C5.73691 13.4303 5.84247 13.4303 5.94935 13.4302C6.1031 13.43 6.25685 13.43 6.4106 13.4299C6.65997 13.4299 6.90935 13.4298 7.15872 13.4296C7.4006 13.4294 7.64247 13.4293 7.88435 13.4292C7.90666 13.4292 7.90666 13.4292 7.92954 13.4292C8.00435 13.4292 8.07935 13.4291 8.15454 13.4291C8.77516 13.4289 9.39766 13.4286 10.0183 13.4282C10.0356 13.3402 10.0397 13.2553 10.0393 13.1657C10.0393 13.1434 10.0393 13.1434 10.0394 13.1209C10.0394 13.0712 10.0393 13.0215 10.0392 12.9716C10.0392 12.9356 10.0393 12.8996 10.0393 12.8636C10.0393 12.7646 10.0392 12.6649 10.0392 12.5674C10.0391 12.4607 10.0391 12.3536 10.0391 12.2467C10.0391 12.0619 10.0391 11.8774 10.039 11.6917C10.0388 11.4236 10.0388 11.1574 10.0387 10.8892C10.0387 10.4561 10.0386 10.023 10.0384 9.58798C10.0382 9.16611 10.0381 8.74611 10.038 8.32423C10.038 8.31126 10.038 8.29836 10.038 8.28486C10.038 8.15455 10.038 8.02423 10.0379 7.89298C10.0377 6.79986 10.0374 5.69923 10.037 4.61173C9.99404 4.59017 9.97004 4.59055 9.92223 4.59055C9.90597 4.5905 9.88979 4.59045 9.87292 4.5904C9.85494 4.59044 9.83692 4.59048 9.81854 4.59053C9.7996 4.5905 9.78048 4.59047 9.76098 4.59044C9.69685 4.59036 9.63273 4.59042 9.56785 4.59048C9.5221 4.59046 9.47617 4.59042 9.43042 4.59038C9.31848 4.5903 9.20729 4.59032 9.09479 4.59037C9.00367 4.59041 8.91273 4.59042 8.82104 4.5904C8.80809 4.59039 8.79517 4.59039 8.78185 4.59039C8.7556 4.59038 8.72917 4.59038 8.70292 4.59037C8.45542 4.59032 8.20792 4.59038 7.96042 4.59048C7.74854 4.59056 7.53667 4.59055 7.32479 4.59046C7.07917 4.59036 6.83354 4.59032 6.58792 4.59038C6.56167 4.59039 6.53523 4.59039 6.50898 4.5904C6.48948 4.5904 6.48948 4.5904 6.46979 4.59041C6.37904 4.59042 6.28848 4.5904 6.19792 4.59035C6.07529 4.59029 5.95229 4.59034 5.83042 4.59044C5.7856 4.59047 5.74079 4.59046 5.69598 4.59042C5.49723 4.59025 5.29848 4.59051 5.09973 4.6006L5.10229 4.60274ZM2.06479 6.64648C1.90335 6.74886 1.75729 6.86773 1.61479 6.99523C1.60256 7.00611 1.59041 7.01698 1.57766 7.02823C1.37891 7.21573 1.23266 7.44636 1.10891 7.68823C1.09333 7.71767 1.09333 7.71767 1.07741 7.74748C1.01648 7.86992 0.973915 7.99498 0.935477 8.12624C0.92854 8.14948 0.928538 8.14948 0.92147 8.17311C0.84797 8.43561 0.839908 8.69811 0.840471 8.96811C0.84053 9.02286 0.840089 9.07742 0.839615 9.13217C0.838596 9.42655 0.860614 9.72092 0.958864 10.0003C0.967152 10.0243 0.96715 10.0243 0.975625 10.049C1.08363 10.349 1.23813 10.6153 1.44625 10.8553C1.45971 10.8716 1.47325 10.8879 1.48713 10.9046C1.53044 10.9567 1.53044 10.9567 1.5775 11.0053H1.615V11.0428C2.11375 11.5078 2.75688 11.744 3.43563 11.7384C3.46525 11.7383 3.46525 11.7383 3.49563 11.7382C3.544 11.7379 3.59238 11.7376 3.64075 11.7373C3.64398 11.2029 3.64711 10.6704 3.65013 10.136C3.65029 10.1066 3.65029 10.1066 3.65046 10.0764C3.65613 9.077 3.66145 8.07013 3.66066 7.07638C3.66064 7.04506 3.66064 7.04506 3.66061 7.01338C3.66042 6.77525 3.66007 6.53713 3.65949 6.299C3.17387 6.16925 2.48387 6.39031 2.06574 6.644L2.06479 6.64648ZM6.09604 14.2402C6.09518 14.8421 6.09452 15.4421 6.09413 16.044C6.09408 16.115 6.09403 16.1859 6.09398 16.2577C6.09397 16.2719 6.09396 16.286 6.09395 16.3005C6.09379 16.5292 6.09349 16.758 6.09315 16.9867C6.0928 17.2211 6.09259 17.4555 6.09251 17.6917C6.09246 17.8365 6.0923 17.9805 6.09199 18.1267C6.09177 18.2379 6.09175 18.3499 6.0918 18.4605C6.09179 18.506 6.09171 18.5516 6.09157 18.597C6.09138 18.6592 6.09143 18.7215 6.09153 18.7837C6.09142 18.8016 6.09131 18.8195 6.0912 18.8379C6.09246 19.1229 6.18382 19.361 6.35932 19.586C6.36817 19.598 6.37702 19.6099 6.38614 19.6222C6.55339 19.8341 6.84551 19.9804 7.10989 20.0179C7.46239 20.0454 7.76426 19.9689 8.04739 19.7479C8.1297 19.6766 8.19495 19.6037 8.25363 19.5116C8.26324 19.4978 8.27276 19.484 8.2827 19.4698C8.43232 19.2429 8.46288 18.9823 8.46232 18.7179C8.46235 18.6988 8.46238 18.6797 8.46241 18.66C8.46249 18.5962 8.46243 18.5325 8.46237 18.4687C8.46239 18.423 8.46243 18.377 8.46247 18.3313C8.46254 18.2199 8.46253 18.1082 8.46248 17.9975C8.46244 17.9072 8.46243 17.8168 8.46245 17.7257C8.46245 17.7064 8.46245 17.7064 8.46246 17.6867C8.46246 17.6604 8.46247 17.6344 8.46248 17.6081C8.46253 17.3625 8.46247 17.1187 8.46237 16.8731C8.46228 16.6631 8.4623 16.4531 8.46239 16.2412C8.46249 15.9975 8.46253 15.7519 8.46247 15.5081C8.46246 15.482 8.46246 15.456 8.46245 15.4301C8.46245 15.4173 8.46244 15.4044 8.46244 15.3913C8.46243 15.3009 8.46245 15.2105 8.4625 15.1194C8.46256 14.9979 8.46251 14.8757 8.46241 14.7557C8.46238 14.711 8.46239 14.6662 8.46243 14.6216C8.46248 14.5609 8.46242 14.5001 8.46232 14.4394C8.46236 14.4214 8.46241 14.4035 8.46245 14.385C8.47012 14.3077 8.47012 14.3077 8.44126 14.2429C8.41089 14.2411 8.38051 14.2406 8.34995 14.2406C8.32032 14.2406 8.32032 14.2406 8.29014 14.2405C8.2682 14.2406 8.24645 14.2407 8.22395 14.2407C8.20107 14.2407 8.1782 14.2407 8.15476 14.2407C8.09195 14.2407 8.02895 14.2408 7.96539 14.241C7.89976 14.2411 7.83414 14.2411 7.76851 14.2411C7.6442 14.2412 7.51914 14.2413 7.39539 14.2415C7.25382 14.2417 7.11226 14.2418 6.96976 14.2419C6.67914 14.2421 6.38664 14.2424 6.09601 14.2429L6.09604 14.2402Z" fill="#1C1C1C"/>
</svg>
