<svg width="30" height="30" viewBox="0 0 30 30" fill="none" xmlns="http://www.w3.org/2000/svg">
<path d="M27.9459 9.09916C29.4825 12.3097 29.7713 15.9767 28.7562 19.3882C27.7411 22.7997 25.4946 25.7123 22.4528 27.5605C19.411 29.4088 15.7909 30.0608 12.2954 29.3901C8.79988 28.7194 5.67829 26.7737 3.53665 23.9308C1.39501 21.0879 0.386137 17.5506 0.705887 14.0057C1.02564 10.4608 2.6512 7.16118 5.26698 4.74741C7.88277 2.33364 11.3022 0.977954 14.8613 0.943543C18.4204 0.909131 21.8654 2.19845 24.5273 4.56119L27.9023 1.1862C28.0611 1.03018 28.2751 0.943215 28.4977 0.94425C28.7203 0.945286 28.9334 1.03423 29.0907 1.19172C29.248 1.34921 29.3367 1.56247 29.3375 1.78506C29.3383 2.00765 29.251 2.22153 29.0948 2.3801L15.5948 15.8801C15.5167 15.9594 15.4236 16.0225 15.3209 16.0657C15.2183 16.1089 15.1081 16.1313 14.9967 16.1317C14.8853 16.1321 14.7749 16.1105 14.672 16.068C14.569 16.0255 14.4755 15.9631 14.3968 15.8843C14.3181 15.8055 14.2557 15.7119 14.2134 15.6088C14.171 15.5058 14.1495 15.3954 14.15 15.2841C14.1505 15.1727 14.1731 15.0625 14.2164 14.9599C14.2597 14.8573 14.3229 14.7643 14.4023 14.6862L18.5353 10.5518C17.4585 9.74662 16.1391 9.33294 14.7953 9.37916C13.4516 9.42538 12.1638 9.92873 11.1448 10.806C10.1258 11.6833 9.43671 12.882 9.19131 14.204C8.94592 15.526 9.15896 16.8922 9.7952 18.0767C10.4315 19.2612 11.4528 20.1932 12.6905 20.7186C13.9282 21.244 15.3081 21.3314 16.6022 20.9662C17.8962 20.6011 19.027 19.8054 19.8075 18.7106C20.5881 17.6157 20.9717 16.2873 20.895 14.9449C20.8823 14.7212 20.9591 14.5015 21.1083 14.3343C21.2576 14.1671 21.4672 14.0661 21.6909 14.0534C21.9147 14.0407 22.1344 14.1174 22.3016 14.2667C22.4688 14.416 22.5698 14.6255 22.5825 14.8493C22.6837 16.5858 22.1858 18.3044 21.1718 19.7177C20.1579 21.1311 18.6895 22.1535 17.0122 22.6141C15.3348 23.0746 13.5502 22.9453 11.9567 22.2479C10.3633 21.5504 9.05753 20.327 8.25789 18.7823C7.45824 17.2376 7.21314 15.4651 7.56358 13.7614C7.91402 12.0576 8.83876 10.5258 10.1832 9.42211C11.5275 8.31839 13.2101 7.70967 14.9495 7.69772C16.6889 7.68578 18.3796 8.27135 19.7391 9.35651L23.3306 5.76354C20.9708 3.70585 17.9315 2.5969 14.8011 2.65138C11.6706 2.70586 8.67173 3.91989 6.38497 6.05844C4.09821 8.197 2.68625 11.1079 2.42244 14.2277C2.15863 17.3475 3.06175 20.4542 4.95693 22.9464C6.85212 25.4386 9.60458 27.1389 12.6814 27.7183C15.7583 28.2977 18.9407 27.7148 21.6125 26.0826C24.2843 24.4504 26.2554 21.8849 27.1444 18.8828C28.0333 15.8807 27.7767 12.6556 26.4244 9.83182C26.3763 9.73191 26.3483 9.62351 26.3421 9.5128C26.3359 9.40209 26.3515 9.29123 26.3882 9.18657C26.4248 9.08191 26.4817 8.98549 26.5556 8.90281C26.6295 8.82013 26.7189 8.75282 26.8188 8.70471C26.9187 8.6566 27.0271 8.62865 27.1379 8.62243C27.2486 8.61622 27.3594 8.63188 27.4641 8.66851C27.5687 8.70513 27.6652 8.76202 27.7478 8.83591C27.8305 8.9098 27.8978 8.99926 27.9459 9.09916Z" fill="#1C1C1C"/>
</svg>
