<svg width="40" height="40" viewBox="0 0 40 40" fill="none" xmlns="http://www.w3.org/2000/svg">
<rect width="40" height="40" rx="1.5" fill="#1C1C1C"/>
<path d="M17.5669 8.24632C17.5797 8.24621 17.5797 8.24621 17.5927 8.24609C17.602 8.24617 17.6114 8.24625 17.621 8.24634C17.6308 8.2463 17.6407 8.24626 17.6508 8.24622C17.6833 8.24614 17.716 8.24628 17.7485 8.24643C17.7711 8.24643 17.7937 8.24643 17.8163 8.24641C17.8636 8.24641 17.911 8.24652 17.9581 8.24671C18.0189 8.24695 18.0801 8.24695 18.1406 8.24688C18.1872 8.24685 18.2338 8.24692 18.2803 8.24702C18.3027 8.24706 18.3251 8.24707 18.3476 8.24706C18.3788 8.24705 18.4101 8.24718 18.4414 8.24735C18.4554 8.24731 18.4554 8.24731 18.4697 8.24728C18.5337 8.24783 18.5337 8.24783 18.5569 8.27105C18.5628 8.29336 18.5628 8.29336 18.5674 8.31995C18.5754 8.36375 18.5863 8.40556 18.5987 8.44821C18.6185 8.52767 18.6349 8.60775 18.6508 8.68804C18.6755 8.82464 18.6755 8.82464 18.7132 8.95707C18.7289 9.00681 18.7354 9.05759 18.7431 9.10931C18.7503 9.1553 18.7606 9.1969 18.7758 9.2407C18.7812 9.2652 18.7861 9.28971 18.7908 9.31432C18.8139 9.43945 18.8139 9.43945 18.8488 9.56249C18.8615 9.60243 18.8683 9.64205 18.8749 9.68345C18.8773 9.69867 18.8798 9.71379 18.8824 9.72902C18.8834 9.73566 18.8845 9.74226 18.8856 9.74914C18.8897 9.76864 18.8949 9.78783 18.9004 9.80691C18.9116 9.84633 18.9204 9.88585 18.9287 9.92578C18.9318 9.9409 18.935 9.95613 18.9382 9.97125C18.943 9.99481 18.9479 10.0184 18.9528 10.0419C18.9575 10.0649 18.9623 10.0879 18.9672 10.1109C18.9686 10.1178 18.97 10.1248 18.9715 10.132C18.9801 10.1732 18.9916 10.2124 19.0053 10.252C19.0093 10.2721 19.013 10.2923 19.0163 10.3125C19.0196 10.348 19.0196 10.348 19.0365 10.3771C19.0401 10.3934 19.0432 10.4097 19.0459 10.4261C19.0477 10.4361 19.0495 10.4461 19.0513 10.4565C19.0549 10.4777 19.0585 10.4989 19.0621 10.52C19.0711 10.5716 19.0815 10.6197 19.0991 10.6692C19.1044 10.6919 19.1094 10.7147 19.1141 10.7376C19.1271 10.7997 19.1411 10.8616 19.156 10.9232C19.1617 10.9507 19.1617 10.9507 19.1617 10.982C19.172 10.9785 19.1823 10.9751 19.193 10.9716C19.2027 10.9432 19.2027 10.9432 19.2086 10.909C19.2189 10.8602 19.2306 10.8139 19.247 10.7672C19.2746 10.6872 19.2984 10.6076 19.3136 10.5242C19.3191 10.4983 19.3291 10.4752 19.339 10.4506C19.3442 10.426 19.3487 10.4013 19.3529 10.3765C19.3588 10.3508 19.366 10.3272 19.3745 10.3025C19.3918 10.2517 19.4048 10.2003 19.4172 10.1482C19.4316 10.0878 19.4476 10.0293 19.4677 9.97093C19.4754 9.94789 19.481 9.92485 19.4856 9.90107C19.4908 9.87615 19.4961 9.85498 19.5058 9.83131C19.5159 9.80545 19.5209 9.7823 19.526 9.75509C19.5342 9.7116 19.5463 9.67135 19.5609 9.62996C19.5709 9.59909 19.5774 9.56802 19.5838 9.53621C19.5893 9.51286 19.5893 9.51286 19.5984 9.48627C19.6187 9.42412 19.6336 9.36009 19.6497 9.29753C19.6524 9.28715 19.655 9.27678 19.6578 9.26614C19.6613 9.25207 19.6613 9.25207 19.665 9.23778C19.6728 9.21056 19.6829 9.18491 19.6936 9.15874C19.6975 9.14143 19.701 9.12402 19.7041 9.1066C19.7111 9.06938 19.7213 9.03757 19.7354 9.00233C19.7406 8.97772 19.7451 8.95301 19.7493 8.92819C19.7551 8.90285 19.7622 8.8797 19.7706 8.8552C19.7898 8.79899 19.8043 8.74154 19.8188 8.68419C19.835 8.61974 19.8521 8.55593 19.8738 8.49336C19.8902 8.443 19.9021 8.39117 19.9147 8.34008C19.9169 8.33163 19.919 8.32319 19.9212 8.31443C19.9231 8.30684 19.925 8.2992 19.9269 8.29138C19.9335 8.2723 19.9335 8.2723 19.9544 8.25145C19.9864 8.24949 20.0176 8.24882 20.0496 8.24908C20.0595 8.24908 20.0693 8.24907 20.0795 8.24907C20.1123 8.24908 20.145 8.24925 20.1777 8.24941C20.2003 8.24945 20.2229 8.24948 20.2457 8.2495C20.3053 8.24958 20.3645 8.24978 20.425 8.25001C20.4859 8.25023 20.547 8.25032 20.6075 8.25043C20.7274 8.25065 20.8463 8.25101 20.9662 8.25145C20.984 8.29337 20.9914 8.33143 20.9975 8.37658C21.0009 8.38002 21.0044 8.38346 21.0079 8.387C21.0109 8.40682 21.0133 8.42673 21.0154 8.44654C21.0174 8.46469 21.0174 8.46469 21.0194 8.48325C21.0208 8.49597 21.0222 8.5088 21.0236 8.52194C21.0262 8.54707 21.0289 8.57209 21.0317 8.59712C21.0329 8.60827 21.0341 8.61943 21.0353 8.63101C21.0377 8.65791 21.0377 8.65791 21.0496 8.67897C21.0525 8.6991 21.0549 8.71933 21.0571 8.73956C21.0591 8.7577 21.0591 8.7577 21.0611 8.77616C21.0639 8.8017 21.0666 8.82736 21.0694 8.8529C21.0713 8.87105 21.0713 8.87105 21.0734 8.8895C21.0746 8.90066 21.0758 8.91171 21.077 8.92318C21.0794 8.94988 21.0794 8.94988 21.0913 8.97094C21.0942 8.99117 21.0966 9.01151 21.0988 9.03194C21.1008 9.05009 21.1008 9.05009 21.1028 9.06865C21.1056 9.0944 21.1083 9.12005 21.111 9.14581C21.113 9.16395 21.113 9.16395 21.1151 9.18252C21.1163 9.19367 21.1175 9.20483 21.1187 9.2164C21.1199 9.24153 21.1199 9.24153 21.133 9.25259C21.1367 9.2772 21.1399 9.3016 21.1428 9.32621C21.1436 9.33357 21.1445 9.34091 21.1454 9.34852C21.1493 9.38012 21.153 9.41182 21.1567 9.44341C21.1594 9.46646 21.1622 9.4895 21.165 9.51254C21.1658 9.51976 21.1666 9.52693 21.1675 9.53444C21.1691 9.56854 21.1691 9.56854 21.1852 9.59669C21.1882 9.61661 21.1906 9.63663 21.1927 9.65665C21.1947 9.6749 21.1947 9.6749 21.1967 9.69346C21.1995 9.71932 21.2022 9.74518 21.205 9.77104C21.2069 9.78929 21.2069 9.78929 21.209 9.80785C21.2102 9.81911 21.2114 9.83037 21.2126 9.84195C21.2138 9.86718 21.2138 9.86718 21.2269 9.87824C21.2299 9.89888 21.2323 9.91974 21.2344 9.94049C21.2357 9.95311 21.237 9.96572 21.2384 9.97876C21.2412 10.0057 21.2439 10.0325 21.2466 10.0594C21.248 10.072 21.2493 10.0846 21.2507 10.0976C21.2525 10.1151 21.2525 10.1151 21.2543 10.133C21.2553 10.159 21.2553 10.159 21.2686 10.1703C21.2716 10.1902 21.2739 10.2102 21.2761 10.2303C21.2781 10.2485 21.2781 10.2485 21.2801 10.2671C21.2828 10.2929 21.2856 10.3188 21.2883 10.3447C21.2903 10.3629 21.2903 10.3629 21.2924 10.3815C21.2936 10.3927 21.2947 10.404 21.296 10.4156C21.2971 10.4408 21.2971 10.4408 21.3103 10.4519C21.314 10.4763 21.3172 10.5005 21.32 10.5252C21.3209 10.5325 21.3218 10.5399 21.3227 10.5474C21.3256 10.5709 21.3284 10.5945 21.3311 10.6181C21.3339 10.6416 21.3367 10.6651 21.3395 10.6887C21.3413 10.7034 21.343 10.718 21.3447 10.7327C21.3491 10.7708 21.3491 10.7708 21.3624 10.8065C21.3653 10.8267 21.3678 10.8471 21.3699 10.8675C21.3713 10.8796 21.3726 10.8917 21.374 10.9042C21.3767 10.9299 21.3795 10.9556 21.3822 10.9814C21.3842 10.9995 21.3842 10.9995 21.3862 11.0181C21.3874 11.0292 21.3886 11.0404 21.3898 11.052C21.391 11.0771 21.391 11.0771 21.4041 11.0881C21.4071 11.1072 21.4095 11.1263 21.4116 11.1455C21.413 11.1572 21.4143 11.1687 21.4157 11.1807C21.417 11.1929 21.4184 11.2052 21.4198 11.2179C21.4225 11.2419 21.4252 11.266 21.4279 11.2901C21.4291 11.3009 21.4303 11.3116 21.4315 11.3226C21.434 11.3487 21.434 11.3487 21.4458 11.3697C21.4487 11.3899 21.4511 11.4102 21.4533 11.4307C21.4553 11.4488 21.4553 11.4488 21.4574 11.4674C21.4601 11.4931 21.4628 11.5188 21.4656 11.5445C21.4676 11.5627 21.4676 11.5627 21.4696 11.5812C21.4708 11.5924 21.472 11.6036 21.4732 11.6151C21.4744 11.6403 21.4744 11.6403 21.4875 11.6513C21.4908 11.6719 21.4934 11.6925 21.4958 11.7133C21.4982 11.7332 21.4982 11.7332 21.5006 11.7535C21.5015 11.7607 21.5023 11.7678 21.5031 11.7752C21.5238 11.9514 21.5498 12.1266 21.5772 12.3018C21.5813 12.3293 21.5813 12.3293 21.5813 12.3397C21.4635 12.3405 21.3457 12.341 21.2278 12.3414C21.1731 12.3415 21.1183 12.3417 21.0631 12.3421C21.0103 12.3424 20.9577 12.3426 20.9046 12.3427C20.8843 12.3428 20.8642 12.3429 20.844 12.343C20.8158 12.3433 20.7876 12.3433 20.7594 12.3433C20.7468 12.3435 20.7468 12.3435 20.734 12.3436C20.7107 12.3435 20.7107 12.3435 20.6738 12.3397C20.6499 12.304 20.6483 12.284 20.6441 12.2415C20.6421 12.2219 20.6421 12.2219 20.64 12.2019C20.6387 12.1882 20.6374 12.1746 20.636 12.1605C20.6346 12.1465 20.6332 12.1327 20.6318 12.1187C20.6283 12.0846 20.625 12.0505 20.6217 12.0164H20.6113C20.6009 11.9132 20.5906 11.8099 20.58 11.7036H20.5695C20.5558 11.5659 20.542 11.4283 20.5278 11.2865H20.5174C20.5071 11.1759 20.4968 11.0664 20.4861 10.9528H20.4757C20.4619 10.812 20.4482 10.6702 20.434 10.5253H20.4236C20.4132 10.398 20.4029 10.2708 20.3923 10.1394H20.3819C20.3771 10.0878 20.3725 10.0362 20.3679 9.98512C20.3663 9.9676 20.3647 9.94998 20.3631 9.93246C20.3608 9.90722 20.3586 9.88209 20.3564 9.85686C20.3556 9.84899 20.3549 9.84111 20.3541 9.83298C20.3493 9.7773 20.3493 9.7773 20.361 9.75415H20.3401C20.3386 9.7595 20.337 9.76489 20.3355 9.77031C20.3104 9.85561 20.282 9.94028 20.2536 10.0237C20.2407 10.0624 20.2278 10.101 20.2149 10.1394C20.2073 10.1624 20.1996 10.1853 20.1919 10.2082C20.1705 10.2717 20.1497 10.3354 20.1303 10.399C20.1114 10.4608 20.0909 10.521 20.0637 10.5794C20.0452 10.6216 20.0358 10.6658 20.0256 10.7108C20.0169 10.7432 20.006 10.7736 19.9939 10.8049C19.9795 10.8432 19.967 10.8821 19.9542 10.9207C19.9323 10.9876 19.9089 11.0531 19.8834 11.1188C19.8658 11.1644 19.8512 11.2102 19.8379 11.2575C19.8285 11.2875 19.8175 11.3167 19.8064 11.3461C19.7914 11.386 19.7774 11.4264 19.7633 11.4671C19.7585 11.4807 19.7585 11.4807 19.7537 11.4947C19.7187 11.5951 19.6853 11.696 19.652 11.7971C19.6409 11.8308 19.6298 11.8644 19.6186 11.898C19.6134 11.9139 19.6134 11.9139 19.6081 11.9302C19.5942 11.972 19.5801 12.0129 19.5627 12.0532C19.5434 12.0985 19.5293 12.1446 19.515 12.1919C19.5095 12.2097 19.5041 12.2274 19.4986 12.2453C19.4962 12.253 19.4939 12.2608 19.4914 12.2688C19.485 12.2871 19.485 12.2871 19.4745 12.2975C19.4524 12.2985 19.4303 12.2987 19.4082 12.2987C19.4013 12.2987 19.3943 12.2987 19.3873 12.2987C19.3643 12.2987 19.3414 12.2986 19.3183 12.2985C19.3025 12.2985 19.2865 12.2985 19.2707 12.2985C19.2288 12.2984 19.1869 12.2983 19.1456 12.2982C19.1028 12.2981 19.0601 12.2981 19.0173 12.298C18.9335 12.2979 18.8494 12.2977 18.766 12.2975V12.2662H18.7451C18.7425 12.2562 18.7398 12.2461 18.7371 12.2357C18.7127 12.1434 18.7127 12.1434 18.6858 12.0522C18.6772 12.0242 18.671 11.9991 18.6662 11.97C18.6631 11.9409 18.6631 11.9409 18.6408 11.912C18.6351 11.8892 18.6302 11.866 18.6257 11.843C18.6152 11.7912 18.6025 11.7424 18.5847 11.6928C18.575 11.6623 18.5721 11.631 18.5678 11.5994C18.5574 11.584 18.5574 11.584 18.5469 11.5681C18.5413 11.545 18.5364 11.5217 18.5319 11.4984C18.5233 11.4561 18.5148 11.4159 18.4986 11.3753C18.4842 11.338 18.4791 11.3046 18.4738 11.2648C18.4705 11.2584 18.4672 11.2521 18.4638 11.2454C18.4468 11.2102 18.4438 11.1733 18.438 11.1349C18.4333 11.1059 18.4333 11.1059 18.4113 11.0769C18.4072 11.0581 18.4038 11.0391 18.4009 11.0202C18.3951 10.9822 18.3868 10.9545 18.3696 10.9205C18.3632 10.8976 18.3574 10.8746 18.352 10.8514C18.3491 10.8394 18.3463 10.8276 18.3434 10.8151C18.3383 10.7849 18.3383 10.7849 18.3487 10.7641H18.3279C18.3223 10.7419 18.3169 10.7197 18.3116 10.6975L18.3024 10.6601C18.2966 10.6284 18.2966 10.6284 18.307 10.6075H18.2862C18.2839 10.5986 18.2816 10.5896 18.2792 10.5803C18.2704 10.5462 18.2617 10.5121 18.2528 10.478C18.249 10.4634 18.2453 10.4488 18.2415 10.4342C18.2379 10.4201 18.2342 10.4059 18.2306 10.3917C18.2269 10.3774 18.2233 10.3632 18.2196 10.3489C18.2102 10.3123 18.2006 10.2758 18.1903 10.2394C18.1874 10.2287 18.1874 10.2287 18.1843 10.2177C18.1788 10.1978 18.1732 10.1779 18.1676 10.1581C18.1611 10.1279 18.1611 10.1279 18.1715 10.107H18.1507C18.148 10.0964 18.1454 10.0859 18.1426 10.0749C18.14 10.0646 18.14 10.0646 18.1374 10.054C18.1336 10.0389 18.1298 10.0238 18.126 10.0086C18.1172 9.97303 18.1082 9.93747 18.0988 9.90222C18.0959 9.89117 18.093 9.88012 18.09 9.86875C18.0874 9.85889 18.0847 9.84904 18.082 9.83882C18.0776 9.81526 18.0776 9.81526 18.0881 9.7944H18.0672C18.035 9.98731 18.035 9.98731 18.0109 10.1813C18.0057 10.231 18.0057 10.231 17.9942 10.2425C17.9913 10.2624 17.9891 10.2824 17.9871 10.3025C17.9858 10.3148 17.9845 10.3272 17.9832 10.34C17.9806 10.366 17.978 10.392 17.9754 10.4181C17.9689 10.4803 17.9596 10.5369 17.9421 10.5974C17.9355 10.6421 17.9306 10.6868 17.9258 10.7319C17.9233 10.7556 17.9206 10.7793 17.918 10.8028C17.9169 10.8133 17.9157 10.8237 17.9146 10.8343C17.9109 10.8583 17.9109 10.8583 17.9004 10.8687C17.8975 10.8861 17.8953 10.9035 17.8933 10.9209C17.892 10.9316 17.8907 10.9425 17.8894 10.9535C17.8881 10.9649 17.8868 10.9763 17.8854 10.988C17.8772 11.0592 17.8678 11.1288 17.853 11.1987C17.8442 11.2437 17.8401 11.2893 17.8357 11.3353C17.831 11.3785 17.823 11.4189 17.8118 11.4614C17.8011 11.5079 17.7966 11.5556 17.7909 11.6033C17.7828 11.6711 17.7732 11.7378 17.7592 11.8045C17.7525 11.8386 17.7482 11.8728 17.744 11.9072C17.7387 11.9488 17.7333 11.9896 17.7232 12.0303C17.7098 12.0849 17.7049 12.1408 17.6992 12.1971C17.693 12.2552 17.693 12.2552 17.6814 12.2667C17.678 12.2907 17.6746 12.3148 17.671 12.3396H16.7951C16.782 12.3001 16.7878 12.2673 16.7931 12.227C16.794 12.2197 16.7949 12.2124 16.7958 12.2049C16.8 12.1722 16.805 12.1431 16.8158 12.1118C16.8308 12.0656 16.8359 12.019 16.8421 11.971C16.8558 11.8647 16.8558 11.8647 16.8689 11.8146C16.8766 11.7846 16.8814 11.7586 16.8832 11.7279C16.8867 11.6867 16.8942 11.6481 16.904 11.6079C16.9195 11.5443 16.9284 11.4807 16.9357 11.4161C16.9412 11.3805 16.9412 11.3805 16.9516 11.3502C16.9646 11.31 16.9685 11.2712 16.9724 11.2292C16.9775 11.1754 16.9865 11.1295 17.0037 11.078C17.0085 11.0486 17.0113 11.019 17.0141 10.9894C17.0218 10.909 17.0218 10.909 17.0347 10.8716C17.0504 10.8235 17.055 10.7747 17.061 10.7245C17.069 10.6596 17.079 10.5994 17.0975 10.5358C17.1015 10.51 17.1049 10.4842 17.108 10.4582C17.1138 10.4108 17.121 10.3652 17.134 10.3195C17.1446 10.2725 17.1487 10.2241 17.1543 10.1767C17.1601 10.1403 17.1601 10.1403 17.1704 10.1152C17.181 10.0882 17.1857 10.0652 17.1891 10.0365C17.1903 10.0268 17.1916 10.0171 17.1929 10.0071C17.1941 9.99709 17.1953 9.9871 17.1966 9.97668C17.2049 9.90984 17.2146 9.84425 17.2283 9.77855C17.2372 9.73413 17.2423 9.68909 17.248 9.64404C17.2539 9.60869 17.2539 9.60869 17.2643 9.57261C17.2788 9.52131 17.2837 9.4698 17.2897 9.41724C17.2956 9.37949 17.2956 9.37949 17.3057 9.3504C17.3211 9.30223 17.326 9.25353 17.332 9.20338C17.3458 9.0918 17.3458 9.0918 17.3584 9.04383C17.3707 8.99566 17.376 8.94822 17.3812 8.89889C17.385 8.865 17.3904 8.83372 17.3998 8.80087C17.4134 8.75343 17.418 8.70671 17.4229 8.65802C17.4262 8.62799 17.4297 8.60108 17.4412 8.57303C17.4528 8.54321 17.4576 8.51621 17.462 8.48461C17.4636 8.47314 17.4653 8.46167 17.467 8.44989C17.4704 8.4259 17.4738 8.40182 17.4771 8.37783C17.4796 8.36073 17.4796 8.36073 17.4822 8.34321C17.4836 8.33279 17.4851 8.32236 17.4866 8.31162C17.4987 8.26595 17.5202 8.24978 17.567 8.24978L17.5669 8.24632Z" fill="white"/>
<path d="M14.1046 8.24609C14.1134 8.24615 14.1221 8.2462 14.1312 8.24626C14.1405 8.24623 14.1497 8.24621 14.1593 8.24618C14.1906 8.24612 14.2219 8.24621 14.2533 8.2463C14.2756 8.24629 14.298 8.24627 14.3203 8.24624C14.3812 8.24619 14.4423 8.24627 14.5028 8.24638C14.5664 8.24647 14.63 8.24645 14.6936 8.24645C14.8 8.24646 14.9074 8.24655 15.0138 8.24669C15.1379 8.24685 15.2609 8.24691 15.385 8.2469C15.5039 8.24689 15.6227 8.24695 15.7416 8.24703C15.7922 8.24707 15.8429 8.24709 15.8938 8.2471C15.9534 8.24711 16.0127 8.24717 16.0722 8.24727C16.0941 8.24731 16.1159 8.24732 16.138 8.24731C16.1678 8.24731 16.1976 8.24737 16.2274 8.24744C16.2362 8.24743 16.2449 8.24741 16.254 8.24739C16.3138 8.24764 16.3138 8.24764 16.3369 8.25928V8.97877C16.2339 8.97941 16.1304 8.98004 16.0251 8.98069C15.9601 8.98112 15.8948 8.98154 15.8301 8.98198C15.7268 8.98267 15.6237 8.98335 15.5204 8.98397C15.4451 8.98441 15.3703 8.9849 15.2942 8.98543C15.2543 8.9857 15.2144 8.98596 15.1742 8.98618C15.1367 8.98638 15.0993 8.98664 15.0616 8.98692C15.0412 8.98707 15.0209 8.98716 15.0004 8.98725C14.9824 8.98741 14.9824 8.98741 14.9639 8.98756C14.9534 8.98763 14.9429 8.9877 14.932 8.98777C14.9088 8.98658 14.9088 8.98658 14.898 8.99966C14.897 9.02666 14.8967 9.05336 14.8968 9.08026C14.8968 9.08871 14.8968 9.09715 14.8968 9.10581C14.8968 9.13386 14.8969 9.16191 14.897 9.18996C14.897 9.20935 14.897 9.22875 14.897 9.24814C14.8971 9.29924 14.8972 9.35044 14.8973 9.40143C14.8974 9.45356 14.8975 9.5057 14.8975 9.55784C14.8976 9.66024 14.8978 9.76222 14.898 9.86545C14.9049 9.86544 14.9118 9.86543 14.9188 9.86542C15.0856 9.86519 15.2524 9.86502 15.4193 9.86491C15.4999 9.86485 15.5809 9.86478 15.6612 9.86466C15.7315 9.86456 15.802 9.86449 15.8718 9.86447C15.9091 9.86445 15.9463 9.86442 15.9834 9.86435C16.0249 9.86426 16.0664 9.86426 16.1075 9.86427C16.1199 9.86423 16.1323 9.86419 16.1451 9.86415C16.162 9.86417 16.162 9.86417 16.1792 9.8642C16.1891 9.86419 16.1988 9.86418 16.209 9.86417C16.2324 9.86545 16.2324 9.86545 16.2533 9.87585V10.5849C16.1563 10.5855 16.0593 10.5862 15.9592 10.5868C15.898 10.5873 15.8372 10.5877 15.7757 10.5881C15.6784 10.5888 15.5807 10.5895 15.4837 10.5901C15.4128 10.5906 15.3419 10.591 15.271 10.5916C15.2335 10.5918 15.1959 10.5921 15.1584 10.5923C15.1166 10.5926 15.0747 10.5929 15.0333 10.5932C15.0145 10.5933 15.0145 10.5933 14.9953 10.5934C14.9783 10.5935 14.9783 10.5935 14.961 10.5937C14.9511 10.5938 14.9412 10.5938 14.931 10.5939C14.9089 10.5929 14.9089 10.5929 14.8982 10.6058C14.8972 10.6369 14.8969 10.6677 14.897 10.6989C14.897 10.7087 14.897 10.7184 14.897 10.7285C14.897 10.761 14.8971 10.7934 14.8972 10.8258C14.8972 10.8482 14.8972 10.8707 14.8972 10.8931C14.8973 10.9522 14.8974 11.0109 14.8975 11.0703C14.8976 11.1306 14.8977 11.1913 14.8977 11.2518C14.8978 11.3706 14.898 11.4885 14.8982 11.6074C14.906 11.6073 14.9138 11.6073 14.9218 11.6073C15.1105 11.6071 15.3003 11.6069 15.489 11.6068C15.5805 11.6068 15.6715 11.6067 15.7633 11.6066C15.8429 11.6065 15.9228 11.6064 16.0021 11.6064C16.0443 11.6064 16.0865 11.6063 16.1282 11.6063C16.168 11.6062 16.2076 11.6062 16.2471 11.6062C16.2617 11.6062 16.2763 11.6062 16.2909 11.6061C16.3107 11.6061 16.3306 11.6061 16.3505 11.6061C16.3616 11.6061 16.3728 11.6061 16.3842 11.6061C16.4092 11.6074 16.4092 11.6074 16.4196 11.6177V12.3372H14.0317C14.017 12.3078 14.0199 12.2835 14.0199 12.2507C14.0199 12.2438 14.0199 12.237 14.0199 12.2299C14.0198 12.2068 14.0198 12.1836 14.0199 12.1604C14.0198 12.1437 14.0198 12.127 14.0198 12.1103C14.0197 12.0643 14.0197 12.0183 14.0197 11.9727C14.0197 11.9231 14.0197 11.8735 14.0196 11.8236C14.0195 11.7264 14.0195 11.6296 14.0195 11.5316C14.0195 11.4527 14.0195 11.3742 14.0195 11.2949C14.0194 11.0718 14.0193 10.8476 14.0193 10.6244C14.0193 10.6123 14.0193 10.6003 14.0193 10.5878C14.0193 10.5757 14.0193 10.5636 14.0193 10.5512C14.0193 10.3552 14.0192 10.1592 14.0191 9.96312C14.0189 9.76187 14.0189 9.56166 14.0189 9.36041C14.0189 9.24779 14.0188 9.13414 14.0187 9.02152C14.0186 8.92538 14.0186 8.82965 14.0187 8.73268C14.0187 8.68356 14.0187 8.63456 14.0186 8.58565C14.0185 8.54081 14.0186 8.49587 14.0186 8.45114C14.0187 8.43487 14.0186 8.4185 14.0186 8.40223C14.0185 8.38023 14.0186 8.35823 14.0187 8.33612C14.0187 8.32382 14.0187 8.31162 14.0187 8.2989C14.0238 8.24269 14.0553 8.24707 14.1042 8.24676L14.1046 8.24609Z" fill="white"/>
<path d="M27.2225 8.19531C27.233 8.19534 27.2435 8.19536 27.2544 8.19539C27.6391 8.19648 27.6391 8.19648 27.7997 8.23439C27.8208 8.23933 27.8419 8.24367 27.8631 8.24774C27.8824 8.25145 27.8824 8.25145 27.9021 8.25523C27.9151 8.2577 27.928 8.26018 27.9413 8.26273C27.9756 8.27029 28.0078 8.28014 28.0409 8.29172C28.0574 8.29632 28.074 8.30088 28.0904 8.30538C28.2312 8.3473 28.2312 8.3473 28.2698 8.40642C28.2644 8.50517 28.2324 8.60454 28.2056 8.69943C28.2011 8.71507 28.1967 8.73071 28.1923 8.74636C28.1901 8.75425 28.1878 8.7621 28.1855 8.77023C28.1672 8.83593 28.1521 8.90266 28.1388 8.9694C28.1293 9.01538 28.1157 9.05324 28.0926 9.09453C28.0351 9.08368 27.9888 9.06867 27.9362 9.04239C27.9079 9.03378 27.8793 9.02623 27.8505 9.01893C27.8215 9.01115 27.8215 9.01115 27.7917 9.00079C27.7543 8.98879 27.7166 8.98118 27.678 8.97399C27.6051 8.96033 27.6051 8.96033 27.5816 8.94854C27.5206 8.93832 27.4596 8.93655 27.397 8.93676C27.3888 8.93675 27.3806 8.93674 27.3721 8.93673C27.3549 8.93672 27.3377 8.93674 27.3205 8.93679C27.2944 8.93684 27.2683 8.93679 27.2423 8.93672C27.2254 8.93673 27.2086 8.93674 27.1917 8.93676C27.184 8.93674 27.1764 8.93672 27.1684 8.9367C27.092 8.93704 27.0172 8.94408 26.9432 8.9636C26.9326 8.96638 26.9219 8.96917 26.911 8.97204C26.8769 8.98127 26.8428 8.99049 26.8089 9.00071C26.8022 9.00268 26.7956 9.00464 26.7887 9.00668C26.7255 9.02638 26.6698 9.05423 26.6114 9.08613C26.594 9.09566 26.5765 9.10511 26.559 9.1146C26.5514 9.11877 26.5437 9.12294 26.5359 9.12722C26.5168 9.13629 26.5168 9.13629 26.496 9.13629C26.4925 9.14661 26.4891 9.15694 26.4855 9.16757C26.4647 9.17453 26.4438 9.18144 26.423 9.18843C26.4195 9.19875 26.4161 9.20907 26.4126 9.21971C26.3963 9.2365 26.3963 9.2365 26.3767 9.25297C26.3702 9.2585 26.3639 9.26403 26.3572 9.26976C26.3396 9.28238 26.3396 9.28238 26.3187 9.28238C26.3181 9.28819 26.3174 9.29395 26.3167 9.3C26.3047 9.33441 26.2833 9.35245 26.2562 9.37623H26.2353C26.2326 9.38378 26.2298 9.39135 26.227 9.39917C26.2143 9.42878 26.1993 9.45266 26.1812 9.47925C26.1021 9.60125 26.0467 9.73576 26.0133 9.87654C26.0078 9.89875 26.0016 9.92075 25.9948 9.94265C25.9056 10.2784 25.9466 10.7174 26.1095 11.0271C26.1137 11.0353 26.1179 11.0436 26.1222 11.052C26.1671 11.1379 26.2206 11.2178 26.2973 11.2773C26.3006 11.2841 26.3038 11.291 26.3071 11.2981C26.3237 11.3294 26.3516 11.3417 26.3807 11.3607V11.3815C26.3979 11.3884 26.4152 11.3953 26.4329 11.4024V11.4232C26.4415 11.4256 26.4501 11.428 26.4589 11.4304C26.4879 11.4413 26.5079 11.4511 26.5332 11.4675C26.6427 11.5379 26.7553 11.5791 26.8815 11.6114C26.8943 11.6147 26.9071 11.6179 26.9204 11.6212C27.2791 11.6996 27.7233 11.6621 28.057 11.5055C28.0808 11.497 28.0808 11.497 28.1121 11.5074C28.1132 11.5143 28.1143 11.5211 28.1155 11.5282C28.1419 11.6951 28.1419 11.6951 28.1776 11.8609C28.1889 11.9092 28.1974 11.958 28.206 12.0069C28.2098 12.0417 28.2098 12.0417 28.2268 12.0706C28.2293 12.0933 28.2311 12.1161 28.2327 12.139C28.2336 12.1515 28.2344 12.164 28.2353 12.1768C28.236 12.1865 28.2366 12.1961 28.2372 12.2061C28.0986 12.2863 27.9338 12.3198 27.7784 12.3521C27.7714 12.3536 27.7644 12.3551 27.7571 12.3566C27.3504 12.4393 26.9093 12.4279 26.5058 12.3313C26.4978 12.3294 26.4899 12.3275 26.4817 12.3256C26.4022 12.3069 26.3274 12.2829 26.2523 12.2499C26.2269 12.2389 26.2015 12.2293 26.1755 12.2198C26.0973 12.1889 26.0254 12.1444 25.9524 12.103C25.9319 12.0916 25.9113 12.0811 25.8903 12.0709V12.05C25.883 12.0475 25.8757 12.045 25.8682 12.0424C25.8333 12.027 25.8061 12.0073 25.7756 11.9842C25.7651 11.9763 25.7546 11.9684 25.7437 11.9602C25.714 11.9361 25.6876 11.9107 25.6609 11.8832C25.6533 11.8757 25.6457 11.8682 25.6379 11.8605C25.5933 11.8163 25.5505 11.7714 25.5096 11.7239C25.4933 11.7047 25.4933 11.7047 25.4705 11.6832C25.4495 11.6614 25.4361 11.6383 25.421 11.6122C25.4154 11.6049 25.4098 11.5976 25.4041 11.5901C25.3897 11.5705 25.3897 11.5705 25.3793 11.5392C25.3743 11.5345 25.3694 11.5297 25.3643 11.5248C25.3441 11.5039 25.3377 11.4825 25.3271 11.4558C25.3203 11.4523 25.3134 11.4489 25.3063 11.4453V11.4036H25.2854C25.2812 11.3924 25.2812 11.3924 25.277 11.3808C25.2653 11.3512 25.2653 11.3512 25.2483 11.3247C25.2342 11.3008 25.2293 11.284 25.2229 11.2575L25.2066 11.2269C25.1917 11.1951 25.1885 11.1772 25.1916 11.1428H25.1707C25.1672 11.1262 25.1637 11.1094 25.1603 11.0927C25.1574 11.0787 25.1574 11.0787 25.1544 11.0644C25.1499 11.0386 25.1499 11.0386 25.1499 11.0073H25.129C25.1225 10.98 25.116 10.9525 25.1094 10.9251C25.1076 10.9175 25.1058 10.91 25.1039 10.9022C25.0982 10.8782 25.0927 10.8541 25.0872 10.83C25.0854 10.8222 25.0835 10.8144 25.0816 10.8062C25.0644 10.7281 25.0588 10.6498 25.054 10.5695C25.0535 10.5623 25.0531 10.555 25.0526 10.5475C25.0374 10.2952 25.0395 10.0314 25.1081 9.78633C25.1115 9.7711 25.1147 9.75598 25.1179 9.74066C25.1374 9.6516 25.1599 9.56547 25.2019 9.48414C25.209 9.46683 25.216 9.44942 25.2228 9.432C25.2665 9.33211 25.3135 9.23388 25.3688 9.14003H25.3896C25.3925 9.1325 25.3953 9.12502 25.3982 9.1172C25.4281 9.04566 25.4682 8.98373 25.5254 8.93159C25.5349 8.92022 25.5442 8.90865 25.5535 8.89707C25.5654 8.8832 25.5654 8.8832 25.5776 8.86902H25.5984C25.6008 8.86322 25.6032 8.85745 25.6056 8.8514C25.6361 8.79749 25.6889 8.75933 25.7349 8.71897C25.7541 8.7025 25.7541 8.7025 25.7692 8.68633C25.7907 8.66558 25.814 8.64921 25.8384 8.63201C25.8476 8.62551 25.8568 8.61897 25.8662 8.6123C25.89 8.59739 25.89 8.59739 25.9108 8.59739V8.57653C25.9209 8.57087 25.9309 8.56517 25.9413 8.55943C25.9546 8.55189 25.9678 8.54431 25.9812 8.5368C25.9911 8.53123 25.9911 8.53123 26.0012 8.52554C26.0355 8.50604 26.067 8.48561 26.0985 8.46183C26.1155 8.45254 26.1326 8.44369 26.15 8.43514C26.1587 8.43082 26.1674 8.4265 26.1764 8.4221C26.2023 8.41001 26.2284 8.39947 26.255 8.38894C26.2647 8.384 26.2744 8.37905 26.2843 8.37393C26.3522 8.34066 26.423 8.31918 26.495 8.29968C26.5109 8.29533 26.527 8.29097 26.5429 8.28665C26.5506 8.28457 26.5582 8.2825 26.5662 8.28037C26.5862 8.27486 26.6061 8.2689 26.626 8.26296C26.6617 8.2533 26.6963 8.24732 26.7324 8.24231C26.7728 8.23991 26.7728 8.23991 26.8066 8.22208C26.9432 8.19831 27.0798 8.19789 27.2185 8.19862L27.2225 8.19531Z" fill="white"/>
<path d="M23.9274 8.19531C23.956 8.1955 23.9844 8.19553 24.013 8.19552C24.1077 8.19571 24.2017 8.19765 24.2966 8.20223C24.3095 8.20285 24.3095 8.20285 24.3228 8.20348C24.3717 8.2061 24.4185 8.21096 24.4667 8.22246C24.4917 8.22802 24.5164 8.23234 24.5418 8.23633C24.5502 8.23766 24.5588 8.239 24.5674 8.24036C24.5844 8.243 24.6014 8.2456 24.6185 8.24813C24.6567 8.25417 24.6814 8.25918 24.7139 8.28087C24.7343 8.28573 24.7547 8.29 24.7752 8.29391C24.8547 8.31143 24.9588 8.33541 25.0057 8.40652C25.0099 8.45386 24.9998 8.48713 24.9848 8.53165C24.9777 8.55918 24.9706 8.58671 24.964 8.61445C24.9511 8.66721 24.9373 8.71976 24.9223 8.7719C24.917 8.79297 24.9117 8.81403 24.9066 8.83509C24.8962 8.87743 24.8839 8.9182 24.8701 8.95918C24.8593 9.00079 24.849 9.04249 24.8388 9.08431C24.8062 9.09505 24.789 9.09484 24.7574 9.0817C24.7501 9.07873 24.7427 9.07576 24.7351 9.0727C24.7169 9.06487 24.699 9.05675 24.6811 9.04851C24.5758 9.00315 24.4611 8.98219 24.3495 8.96321C24.3353 8.96054 24.3211 8.95739 24.307 8.95381C24.223 8.93337 24.1381 8.93525 24.0526 8.93567C24.026 8.93578 23.9993 8.93567 23.9727 8.93553C23.8871 8.93546 23.8069 8.93757 23.7235 8.9592C23.7081 8.96238 23.6926 8.9655 23.677 8.96854C23.5488 8.99513 23.4341 9.03527 23.3173 9.09471H23.2964C23.293 9.10503 23.2895 9.11535 23.286 9.12599C23.2591 9.14351 23.2591 9.14351 23.2254 9.16186C23.1836 9.18459 23.1517 9.20597 23.119 9.24069C23.1067 9.25122 23.0944 9.26165 23.0819 9.27198C23.0553 9.29439 23.0353 9.31681 23.0148 9.34497H22.9939C22.9911 9.3525 22.9883 9.35998 22.9854 9.3678C22.973 9.3971 22.9598 9.42307 22.9418 9.44924H22.9209C22.9182 9.45837 22.9154 9.46749 22.9126 9.47687C22.9002 9.51139 22.885 9.53871 22.8655 9.56978C22.808 9.66665 22.7736 9.76582 22.7508 9.87635C22.7437 9.90836 22.7437 9.90836 22.7335 9.941C22.7191 9.99564 22.7125 10.0505 22.706 10.1068C22.7039 10.1241 22.7039 10.1241 22.7018 10.1417C22.6922 10.2272 22.6846 10.3127 22.6916 10.3993C22.6951 10.4027 22.6985 10.4062 22.702 10.4097C22.7037 10.4265 22.7047 10.4433 22.7054 10.4601C22.7185 10.6968 22.7698 10.9168 22.9004 11.1191C22.9057 11.1274 22.9111 11.1357 22.9165 11.1442C22.9601 11.2112 23.0032 11.2683 23.0677 11.3173C23.0863 11.3333 23.1049 11.3494 23.1235 11.3656C23.1423 11.3818 23.1423 11.3818 23.172 11.4007V11.4216C23.1846 11.4248 23.1846 11.4248 23.1974 11.4281C23.2294 11.4405 23.2505 11.4524 23.2782 11.4718C23.6046 11.695 24.0738 11.6793 24.4461 11.6115C24.5681 11.588 24.6838 11.5559 24.7964 11.5041C24.804 11.5013 24.8115 11.4985 24.8193 11.4956C24.8401 11.506 24.8401 11.506 24.8509 11.5377C24.862 11.5804 24.8695 11.6235 24.8766 11.667C24.8848 11.7167 24.8944 11.7651 24.907 11.814C24.9202 11.8696 24.9305 11.9256 24.9414 11.9819C24.9457 12.0041 24.9501 12.0263 24.9544 12.0485C24.9572 12.0627 24.9599 12.077 24.9627 12.0912C24.9664 12.1104 24.9664 12.1104 24.9702 12.13C24.9756 12.163 24.9756 12.163 24.9756 12.2048C24.8865 12.2563 24.7932 12.2827 24.6941 12.309C24.6809 12.3127 24.6676 12.3163 24.6538 12.3201C24.4547 12.3723 24.243 12.3991 24.0376 12.4029C24.0276 12.4031 24.0176 12.4033 24.0072 12.4035C23.7476 12.4083 23.4973 12.3937 23.245 12.3299C23.233 12.327 23.233 12.327 23.2208 12.3239C23.0654 12.2853 22.9257 12.2227 22.7818 12.1508C22.775 12.1475 22.7681 12.1441 22.7612 12.1406C22.7163 12.1181 22.6727 12.094 22.6298 12.0687V12.0479C22.6184 12.0439 22.6184 12.0439 22.6067 12.0398C22.5762 12.0264 22.555 12.0111 22.5295 11.9898C22.5204 11.9824 22.5114 11.9749 22.5021 11.9673C22.4927 11.9595 22.4832 11.9517 22.4735 11.9435C22.4588 11.932 22.4588 11.932 22.4437 11.9201C22.3733 11.8642 22.303 11.8075 22.2644 11.724H22.2435C22.2393 11.7114 22.2393 11.7114 22.2351 11.6986C22.231 11.6898 22.2269 11.681 22.2227 11.6719C22.2123 11.6685 22.202 11.665 22.1914 11.6615C22.1762 11.6421 22.1762 11.6421 22.1607 11.6178C22.1553 11.6093 22.15 11.6009 22.1444 11.5921C22.1392 11.584 22.1341 11.576 22.1287 11.5675C22.1205 11.5557 22.1122 11.5441 22.1039 11.5323C22.087 11.505 22.087 11.505 22.087 11.4737H22.0661C22.0561 11.4556 22.0461 11.4376 22.0361 11.4196C22.0306 11.4095 22.025 11.3994 22.0192 11.3891C22.0051 11.362 21.9937 11.3352 21.9826 11.3068C21.9755 11.2916 21.9683 11.2764 21.9611 11.2612C21.9426 11.2201 21.9343 11.1847 21.9305 11.1402H21.9096C21.9085 11.1342 21.9073 11.1281 21.9062 11.1219C21.9045 11.1137 21.9029 11.1056 21.9012 11.0971C21.8996 11.0892 21.898 11.0812 21.8964 11.073C21.8894 11.0451 21.8894 11.0451 21.8735 11.0173C21.8546 10.9776 21.8467 10.9407 21.8392 10.8974C21.8377 10.8899 21.8363 10.8823 21.8348 10.8746C21.8247 10.8193 21.8247 10.8193 21.8365 10.7957H21.8157C21.7959 10.6633 21.7916 10.5329 21.7921 10.3984C21.7922 10.3653 21.7921 10.3324 21.792 10.2993C21.7919 10.194 21.7945 10.0897 21.8041 9.98547C21.8049 9.97655 21.8057 9.96764 21.8065 9.95847C21.8114 9.91144 21.8199 9.87025 21.8365 9.82604C21.8415 9.8031 21.8463 9.78005 21.8509 9.75701C21.9098 9.47964 22.0448 9.20852 22.22 8.98746C22.2339 8.96963 22.2339 8.96963 22.2485 8.94346C22.2672 8.91311 22.2901 8.89122 22.3158 8.86661C22.3283 8.85389 22.3283 8.85389 22.3412 8.84096C22.3902 8.79143 22.4397 8.7445 22.4934 8.70019C22.4978 8.69549 22.5022 8.6908 22.5068 8.686C22.5332 8.66087 22.5628 8.64044 22.5925 8.61937L22.6122 8.6054C22.6687 8.56557 22.7258 8.52782 22.7853 8.49174C22.795 8.48564 22.8047 8.47954 22.8147 8.47328C22.8956 8.42386 22.9784 8.38955 23.067 8.3565C23.0763 8.35277 23.0856 8.34905 23.0952 8.34523C23.2193 8.29581 23.3486 8.26234 23.4799 8.24127C23.5165 8.23818 23.5165 8.23818 23.5469 8.22094C23.6741 8.2005 23.8003 8.19706 23.9285 8.19789L23.9274 8.19531Z" fill="white"/>
<path d="M20.2043 13.1414C20.2828 13.2331 20.3252 13.351 20.3617 13.4647C20.3896 13.5517 20.4197 13.6368 20.4559 13.7202C20.4798 13.785 20.4788 13.8828 20.4566 13.9496C20.4077 14.0237 20.3137 14.058 20.2334 14.0862C20.2248 14.0893 20.2161 14.0924 20.2072 14.0956C20.1493 14.1162 20.0914 14.1359 20.033 14.155C20.0093 14.1629 19.986 14.1712 19.9626 14.1799C19.9561 14.1824 19.9495 14.1848 19.9427 14.1874C19.9299 14.1924 19.9172 14.1979 19.9047 14.2038C19.8358 14.2345 19.7545 14.2413 19.6815 14.2194C19.6096 14.1824 19.5616 14.1088 19.5272 14.039C19.5191 14.0113 19.5129 13.9836 19.5063 13.9556C19.4994 13.9452 19.4926 13.9349 19.4855 13.9243C19.4817 13.9092 19.4784 13.8939 19.4757 13.8786C19.4675 13.839 19.4544 13.8129 19.4334 13.7783C19.4248 13.7521 19.4174 13.7256 19.41 13.6991C19.4025 13.6724 19.4025 13.6724 19.3852 13.6435C19.3546 13.5755 19.3534 13.5079 19.3754 13.437C19.4096 13.3556 19.4647 13.316 19.5443 13.2816C19.6013 13.2597 19.659 13.2394 19.7164 13.2193C19.7707 13.2 19.8238 13.1785 19.878 13.1569C19.9823 13.1155 20.1032 13.0774 20.2054 13.1422L20.2043 13.1414Z" fill="#00CCC6"/>
<path d="M18.2332 14.3397C18.2947 14.3836 18.3169 14.4533 18.3417 14.5211C18.3457 14.5319 18.3457 14.5319 18.3499 14.5431C18.3728 14.6049 18.3948 14.6672 18.4163 14.7298C18.428 14.7633 18.4401 14.7949 18.4553 14.8271C18.4711 14.8679 18.475 14.9039 18.4747 14.9471C18.4746 14.9544 18.4746 14.9618 18.4745 14.9694C18.4728 15.0185 18.4679 15.0536 18.4339 15.0903C18.4285 15.0948 18.423 15.0993 18.4174 15.104C18.4118 15.1086 18.4062 15.1132 18.4005 15.118C18.3428 15.1587 18.2753 15.1789 18.2086 15.2012C18.1786 15.2113 18.1487 15.222 18.1189 15.2327C18.0962 15.2408 18.0734 15.2487 18.0505 15.2567C18.0276 15.2647 18.005 15.2729 17.9823 15.2818C17.9113 15.3087 17.8395 15.3153 17.7665 15.2898C17.7358 15.2686 17.7119 15.2463 17.687 15.2188C17.6758 15.2069 17.6758 15.2069 17.6642 15.1947C17.6395 15.1581 17.6332 15.1264 17.6245 15.0831H17.6036C17.5912 15.0426 17.5827 15.0109 17.5827 14.9684C17.5759 14.965 17.569 14.9615 17.5619 14.958C17.5653 14.9511 17.5688 14.9442 17.5723 14.9371H17.5515C17.5366 14.8884 17.5264 14.8419 17.5202 14.7911H17.4993C17.4739 14.7402 17.4808 14.6629 17.4964 14.6086C17.5706 14.4522 17.7644 14.4157 17.9145 14.3615C17.9347 14.3542 17.9547 14.3466 17.9747 14.3391C18.0652 14.3061 18.1457 14.2908 18.2333 14.3405L18.2332 14.3397Z" fill="#00CCC6"/>
<path d="M16.0221 14.6014C16.0377 14.6126 16.0377 14.6126 16.0481 14.6335C16.053 14.6397 16.0578 14.646 16.0628 14.6523C16.1182 14.7286 16.1455 14.8254 16.1755 14.9141C16.1825 14.935 16.1896 14.956 16.1967 14.9769C16.1998 14.986 16.2028 14.9952 16.206 15.0045C16.2145 15.0293 16.2145 15.0293 16.2265 15.0511C16.2527 15.106 16.2458 15.1887 16.2361 15.2482C16.2033 15.3215 16.1308 15.3556 16.0588 15.3837C16.0117 15.4005 15.9642 15.4161 15.917 15.4314C15.863 15.4488 15.8096 15.4687 15.7575 15.49C15.6877 15.5085 15.6303 15.505 15.5666 15.4694C15.5391 15.4508 15.5171 15.43 15.4957 15.4047V15.3838H15.4749C15.4701 15.3727 15.4654 15.3615 15.4605 15.3499C15.4513 15.3281 15.4418 15.3076 15.4305 15.2867C15.4279 15.2809 15.4253 15.2752 15.4226 15.2691L15.4331 15.2483H15.4122C15.4111 15.242 15.4099 15.2356 15.4088 15.2292C15.3998 15.178 15.3998 15.178 15.3751 15.1336C15.3537 15.1037 15.3548 15.075 15.3529 15.039C15.3518 15.0324 15.3507 15.0257 15.3496 15.0189C15.3428 15.0154 15.3359 15.012 15.3288 15.0084C15.3322 15.0015 15.3357 14.9947 15.3392 14.9876H15.3184C15.313 14.9153 15.3161 14.8593 15.3601 14.7999C15.4114 14.7433 15.4664 14.7121 15.5373 14.6852C15.5517 14.6794 15.5662 14.6737 15.5806 14.6679C15.6286 14.6488 15.6767 14.6304 15.7245 14.6122C15.7365 14.6076 15.7485 14.603 15.7608 14.5982C15.8546 14.5641 15.9318 14.552 16.0215 14.601L16.0221 14.6014Z" fill="#00CCC6"/>
<path d="M13.9372 13.7656V13.7864C13.944 13.7927 13.944 13.7927 13.951 13.7992C14.0164 13.8682 14.0447 14.0004 14.073 14.089C14.0805 14.1123 14.0881 14.1356 14.0958 14.1588C14.0992 14.1692 14.1026 14.1796 14.106 14.1902C14.1125 14.2134 14.1125 14.2134 14.1251 14.2246C14.127 14.2517 14.128 14.2783 14.1284 14.3054C14.1288 14.3167 14.1288 14.3167 14.1293 14.328C14.1297 14.3635 14.1268 14.3883 14.1099 14.4196C14.0461 14.4773 13.9681 14.5056 13.8878 14.5322C13.814 14.5566 13.814 14.5566 13.7418 14.585C13.6675 14.6167 13.601 14.6354 13.5207 14.6208C13.4604 14.5963 13.4171 14.5406 13.3852 14.4853C13.3787 14.454 13.3787 14.454 13.3748 14.4227C13.3643 14.4007 13.3529 14.3796 13.3408 14.3584C13.333 14.3393 13.333 14.3393 13.3435 14.308C13.3366 14.3046 13.3297 14.3011 13.3226 14.2976C13.3152 14.2793 13.3152 14.2793 13.3082 14.2559C13.2974 14.2207 13.2845 14.1885 13.2685 14.1556C13.2454 14.104 13.239 14.0657 13.2591 14.0106C13.2914 13.9399 13.3243 13.8959 13.3968 13.8667C13.4344 13.8531 13.4723 13.8404 13.5104 13.8278C13.5305 13.8208 13.5505 13.8136 13.5704 13.8064C13.5795 13.8031 13.5887 13.7997 13.5979 13.7963C13.6344 13.7827 13.6705 13.768 13.7064 13.7532C13.7881 13.7221 13.8607 13.7257 13.9379 13.7654L13.9372 13.7656Z" fill="#00CCC6"/>
<path d="M12.4793 12.1088C12.5494 12.1773 12.5744 12.2881 12.6034 12.3799C12.607 12.3907 12.6106 12.4017 12.6143 12.413C12.6211 12.4337 12.6278 12.4545 12.6345 12.4752C12.6413 12.4962 12.6485 12.5169 12.6558 12.5378C12.6684 12.5785 12.6717 12.6161 12.664 12.6587C12.6405 12.6888 12.6405 12.6888 12.6119 12.7109C12.606 12.7159 12.6003 12.7209 12.5942 12.7261C12.5615 12.7479 12.5264 12.7592 12.4889 12.7716C12.4414 12.7877 12.3939 12.8039 12.3471 12.8228C12.1803 12.8902 12.1803 12.8902 12.0875 12.8543C12.037 12.8039 12.0082 12.7365 11.9858 12.6687C11.9892 12.6619 11.9927 12.655 11.9962 12.6479H11.9754C11.963 12.6074 11.9545 12.5757 11.9545 12.5332H11.9337C11.9316 12.5261 11.9296 12.5191 11.9275 12.5118C11.9235 12.4978 11.9235 12.4978 11.9193 12.4837C11.9167 12.4745 11.914 12.4653 11.9113 12.4558C11.9032 12.4314 11.8931 12.41 11.8815 12.3872C11.8744 12.3496 11.8822 12.3338 11.8998 12.2992C11.9705 12.2085 12.1104 12.1793 12.2157 12.1438C12.2438 12.1341 12.2711 12.123 12.2987 12.1119C12.3628 12.0888 12.4145 12.0829 12.4781 12.1087L12.4793 12.1088Z" fill="#00CCC6"/>
<path d="M12.1647 9.9601V9.98096C12.175 9.9844 12.1854 9.98784 12.196 9.99139C12.2324 10.0278 12.2462 10.0638 12.2609 10.1113C12.2693 10.138 12.2793 10.1638 12.2898 10.1897C12.2933 10.1985 12.2968 10.2072 12.3005 10.2163C12.3067 10.2314 12.3133 10.2464 12.3204 10.2611C12.3518 10.3305 12.3599 10.4196 12.3344 10.4926C12.3045 10.5352 12.2568 10.5488 12.2092 10.5639C12.1838 10.5722 12.1595 10.5811 12.1348 10.5912C11.9492 10.6663 11.9492 10.6663 11.8553 10.6407C11.7848 10.6027 11.749 10.5135 11.726 10.4395C11.7231 10.4314 11.7203 10.4233 11.7173 10.4148C11.7031 10.3747 11.6947 10.3473 11.6947 10.3043C11.6879 10.3009 11.681 10.2974 11.6739 10.2939C11.6636 10.2455 11.6536 10.1834 11.6739 10.1375C11.7227 10.0806 11.7823 10.0578 11.8512 10.0332C11.8667 10.027 11.8823 10.0207 11.8979 10.0144C12.0689 9.94665 12.0689 9.94665 12.1638 9.96021L12.1647 9.9601Z" fill="#00CCC6"/>
<path d="M12.9879 8C12.9913 8.00688 12.9948 8.01376 12.9983 8.02085C13.0052 8.01741 13.0121 8.01397 13.0192 8.01043C13.0363 8.00891 13.0535 8.00812 13.0707 8.00782C13.0844 8.00742 13.0844 8.00742 13.0983 8.00701C13.1235 8.01043 13.1235 8.01043 13.1424 8.02494C13.1547 8.04173 13.1547 8.04173 13.1547 8.06258H13.1756C13.1941 8.10471 13.2122 8.14694 13.23 8.1898C13.2371 8.20638 13.2443 8.22296 13.2516 8.23943C13.2814 8.31201 13.2918 8.38125 13.2799 8.45945C13.2303 8.54141 13.0995 8.56999 13.0129 8.5971C12.9878 8.60463 12.9878 8.60463 12.9667 8.61587C12.9167 8.62227 12.8677 8.62439 12.8228 8.59762C12.7538 8.54016 12.7237 8.44121 12.7019 8.35674C12.6959 8.33401 12.6959 8.33401 12.6843 8.31357C12.663 8.26832 12.6657 8.2143 12.6813 8.16759C12.7302 8.08375 12.8492 8.05393 12.9368 8.02786C12.9588 8.02093 12.9588 8.02093 12.9868 8.00033L12.9879 8Z" fill="#00CCC6"/>
<path d="M25.8671 13.2035C25.8723 13.2083 25.8775 13.213 25.8828 13.2179V13.2388L25.9036 13.2492C25.9165 13.2686 25.9284 13.2884 25.9401 13.3085C25.9465 13.3194 25.9528 13.3301 25.9593 13.3413C26.0254 13.4685 26.0302 13.6604 25.9956 13.799C25.9478 13.9283 25.8736 14.0097 25.7547 14.0754C25.64 14.1265 25.4909 14.1188 25.372 14.083C25.3429 14.0707 25.3165 14.0562 25.2886 14.0413V14.0205C25.2786 14.0163 25.2786 14.0163 25.2684 14.012C25.2469 13.9996 25.2469 13.9996 25.2365 13.9683H25.2156C25.1646 13.8987 25.1337 13.8359 25.1322 13.7493H25.1218C25.1117 13.5721 25.126 13.4104 25.2469 13.2697C25.4075 13.0945 25.6723 13.0767 25.8673 13.2031L25.8671 13.2035ZM25.3718 13.3954C25.3077 13.5059 25.2914 13.6227 25.3148 13.7489C25.3405 13.832 25.394 13.8813 25.466 13.9272C25.5378 13.9512 25.6203 13.948 25.6891 13.9174C25.7516 13.8816 25.7821 13.8294 25.8111 13.7652C25.8246 13.7106 25.8231 13.6567 25.8227 13.6015C25.8228 13.59 25.8229 13.5785 25.823 13.5666C25.8229 13.5503 25.8229 13.5503 25.8229 13.5335C25.8228 13.5235 25.8228 13.5136 25.8228 13.5032C25.8224 13.4768 25.8224 13.4768 25.7992 13.4581C25.7945 13.4449 25.7902 13.4317 25.7862 13.4184C25.767 13.3656 25.7359 13.3386 25.6861 13.312C25.5704 13.2624 25.4494 13.2951 25.3722 13.3951L25.3718 13.3954Z" fill="white"/>
<path d="M26.367 13.1306C26.3841 13.1304 26.4011 13.1301 26.4182 13.1297C26.5256 13.1272 26.6288 13.1269 26.7227 13.1863C26.7411 13.213 26.7411 13.213 26.754 13.2385C26.758 13.2447 26.762 13.251 26.7662 13.2575C26.8016 13.3181 26.8039 13.3784 26.7957 13.4472C26.7754 13.5075 26.7425 13.5458 26.6914 13.5828C26.6979 13.5868 26.7044 13.5908 26.7112 13.595C26.7197 13.6004 26.7282 13.6058 26.7371 13.6115C26.7498 13.6194 26.7498 13.6194 26.7627 13.6276C26.7864 13.6463 26.7958 13.6591 26.8061 13.6871V13.7079C26.8077 13.7138 26.8094 13.7196 26.8111 13.7256C26.8282 13.8011 26.8304 13.8935 26.7893 13.9613C26.7301 14.0353 26.66 14.0802 26.5662 14.0937C26.5362 14.0946 26.5066 14.095 26.4767 14.0948C26.464 14.0947 26.464 14.0947 26.4509 14.0947C26.4239 14.0946 26.3969 14.0945 26.37 14.0944C26.3517 14.0943 26.3333 14.0943 26.315 14.0942C26.2701 14.0941 26.2252 14.0939 26.1804 14.0937C26.1639 14.0607 26.1686 14.025 26.1687 13.9884C26.1686 13.9797 26.1686 13.971 26.1686 13.962C26.1686 13.9331 26.1686 13.9044 26.1686 13.8755C26.1686 13.8555 26.1686 13.8354 26.1686 13.8155C26.1686 13.7736 26.1686 13.7316 26.1686 13.6894C26.1687 13.6356 26.1687 13.582 26.1686 13.5277C26.1686 13.4864 26.1686 13.4451 26.1686 13.4036C26.1686 13.3838 26.1686 13.3639 26.1686 13.3441C26.1686 13.3164 26.1686 13.2886 26.1687 13.2609C26.1686 13.2527 26.1686 13.2444 26.1686 13.236C26.1687 13.2026 26.1698 13.176 26.1805 13.1441C26.2393 13.1245 26.3056 13.1304 26.3671 13.13L26.367 13.1306ZM26.3473 13.2912C26.3348 13.3162 26.3357 13.3317 26.3358 13.3597C26.3358 13.369 26.3359 13.3783 26.3359 13.3879C26.336 13.3977 26.3361 13.4074 26.3362 13.4175C26.3362 13.4274 26.3363 13.4372 26.3363 13.4474C26.3364 13.4718 26.3366 13.4961 26.3368 13.5205C26.4091 13.5481 26.4755 13.5464 26.5485 13.5233C26.5724 13.5105 26.5832 13.5021 26.5972 13.4787C26.6064 13.4245 26.6107 13.3693 26.5845 13.3192C26.5294 13.2672 26.4166 13.2735 26.3467 13.2913L26.3473 13.2912ZM26.3577 13.677C26.3351 13.7109 26.3344 13.72 26.3348 13.7592C26.3348 13.769 26.3349 13.7788 26.335 13.7889C26.3351 13.799 26.3353 13.8092 26.3355 13.8197C26.3356 13.83 26.3357 13.8404 26.3358 13.8509C26.336 13.8763 26.3364 13.9018 26.3368 13.9272C26.4118 13.9516 26.4922 13.9602 26.5673 13.9283C26.5904 13.9131 26.6092 13.8946 26.6288 13.875C26.6313 13.8424 26.6313 13.8424 26.6301 13.806C26.6299 13.7936 26.6297 13.7812 26.6295 13.7685C26.6293 13.7589 26.629 13.7494 26.6288 13.7396H26.6079C26.6045 13.7293 26.601 13.7189 26.5975 13.7083C26.5289 13.6669 26.4348 13.6666 26.3577 13.677L26.3577 13.677Z" fill="white"/>
<path d="M24.1566 13.1311C24.1696 13.131 24.1825 13.1309 24.1959 13.1309C24.2726 13.1314 24.3387 13.1395 24.4107 13.1669C24.4073 13.1807 24.4038 13.1945 24.4003 13.2086V13.1774C24.38 13.1976 24.3857 13.2344 24.384 13.2614C24.3827 13.2816 24.3827 13.2816 24.3813 13.3022C24.3807 13.3126 24.3801 13.323 24.3794 13.3338C24.369 13.3315 24.3585 13.3293 24.3477 13.3269C24.2122 13.2989 24.0766 13.2774 23.9504 13.3461C23.8756 13.3961 23.8316 13.4692 23.8118 13.5568C23.8031 13.6178 23.8038 13.6798 23.8163 13.7403C23.8232 13.7437 23.8301 13.7472 23.8372 13.7507C23.8383 13.7584 23.8393 13.7662 23.8404 13.7742C23.8501 13.813 23.8705 13.8285 23.8998 13.855C23.9046 13.8602 23.9095 13.8654 23.9145 13.8707C23.9906 13.9422 24.097 13.9319 24.1939 13.9294C24.2071 13.929 24.2201 13.9285 24.2336 13.928C24.2335 13.919 24.2334 13.9099 24.2334 13.9008C24.2332 13.8674 24.2331 13.8339 24.233 13.8005C24.2329 13.786 24.2329 13.7717 24.2328 13.7572C24.2326 13.7364 24.2326 13.7156 24.2325 13.6948C24.2325 13.6823 24.2324 13.6698 24.2324 13.657C24.2336 13.6257 24.2336 13.6257 24.2439 13.5944H24.4212C24.4178 13.7456 24.4143 13.8968 24.4108 14.0532C24.3066 14.0978 24.2137 14.1072 24.1021 14.1079C24.0885 14.1081 24.0885 14.1081 24.0746 14.1082C23.9328 14.1076 23.8285 14.0696 23.7232 13.9727C23.6648 13.91 23.6337 13.8455 23.6215 13.761C23.6201 13.7409 23.6201 13.7409 23.6078 13.7304C23.6061 13.7005 23.6053 13.6711 23.6052 13.6412C23.6049 13.633 23.6047 13.6248 23.6045 13.6164C23.6041 13.5576 23.6149 13.5128 23.639 13.4589C23.6442 13.4468 23.6493 13.4347 23.6547 13.4222C23.6598 13.4108 23.665 13.3996 23.6703 13.3879C23.6755 13.3764 23.6806 13.365 23.6859 13.3532C23.6998 13.3267 23.7108 13.3114 23.7329 13.2921C23.7402 13.2841 23.7475 13.2761 23.755 13.268C23.8718 13.1585 23.999 13.1283 24.1564 13.1314L24.1566 13.1311Z" fill="white"/>
<path d="M27.2118 13.142C27.2333 13.1384 27.2333 13.1384 27.2594 13.1389C27.2688 13.139 27.2781 13.1391 27.2877 13.1392C27.3024 13.1396 27.3024 13.1396 27.3173 13.14C27.3272 13.1401 27.337 13.1403 27.3471 13.1404C27.3715 13.1408 27.3958 13.1413 27.4202 13.142C27.4214 13.1524 27.4227 13.1628 27.4239 13.1737C27.4298 13.2151 27.4418 13.253 27.4554 13.2925C27.4578 13.2994 27.4601 13.3063 27.4626 13.3135C27.4762 13.3534 27.4904 13.3931 27.5056 13.4324C27.5218 13.4751 27.5367 13.5184 27.5518 13.5617C27.5626 13.5917 27.5744 13.6213 27.5864 13.6508C27.608 13.7045 27.6265 13.7593 27.6444 13.8135C27.6667 13.8816 27.6896 13.949 27.716 14.0158C27.7226 14.0383 27.7226 14.0383 27.7226 14.0904H27.5453C27.5402 14.0543 27.5402 14.0543 27.5349 14.0174C27.5246 14.0123 27.5246 14.0123 27.5141 14.007C27.5037 13.9761 27.4934 13.9451 27.4828 13.9132C27.3024 13.908 27.3024 13.908 27.1178 13.9027C27.1075 13.9337 27.0972 13.9647 27.0865 13.9966L27.0552 14.0904H26.8988C26.8881 14.0474 26.8896 14.0343 26.9014 13.9934C26.9041 13.9839 26.9067 13.9745 26.9094 13.9648C26.919 13.9361 26.9306 13.909 26.9427 13.8814C26.9585 13.8425 26.9701 13.8021 26.9822 13.7615C27.0001 13.7023 27.0201 13.6457 27.0448 13.5894C27.0537 13.5636 27.0624 13.5378 27.0708 13.5118C27.0863 13.4645 27.1024 13.4177 27.1202 13.371C27.1285 13.3487 27.1364 13.3262 27.1443 13.3037C27.1469 13.2961 27.1495 13.2885 27.1522 13.2806C27.1576 13.2651 27.163 13.2495 27.1683 13.2339C27.1802 13.1997 27.1915 13.1712 27.2117 13.1409L27.2118 13.142ZM27.2952 13.3714C27.2648 13.4447 27.2384 13.5184 27.2144 13.5945C27.2095 13.6097 27.2095 13.6097 27.2044 13.6252C27.2013 13.6349 27.1982 13.6447 27.195 13.6547C27.1922 13.6634 27.1894 13.6721 27.1865 13.6812C27.1788 13.7079 27.1788 13.7079 27.1805 13.747H27.4203C27.4315 13.7023 27.4307 13.6974 27.4119 13.659C27.3873 13.6079 27.367 13.5581 27.3525 13.5036C27.3408 13.4596 27.3287 13.4157 27.316 13.3722H27.2952L27.2952 13.3714Z" fill="white"/>
<path d="M27.8585 13.1406H28.0358V13.9123C28.1808 13.9174 28.1808 13.9174 28.3278 13.9227C28.3382 13.954 28.3382 13.954 28.3382 14.0895H27.8585C27.8455 14.0505 27.8467 14.0143 27.8468 13.9738C27.8467 13.9652 27.8467 13.9566 27.8467 13.9477C27.8467 13.9192 27.8467 13.8908 27.8467 13.8623C27.8467 13.8426 27.8467 13.8228 27.8467 13.8031C27.8467 13.7617 27.8467 13.7203 27.8467 13.679C27.8468 13.6259 27.8468 13.5726 27.8467 13.5195C27.8467 13.4787 27.8467 13.4379 27.8467 13.3975C27.8467 13.3778 27.8467 13.3582 27.8467 13.3386C27.8467 13.3113 27.8467 13.2839 27.8468 13.2566C27.8467 13.2485 27.8467 13.2403 27.8467 13.232C27.8468 13.1988 27.848 13.1726 27.8586 13.1409L27.8585 13.1406Z" fill="white"/>
<path d="M24.6151 13.1413H24.7924V13.9129C24.8922 13.9163 24.9916 13.9198 25.0948 13.9233C25.0913 13.9784 25.0879 14.0338 25.0844 14.0901H24.6151C24.6125 13.9181 24.6125 13.9181 24.6114 13.8441C24.6107 13.7937 24.6099 13.7433 24.6092 13.6929C24.6043 13.3717 24.6043 13.3717 24.6037 13.2497C24.6037 13.2419 24.6036 13.2342 24.6035 13.2261C24.6035 13.1945 24.605 13.1709 24.6151 13.1406L24.6151 13.1413Z" fill="white"/>
<path d="M24.5947 13.5059H24.6052V14.0585H24.5947V13.5059Z" fill="white"/>
<path d="M24.5947 13.1934H24.6052V13.3706H24.5947V13.1934Z" fill="white"/>
<path d="M11.0385 23.932H9.8745L9.6745 24.5H9.1985L10.1945 21.716H10.7225L11.7185 24.5H11.2385L11.0385 23.932ZM10.9105 23.56L10.4585 22.268L10.0025 23.56H10.9105ZM12.6076 21.72V24.5H12.1516V21.72H12.6076ZM16.3933 24.5L16.0493 24.156C15.916 24.2893 15.7706 24.3893 15.6133 24.456C15.456 24.52 15.28 24.552 15.0853 24.552C14.888 24.552 14.7133 24.5173 14.5613 24.448C14.4093 24.3787 14.292 24.28 14.2093 24.152C14.1266 24.0213 14.0853 23.8707 14.0853 23.7C14.0853 23.508 14.14 23.3373 14.2493 23.188C14.3586 23.036 14.5213 22.916 14.7373 22.828C14.66 22.7347 14.6053 22.648 14.5733 22.568C14.5413 22.4853 14.5253 22.3947 14.5253 22.296C14.5253 22.1733 14.556 22.064 14.6173 21.968C14.6813 21.872 14.772 21.796 14.8893 21.74C15.0066 21.684 15.1426 21.656 15.2973 21.656C15.4546 21.656 15.588 21.6867 15.6973 21.748C15.8093 21.8067 15.892 21.888 15.9453 21.992C16.0013 22.096 16.024 22.212 16.0133 22.34H15.5573C15.56 22.2413 15.536 22.1653 15.4853 22.112C15.4346 22.056 15.3653 22.028 15.2773 22.028C15.1893 22.028 15.1173 22.0547 15.0613 22.108C15.008 22.1587 14.9813 22.2213 14.9813 22.296C14.9813 22.368 15.0013 22.44 15.0413 22.512C15.084 22.5813 15.1573 22.672 15.2613 22.784L15.9973 23.516L16.2813 23.048H16.7733L16.4133 23.664L16.3133 23.828L16.9893 24.5H16.3933ZM15.0853 24.164C15.336 24.164 15.5573 24.0613 15.7493 23.856L15.0133 23.116C14.6986 23.2413 14.5413 23.4307 14.5413 23.684C14.5413 23.82 14.592 23.9347 14.6933 24.028C14.7946 24.1187 14.9253 24.164 15.0853 24.164ZM19.2353 21.72C19.5313 21.72 19.79 21.7773 20.0113 21.892C20.2353 22.004 20.4073 22.1667 20.5273 22.38C20.65 22.5907 20.7113 22.8373 20.7113 23.12C20.7113 23.4027 20.65 23.648 20.5273 23.856C20.4073 24.064 20.2353 24.224 20.0113 24.336C19.79 24.4453 19.5313 24.5 19.2353 24.5H18.3273V21.72H19.2353ZM19.2353 24.128C19.5607 24.128 19.81 24.04 19.9833 23.864C20.1567 23.688 20.2433 23.44 20.2433 23.12C20.2433 22.7973 20.1567 22.5453 19.9833 22.364C19.81 22.1827 19.5607 22.092 19.2353 22.092H18.7833V24.128H19.2353ZM21.3953 22.004C21.3126 22.004 21.2433 21.976 21.1873 21.92C21.1313 21.864 21.1033 21.7947 21.1033 21.712C21.1033 21.6293 21.1313 21.56 21.1873 21.504C21.2433 21.448 21.3126 21.42 21.3953 21.42C21.4753 21.42 21.5433 21.448 21.5993 21.504C21.6553 21.56 21.6833 21.6293 21.6833 21.712C21.6833 21.7947 21.6553 21.864 21.5993 21.92C21.5433 21.976 21.4753 22.004 21.3953 22.004ZM21.6193 22.296V24.5H21.1633V22.296H21.6193ZM23.106 22.26C23.2766 22.26 23.4273 22.2947 23.558 22.364C23.6913 22.4307 23.7953 22.5147 23.87 22.616V22.296H24.33V24.536C24.33 24.7387 24.2873 24.9187 24.202 25.076C24.1166 25.236 23.9926 25.3613 23.83 25.452C23.67 25.5427 23.478 25.588 23.254 25.588C22.9553 25.588 22.7073 25.5173 22.51 25.376C22.3126 25.2373 22.2006 25.048 22.174 24.808H22.626C22.6606 24.9227 22.734 25.0147 22.846 25.084C22.9606 25.156 23.0966 25.192 23.254 25.192C23.438 25.192 23.586 25.136 23.698 25.024C23.8126 24.912 23.87 24.7493 23.87 24.536V24.168C23.7926 24.272 23.6873 24.36 23.554 24.432C23.4233 24.5013 23.274 24.536 23.106 24.536C22.914 24.536 22.738 24.488 22.578 24.392C22.4206 24.2933 22.2953 24.1573 22.202 23.984C22.1113 23.808 22.066 23.6093 22.066 23.388C22.066 23.1667 22.1113 22.9707 22.202 22.8C22.2953 22.6293 22.4206 22.4973 22.578 22.404C22.738 22.308 22.914 22.26 23.106 22.26ZM23.87 23.396C23.87 23.244 23.838 23.112 23.774 23C23.7126 22.888 23.6313 22.8027 23.53 22.744C23.4286 22.6853 23.3193 22.656 23.202 22.656C23.0846 22.656 22.9753 22.6853 22.874 22.744C22.7726 22.8 22.69 22.884 22.626 22.996C22.5646 23.1053 22.534 23.236 22.534 23.388C22.534 23.54 22.5646 23.6733 22.626 23.788C22.69 23.9027 22.7726 23.9907 22.874 24.052C22.978 24.1107 23.0873 24.14 23.202 24.14C23.3193 24.14 23.4286 24.1107 23.53 24.052C23.6313 23.9933 23.7126 23.908 23.774 23.796C23.838 23.6813 23.87 23.548 23.87 23.396ZM25.1609 22.004C25.0782 22.004 25.0089 21.976 24.9529 21.92C24.8969 21.864 24.8689 21.7947 24.8689 21.712C24.8689 21.6293 24.8969 21.56 24.9529 21.504C25.0089 21.448 25.0782 21.42 25.1609 21.42C25.2409 21.42 25.3089 21.448 25.3649 21.504C25.4209 21.56 25.4489 21.6293 25.4489 21.712C25.4489 21.7947 25.4209 21.864 25.3649 21.92C25.3089 21.976 25.2409 22.004 25.1609 22.004ZM25.3849 22.296V24.5H24.9289V22.296H25.3849ZM26.5156 22.668V23.888C26.5156 23.9707 26.5343 24.0307 26.5716 24.068C26.6116 24.1027 26.6783 24.12 26.7716 24.12H27.0516V24.5H26.6916C26.4863 24.5 26.3289 24.452 26.2196 24.356C26.1103 24.26 26.0556 24.104 26.0556 23.888V22.668H25.7956V22.296H26.0556V21.748H26.5156V22.296H27.0516V22.668H26.5156ZM27.3199 23.388C27.3199 23.1667 27.3652 22.9707 27.4559 22.8C27.5492 22.6293 27.6745 22.4973 27.8319 22.404C27.9919 22.308 28.1679 22.26 28.3599 22.26C28.5332 22.26 28.6839 22.2947 28.8119 22.364C28.9425 22.4307 29.0465 22.5147 29.1239 22.616V22.296H29.5839V24.5H29.1239V24.172C29.0465 24.276 28.9412 24.3627 28.8079 24.432C28.6745 24.5013 28.5225 24.536 28.3519 24.536C28.1625 24.536 27.9892 24.488 27.8319 24.392C27.6745 24.2933 27.5492 24.1573 27.4559 23.984C27.3652 23.808 27.3199 23.6093 27.3199 23.388ZM29.1239 23.396C29.1239 23.244 29.0919 23.112 29.0279 23C28.9665 22.888 28.8852 22.8027 28.7839 22.744C28.6825 22.6853 28.5732 22.656 28.4559 22.656C28.3385 22.656 28.2292 22.6853 28.1279 22.744C28.0265 22.8 27.9439 22.884 27.8799 22.996C27.8185 23.1053 27.7879 23.236 27.7879 23.388C27.7879 23.54 27.8185 23.6733 27.8799 23.788C27.9439 23.9027 28.0265 23.9907 28.1279 24.052C28.2319 24.1107 28.3412 24.14 28.4559 24.14C28.5732 24.14 28.6825 24.1107 28.7839 24.052C28.8852 23.9933 28.9665 23.908 29.0279 23.796C29.0919 23.6813 29.1239 23.548 29.1239 23.396ZM30.6388 21.54V24.5H30.1828V21.54H30.6388ZM14.0565 28.548C14.0565 28.6893 14.0232 28.8227 13.9565 28.948C13.8898 29.0733 13.7832 29.176 13.6365 29.256C13.4898 29.3333 13.3018 29.372 13.0725 29.372H12.5685V30.5H12.1125V27.72H13.0725C13.2858 27.72 13.4658 27.7573 13.6125 27.832C13.7618 27.904 13.8725 28.0027 13.9445 28.128C14.0192 28.2533 14.0565 28.3933 14.0565 28.548ZM13.0725 29C13.2458 29 13.3752 28.9613 13.4605 28.884C13.5458 28.804 13.5885 28.692 13.5885 28.548C13.5885 28.244 13.4165 28.092 13.0725 28.092H12.5685V29H13.0725ZM15.4474 30.536C15.2394 30.536 15.0514 30.4893 14.8834 30.396C14.7154 30.3 14.5834 30.1667 14.4874 29.996C14.3914 29.8227 14.3434 29.6227 14.3434 29.396C14.3434 29.172 14.3927 28.9733 14.4914 28.8C14.5901 28.6267 14.7247 28.4933 14.8954 28.4C15.0661 28.3067 15.2567 28.26 15.4674 28.26C15.6781 28.26 15.8687 28.3067 16.0394 28.4C16.2101 28.4933 16.3447 28.6267 16.4434 28.8C16.5421 28.9733 16.5914 29.172 16.5914 29.396C16.5914 29.62 16.5407 29.8187 16.4394 29.992C16.3381 30.1653 16.1994 30.3 16.0234 30.396C15.8501 30.4893 15.6581 30.536 15.4474 30.536ZM15.4474 30.14C15.5647 30.14 15.6741 30.112 15.7754 30.056C15.8794 30 15.9634 29.916 16.0274 29.804C16.0914 29.692 16.1234 29.556 16.1234 29.396C16.1234 29.236 16.0927 29.1013 16.0314 28.992C15.9701 28.88 15.8887 28.796 15.7874 28.74C15.6861 28.684 15.5767 28.656 15.4594 28.656C15.3421 28.656 15.2327 28.684 15.1314 28.74C15.0327 28.796 14.9541 28.88 14.8954 28.992C14.8367 29.1013 14.8074 29.236 14.8074 29.396C14.8074 29.6333 14.8674 29.8173 14.9874 29.948C15.1101 30.076 15.2634 30.14 15.4474 30.14ZM16.8902 29.388C16.8902 29.1667 16.9355 28.9707 17.0262 28.8C17.1195 28.6293 17.2449 28.4973 17.4022 28.404C17.5622 28.308 17.7395 28.26 17.9342 28.26C18.0782 28.26 18.2195 28.292 18.3582 28.356C18.4995 28.4173 18.6115 28.5 18.6942 28.604V27.54H19.1542V30.5H18.6942V30.168C18.6195 30.2747 18.5155 30.3627 18.3822 30.432C18.2515 30.5013 18.1009 30.536 17.9302 30.536C17.7382 30.536 17.5622 30.488 17.4022 30.392C17.2449 30.2933 17.1195 30.1573 17.0262 29.984C16.9355 29.808 16.8902 29.6093 16.8902 29.388ZM18.6942 29.396C18.6942 29.244 18.6622 29.112 18.5982 29C18.5369 28.888 18.4555 28.8027 18.3542 28.744C18.2529 28.6853 18.1435 28.656 18.0262 28.656C17.9089 28.656 17.7995 28.6853 17.6982 28.744C17.5969 28.8 17.5142 28.884 17.4502 28.996C17.3889 29.1053 17.3582 29.236 17.3582 29.388C17.3582 29.54 17.3889 29.6733 17.4502 29.788C17.5142 29.9027 17.5969 29.9907 17.6982 30.052C17.8022 30.1107 17.9115 30.14 18.0262 30.14C18.1435 30.14 18.2529 30.1107 18.3542 30.052C18.4555 29.9933 18.5369 29.908 18.5982 29.796C18.6622 29.6813 18.6942 29.548 18.6942 29.396ZM19.6011 29.396C19.6011 29.1693 19.6465 28.9707 19.7371 28.8C19.8305 28.6267 19.9585 28.4933 20.1211 28.4C20.2838 28.3067 20.4705 28.26 20.6811 28.26C20.9478 28.26 21.1678 28.324 21.3411 28.452C21.5171 28.5773 21.6358 28.7573 21.6971 28.992H21.2051C21.1651 28.8827 21.1011 28.7973 21.0131 28.736C20.9251 28.6747 20.8145 28.644 20.6811 28.644C20.4945 28.644 20.3451 28.7107 20.2331 28.844C20.1238 28.9747 20.0691 29.1587 20.0691 29.396C20.0691 29.6333 20.1238 29.8187 20.2331 29.952C20.3451 30.0853 20.4945 30.152 20.6811 30.152C20.9451 30.152 21.1198 30.036 21.2051 29.804H21.6971C21.6331 30.028 21.5131 30.2067 21.3371 30.34C21.1611 30.4707 20.9425 30.536 20.6811 30.536C20.4705 30.536 20.2838 30.4893 20.1211 30.396C19.9585 30.3 19.8305 30.1667 19.7371 29.996C19.6465 29.8227 19.6011 29.6227 19.6011 29.396ZM21.9996 29.388C21.9996 29.1667 22.0449 28.9707 22.1356 28.8C22.2289 28.6293 22.3542 28.4973 22.5116 28.404C22.6716 28.308 22.8476 28.26 23.0396 28.26C23.2129 28.26 23.3636 28.2947 23.4916 28.364C23.6222 28.4307 23.7262 28.5147 23.8036 28.616V28.296H24.2636V30.5H23.8036V30.172C23.7262 30.276 23.6209 30.3627 23.4876 30.432C23.3542 30.5013 23.2022 30.536 23.0316 30.536C22.8422 30.536 22.6689 30.488 22.5116 30.392C22.3542 30.2933 22.2289 30.1573 22.1356 29.984C22.0449 29.808 21.9996 29.6093 21.9996 29.388ZM23.8036 29.396C23.8036 29.244 23.7716 29.112 23.7076 29C23.6462 28.888 23.5649 28.8027 23.4636 28.744C23.3622 28.6853 23.2529 28.656 23.1356 28.656C23.0182 28.656 22.9089 28.6853 22.8076 28.744C22.7062 28.8 22.6236 28.884 22.5596 28.996C22.4982 29.1053 22.4676 29.236 22.4676 29.388C22.4676 29.54 22.4982 29.6733 22.5596 29.788C22.6236 29.9027 22.7062 29.9907 22.8076 30.052C22.9116 30.1107 23.0209 30.14 23.1356 30.14C23.2529 30.14 23.3622 30.1107 23.4636 30.052C23.5649 29.9933 23.6462 29.908 23.7076 29.796C23.7716 29.6813 23.8036 29.548 23.8036 29.396ZM25.6625 30.536C25.4892 30.536 25.3332 30.5053 25.1945 30.444C25.0585 30.38 24.9505 30.2947 24.8705 30.188C24.7905 30.0787 24.7478 29.9573 24.7425 29.824H25.2145C25.2225 29.9173 25.2665 29.996 25.3465 30.06C25.4292 30.1213 25.5318 30.152 25.6545 30.152C25.7825 30.152 25.8812 30.128 25.9505 30.08C26.0225 30.0293 26.0585 29.9653 26.0585 29.888C26.0585 29.8053 26.0185 29.744 25.9385 29.704C25.8612 29.664 25.7372 29.62 25.5665 29.572C25.4012 29.5267 25.2665 29.4827 25.1625 29.44C25.0585 29.3973 24.9678 29.332 24.8905 29.244C24.8158 29.156 24.7785 29.04 24.7785 28.896C24.7785 28.7787 24.8132 28.672 24.8825 28.576C24.9518 28.4773 25.0505 28.4 25.1785 28.344C25.3092 28.288 25.4585 28.26 25.6265 28.26C25.8772 28.26 26.0785 28.324 26.2305 28.452C26.3852 28.5773 26.4678 28.7493 26.4785 28.968H26.0225C26.0145 28.8693 25.9745 28.7907 25.9025 28.732C25.8305 28.6733 25.7332 28.644 25.6105 28.644C25.4905 28.644 25.3985 28.6667 25.3345 28.712C25.2705 28.7573 25.2385 28.8173 25.2385 28.892C25.2385 28.9507 25.2598 29 25.3025 29.04C25.3452 29.08 25.3972 29.112 25.4585 29.136C25.5198 29.1573 25.6105 29.1853 25.7305 29.22C25.8905 29.2627 26.0212 29.3067 26.1225 29.352C26.2265 29.3947 26.3158 29.4587 26.3905 29.544C26.4652 29.6293 26.5038 29.7427 26.5065 29.884C26.5065 30.0093 26.4718 30.1213 26.4025 30.22C26.3332 30.3187 26.2345 30.396 26.1065 30.452C25.9812 30.508 25.8332 30.536 25.6625 30.536ZM27.5312 28.668V29.888C27.5312 29.9707 27.5499 30.0307 27.5872 30.068C27.6272 30.1027 27.6939 30.12 27.7872 30.12H28.0672V30.5H27.7072C27.5019 30.5 27.3446 30.452 27.2352 30.356C27.1259 30.26 27.0712 30.104 27.0712 29.888V28.668H26.8112V28.296H27.0712V27.748H27.5312V28.296H28.0672V28.668H27.5312Z" fill="white"/>
</svg>
