<svg width="42" height="42" viewBox="0 0 42 42" fill="none" xmlns="http://www.w3.org/2000/svg">
<rect x="0.353553" y="21" width="29.1985" height="29.1985" rx="5.75" transform="rotate(-45 0.353553 21)" fill="#EEFFFC" stroke="#4DFBED" stroke-width="0.5"/>
<path d="M25.7429 16.0877C25.847 16.1592 25.9149 16.24 25.9417 16.3652C25.9495 16.4271 25.9516 16.4864 25.9516 16.5486C25.9516 16.5606 25.9516 16.5726 25.9517 16.585C25.9517 16.6253 25.9517 16.6656 25.9516 16.7059C25.9516 16.7352 25.9517 16.7646 25.9517 16.7939C25.9518 16.8747 25.9518 16.9555 25.9517 17.0357C25.9517 17.1235 25.9518 17.2114 25.9518 17.3001C25.9519 17.454 25.952 17.6076 25.9519 17.7614C25.9519 17.9901 25.952 18.2189 25.9521 18.4476C25.9523 18.8807 25.9523 19.3139 25.9523 19.747C25.9524 20.0807 25.9524 20.4145 25.9524 20.7501C25.9525 20.8463 25.9525 20.9432 25.9525 21.0389C25.9525 21.0627 25.9525 21.0867 25.9525 21.1112C25.9526 21.7844 25.9527 22.4556 25.9527 23.1362C25.9527 23.1619 25.9527 23.1874 25.9527 23.2131C25.9527 23.3288 25.9527 23.4437 25.9527 23.56C25.9527 23.6115 25.9527 23.6631 25.9527 23.7147C25.9527 23.7405 25.9527 23.7662 25.9527 23.7921C25.9527 24.6077 25.9528 25.4252 25.9531 26.2484C25.9531 26.4546 25.9532 26.659 25.9533 26.8652C25.9533 26.8842 25.9533 26.8842 25.9533 26.9037C25.9535 27.588 25.9535 28.2705 25.9535 28.9474C25.9535 29.0436 25.9535 29.1405 25.9535 29.2362C25.9535 29.2598 25.9535 29.2836 25.9535 29.308C25.9535 29.6886 25.9536 30.0711 25.9538 30.4517C25.9539 30.8342 25.954 31.2186 25.9538 31.6011C25.9538 31.828 25.9538 32.0567 25.954 32.2836C25.9541 32.4357 25.9541 32.5874 25.9539 32.7392C25.9539 32.8259 25.9538 32.9127 25.954 32.9999C25.9541 33.0788 25.9541 33.1575 25.9539 33.2361C25.9539 33.2644 25.9539 33.2927 25.954 33.321C25.9554 33.7354 25.9554 33.7354 25.8149 33.876C25.7138 33.9659 25.6255 33.9707 25.4962 33.9694C25.3634 33.9571 25.243 33.9102 25.1174 33.8655C25.0878 33.8553 25.0583 33.8451 25.0287 33.8348C24.9668 33.8134 24.9052 33.7919 24.8433 33.7703C24.7083 33.723 24.5733 33.6777 24.4364 33.6321C24.3608 33.6068 24.2855 33.5811 24.2095 33.5556C24.1792 33.5453 24.1488 33.535 24.1184 33.5249C24.0728 33.5094 24.0273 33.4939 23.9815 33.4785C23.8754 33.4427 23.7697 33.4067 23.6628 33.3709C23.6479 33.3659 23.633 33.3608 23.6176 33.3556C23.3832 33.2767 23.1507 33.1985 22.9163 33.1213C22.6388 33.0292 22.3632 32.936 22.0876 32.8419C22.0503 32.8293 22.0132 32.8166 21.9758 32.804C21.6777 32.703 21.3796 32.6015 21.0815 32.4984C20.7646 32.3895 20.4458 32.2828 20.1271 32.1778C19.6977 32.0353 19.2683 31.8928 18.8408 31.7465C18.825 31.7411 18.8092 31.7357 18.7928 31.7301C18.628 31.6736 18.4628 31.6172 18.2997 31.5602C18.0241 31.4653 17.7503 31.3727 17.4728 31.2827C17.1297 31.1723 16.7885 31.0558 16.4472 30.9396C16.2847 30.8837 16.1228 30.828 15.9597 30.7723C15.9438 30.7669 15.9278 30.7614 15.9115 30.7558C15.6584 30.6694 15.4053 30.5841 15.1522 30.499C15.1405 30.4951 15.1289 30.4912 15.1169 30.4872C15.0914 30.4788 15.0659 30.4704 15.0402 30.4623C14.959 30.436 14.8795 30.4071 14.8002 30.3758C14.4777 30.2528 14.1871 30.2243 13.844 30.2285C13.7795 30.2291 13.715 30.2287 13.6508 30.2284C13.5258 30.2281 13.4015 30.2286 13.2758 30.23C13.2759 30.2538 13.2759 30.2776 13.276 30.3022C13.2772 30.8684 13.2782 31.4347 13.2787 32.0009C13.2788 32.0709 13.2789 32.1408 13.2789 32.2109C13.2789 32.2248 13.279 32.2387 13.279 32.2531C13.2792 32.4781 13.2797 32.7012 13.2802 32.9262C13.2807 33.1569 13.281 33.3875 13.2811 33.6181C13.2812 33.7602 13.2815 33.9031 13.2819 34.0437C13.2823 34.1532 13.2823 34.2631 13.2822 34.3719C13.2822 34.4165 13.2823 34.4609 13.2825 34.5056C13.2854 35.1187 13.1984 35.6849 12.7688 36.1518C12.7565 36.1654 12.7565 36.1654 12.7441 36.1794C12.4047 36.5525 11.9209 36.7831 11.4147 36.8112C10.8597 36.8334 10.3459 36.6637 9.93343 36.2844C9.54718 35.9187 9.31468 35.4406 9.29593 34.9044C9.29339 34.7812 9.29401 34.6587 9.2946 34.535C9.29462 34.4879 9.29461 34.4407 9.29458 34.3936C9.29456 34.2927 9.29472 34.1911 9.29504 34.0917C9.2955 33.9459 9.29564 33.7992 9.29571 33.6549C9.29584 33.4186 9.29621 33.1824 9.29674 32.9442C9.29726 32.7136 9.29766 32.4849 9.2979 32.2542C9.29791 32.24 9.29793 32.2259 9.29794 32.2113C9.29801 32.1401 9.29809 32.0688 9.29815 31.9976C9.29874 31.4088 9.29973 30.8182 9.30099 30.2294C9.27774 30.2296 9.25449 30.2297 9.23049 30.2298C9.19974 30.2299 9.16899 30.23 9.13824 30.2301C9.11536 30.2303 9.11536 30.2303 9.09192 30.2304C8.98936 30.2307 8.89317 30.2261 8.79192 30.2013L8.75049 30.1916C8.38486 30.0977 8.05861 29.8541 7.86549 29.5316C7.72505 29.2728 7.66486 29.0347 7.66674 28.7403L7.66699 28.6826C7.66721 28.6359 7.66752 28.589 7.66791 28.5423C7.64709 28.543 7.62647 28.5436 7.60491 28.5443C6.82678 28.5607 6.07303 28.3849 5.42991 27.9237L5.4001 27.9021C4.6576 27.364 4.2376 26.584 4.07072 25.6896C4.04822 25.5361 4.03997 25.3821 4.03922 25.2284C4.03911 25.2105 4.03901 25.1926 4.0389 25.1742C4.03872 25.1365 4.03859 25.0988 4.03852 25.0613C4.03834 25.0052 4.03776 24.9492 4.03717 24.8929C4.03252 24.0454 4.30154 23.2223 4.88654 22.5867C4.92217 22.5484 4.95573 22.5092 4.98929 22.4693C5.52179 21.8618 6.36367 21.5299 7.16429 21.4774C7.32667 21.4689 7.48867 21.4633 7.65179 21.4587C7.65207 21.4476 7.65234 21.4364 7.65262 21.4249C7.66623 20.9281 7.76175 20.5137 8.12887 20.1537C8.36887 19.9343 8.6595 19.8106 8.982 19.7862C9.0015 19.7847 9.02081 19.7832 9.04087 19.7816C9.26775 19.7656 9.4965 19.7659 9.72337 19.7667C9.77137 19.7668 9.81937 19.7668 9.86737 19.7668C9.96975 19.7669 10.0717 19.767 10.1749 19.7673C10.3232 19.7677 10.4711 19.7679 10.6192 19.768C10.8611 19.7681 11.1011 19.7685 11.343 19.7689C11.3574 19.7689 11.3717 19.769 11.3865 19.769C11.4009 19.769 11.4152 19.769 11.43 19.7691C11.6344 19.7694 11.8387 19.7698 12.0431 19.7701C12.0575 19.7701 12.072 19.7701 12.0868 19.7701C12.3268 19.7705 12.5687 19.7707 12.8087 19.7709C12.9566 19.7711 13.1049 19.7713 13.2531 19.7716C13.3663 19.7719 13.4799 19.772 13.5924 19.7721C13.6387 19.7722 13.6849 19.7723 13.7312 19.7724C14.1568 19.7871 14.1568 19.7871 14.5693 19.7094C14.5819 19.7051 14.5946 19.7008 14.6076 19.6964C14.6484 19.6824 14.6891 19.6679 14.7298 19.6535C14.7592 19.6433 14.7885 19.6332 14.8179 19.6231C14.8792 19.6019 14.9406 19.5807 15.0017 19.5592C15.0919 19.5275 15.1822 19.4965 15.2736 19.4656C15.2882 19.4606 15.3028 19.4556 15.3178 19.4505C15.3474 19.4404 15.3769 19.4302 15.4065 19.4203C15.4515 19.4049 15.4965 19.3895 15.5415 19.374C15.7346 19.3076 15.9277 19.2421 16.1227 19.1771C16.136 19.1727 16.1492 19.1683 16.1629 19.1637C16.2354 19.1395 16.308 19.1155 16.3804 19.0914C16.5904 19.0216 16.8004 18.9517 17.0104 18.8814C17.0336 18.8737 17.0567 18.8659 17.0807 18.8579C17.3826 18.7574 17.6826 18.6554 17.9844 18.5523C18.2638 18.4561 18.5451 18.3629 18.8263 18.2692C19.1301 18.1679 19.4357 18.0667 19.7394 17.9617C19.755 17.9563 19.7706 17.951 19.7867 17.9455C19.9337 17.8953 20.0811 17.8448 20.2273 17.794C20.2952 17.7706 20.3631 17.7471 20.4317 17.7237C20.4449 17.7191 20.4581 17.7146 20.4718 17.7099C20.6893 17.635 20.9068 17.5634 21.1262 17.4924C21.4599 17.3849 21.7899 17.273 22.1218 17.1586C22.3318 17.0866 22.5418 17.0152 22.7518 16.943C22.7717 16.9362 22.7917 16.9294 22.8124 16.9224C23.0767 16.8324 23.3411 16.7433 23.6074 16.6561C23.8211 16.5852 24.033 16.5129 24.2467 16.4405C24.4736 16.3627 24.7005 16.2852 24.9274 16.2099C24.9562 16.2002 24.9851 16.1905 25.014 16.1808C25.5502 16.0006 25.5502 16.0006 25.7452 16.0756L25.7429 16.0877ZM24.9085 17.0777C24.8923 17.0833 24.8761 17.0889 24.8594 17.0946C24.8238 17.1069 24.7882 17.1192 24.7525 17.1316C24.6535 17.1659 24.5538 17.2 24.4544 17.234C24.433 17.2413 24.4117 17.2486 24.3897 17.2561C24.1366 17.3431 23.8816 17.4276 23.6266 17.513C23.2685 17.6318 22.9104 17.7511 22.5541 17.8748C22.2897 17.9654 22.0254 18.0539 21.761 18.1411C21.4929 18.2303 21.2247 18.3209 20.9566 18.413C20.6979 18.5015 20.4391 18.5883 20.1803 18.6736C19.9385 18.754 19.6966 18.8358 19.4547 18.9192C19.1847 19.0116 18.9147 19.1024 18.6447 19.193C18.3785 19.2813 18.1141 19.3705 17.8497 19.4611C17.5272 19.5715 17.2066 19.6786 16.8822 19.7855C16.571 19.8888 16.2616 19.9936 15.9522 20.1005C15.7861 20.1575 15.6204 20.2135 15.4535 20.2681C15.4167 20.2802 15.38 20.2923 15.3432 20.3043C15.2729 20.3273 15.2026 20.3502 15.1314 20.3731C15.0997 20.3835 15.068 20.3939 15.0363 20.4044C15.0218 20.409 15.0072 20.4136 14.9924 20.4184C14.8975 20.4478 14.8975 20.4478 14.8293 20.5144C14.8238 20.5648 14.8218 20.6109 14.8223 20.6614C14.8222 20.6766 14.8222 20.6918 14.8221 20.7075C14.8219 20.7589 14.8222 20.8103 14.8224 20.8618C14.8224 20.8989 14.8223 20.9359 14.8222 20.973C14.822 21.0752 14.8222 21.1774 14.8225 21.2786C14.8227 21.3887 14.8226 21.498 14.8225 21.6086C14.8224 21.8243 14.8226 22.0399 14.8229 22.2555C14.8231 22.4308 14.8232 22.6061 14.8232 22.7805C14.8232 22.7929 14.8232 22.8054 14.8232 22.8182C14.8232 22.8686 14.8232 22.9193 14.8232 22.9697C14.8233 23.4309 14.8236 23.8903 14.824 24.3516C14.8245 24.7866 14.8247 25.2216 14.8248 25.6566C14.8248 25.67 14.8248 25.6834 14.8248 25.6971C14.8248 25.7511 14.8248 25.8051 14.8248 25.8591C14.8248 25.8861 14.8248 25.9129 14.8248 25.9399C14.8248 25.9667 14.8248 25.9935 14.8248 26.0205C14.8249 26.448 14.8251 26.8755 14.8254 27.303C14.8254 27.4283 14.8255 27.5543 14.8255 27.678C14.8256 27.9405 14.8258 28.2049 14.8261 28.4674C14.8262 28.5763 14.8263 28.6849 14.8263 28.7936C14.8263 28.8932 14.8264 28.9924 14.8266 29.0918C14.8266 29.1279 14.8266 29.1641 14.8266 29.2001C14.8266 29.2491 14.8267 29.2978 14.8268 29.3468C14.8268 29.361 14.8268 29.3753 14.8267 29.3899C14.827 29.4484 14.8294 29.4939 14.8481 29.55C14.8903 29.5685 14.93 29.5832 14.9739 29.5969C14.9936 29.6033 14.9936 29.6033 15.0137 29.6099C15.0573 29.6242 15.101 29.638 15.1447 29.6521C15.1755 29.6621 15.206 29.6722 15.2368 29.6821C15.3005 29.7029 15.3645 29.7237 15.428 29.7444C15.5585 29.7867 15.6887 29.8302 15.818 29.8737C15.8883 29.8974 15.9588 29.9208 16.0299 29.9442C16.0439 29.9489 16.0578 29.9535 16.0723 29.9583C16.1546 29.9857 16.2369 30.0131 16.3198 30.0405C16.6742 30.1578 17.0267 30.2767 17.3792 30.3967C17.6923 30.5032 18.0035 30.6086 18.3185 30.7117C18.7517 30.8553 19.1848 31.0005 19.616 31.1467C19.6588 31.1612 19.7015 31.1756 19.7443 31.19C20.0799 31.3037 20.4174 31.4169 20.753 31.5332C20.9373 31.5965 21.1224 31.6588 21.3062 31.7203C21.3232 31.726 21.3403 31.7317 21.3579 31.7375C21.3969 31.7505 21.4361 31.7636 21.4751 31.7765C21.5043 31.7862 21.5338 31.796 21.563 31.8058C21.578 31.8107 21.593 31.8157 21.6084 31.8208C22.0378 31.9633 22.4672 32.1058 22.8947 32.2521C22.9105 32.2575 22.9263 32.2629 22.9427 32.2685C23.0936 32.3201 23.2445 32.3718 23.3945 32.424C23.4628 32.4476 23.531 32.471 23.5989 32.4947C23.6121 32.4992 23.6253 32.5038 23.639 32.5085C23.8659 32.5869 24.0965 32.6615 24.3253 32.7354C24.5353 32.8027 24.7434 32.8734 24.9497 32.951C24.967 32.9574 24.9843 32.9639 25.0023 32.9705C25.0247 32.9789 25.0247 32.9789 25.0475 32.9876C25.0882 33.0023 25.0882 33.0023 25.1422 32.9995V17.0245C25.0562 17.0245 24.9887 17.0481 24.9078 17.0762L24.9085 17.0777ZM9.10229 20.6027C9.08886 20.6034 9.07548 20.604 9.0616 20.6047C8.86473 20.6164 8.7316 20.6952 8.60035 20.839C8.50079 20.9665 8.46441 21.0959 8.46423 21.2572C8.46416 21.2704 8.4641 21.2836 8.46403 21.2973C8.46385 21.3415 8.46394 21.3858 8.46404 21.4299C8.46397 21.4619 8.46388 21.494 8.46378 21.526C8.46355 21.614 8.46356 21.7021 8.4636 21.7904C8.46361 21.8853 8.4634 21.9798 8.46322 22.0754C8.46291 22.2614 8.46281 22.4467 8.46279 22.6342C8.46277 22.7855 8.46269 22.936 8.46257 23.0879C8.46224 23.5173 8.46207 23.9448 8.4621 24.3742C8.4621 24.3972 8.4621 24.4205 8.4621 24.4443C8.46211 24.4674 8.46211 24.4906 8.46211 24.5144C8.46212 24.8894 8.46177 25.2644 8.46124 25.6394C8.4607 26.0238 8.46044 26.41 8.46047 26.7944C8.46048 27.01 8.46038 27.2275 8.45998 27.4432C8.45964 27.6273 8.45955 27.8107 8.45981 27.9963C8.45993 28.0902 8.45993 28.1838 8.45961 28.2775C8.45931 28.3636 8.45937 28.4497 8.45969 28.5363C8.45975 28.5674 8.45968 28.5984 8.45947 28.6295C8.45797 28.8676 8.48479 29.0795 8.65635 29.2595C8.78329 29.3714 8.93197 29.4307 9.1026 29.4305C9.12904 29.4305 9.12904 29.4305 9.15604 29.4306C9.17516 29.4305 9.19447 29.4305 9.21416 29.4304C9.2346 29.4304 9.25522 29.4305 9.27641 29.4305C9.34522 29.4305 9.41422 29.4304 9.48266 29.4303C9.53197 29.4303 9.58129 29.4303 9.6306 29.4303C9.73691 29.4303 9.84247 29.4303 9.94935 29.4302C10.1031 29.43 10.2568 29.43 10.4106 29.4299C10.66 29.4299 10.9093 29.4298 11.1587 29.4296C11.4006 29.4294 11.6425 29.4293 11.8843 29.4292C11.9067 29.4292 11.9067 29.4292 11.9295 29.4292C12.0043 29.4292 12.0793 29.4291 12.1545 29.4291C12.7752 29.4289 13.3977 29.4286 14.0183 29.4282C14.0356 29.3402 14.0397 29.2553 14.0393 29.1657C14.0393 29.1434 14.0393 29.1434 14.0394 29.1209C14.0394 29.0712 14.0393 29.0215 14.0392 28.9716C14.0392 28.9356 14.0393 28.8996 14.0393 28.8636C14.0393 28.7646 14.0392 28.6649 14.0392 28.5674C14.0391 28.4607 14.0391 28.3536 14.0391 28.2467C14.0391 28.0619 14.0391 27.8774 14.039 27.6917C14.0388 27.4236 14.0388 27.1574 14.0387 26.8892C14.0387 26.4561 14.0386 26.023 14.0384 25.588C14.0382 25.1661 14.0381 24.7461 14.038 24.3242C14.038 24.3113 14.038 24.2984 14.038 24.2849C14.038 24.1545 14.038 24.0242 14.0379 23.893C14.0377 22.7999 14.0374 21.6992 14.037 20.6117C13.994 20.5902 13.97 20.5905 13.9222 20.5905C13.906 20.5905 13.8898 20.5904 13.8729 20.5904C13.8549 20.5904 13.8369 20.5905 13.8185 20.5905C13.7996 20.5905 13.7805 20.5905 13.761 20.5904C13.6969 20.5904 13.6327 20.5904 13.5679 20.5905C13.5221 20.5905 13.4762 20.5904 13.4304 20.5904C13.3185 20.5903 13.2073 20.5903 13.0948 20.5904C13.0037 20.5904 12.9127 20.5904 12.821 20.5904C12.8081 20.5904 12.7952 20.5904 12.7819 20.5904C12.7556 20.5904 12.7292 20.5904 12.7029 20.5904C12.4554 20.5903 12.2079 20.5904 11.9604 20.5905C11.7485 20.5906 11.5367 20.5905 11.3248 20.5905C11.0792 20.5904 10.8335 20.5903 10.5879 20.5904C10.5617 20.5904 10.5352 20.5904 10.509 20.5904C10.4895 20.5904 10.4895 20.5904 10.4698 20.5904C10.379 20.5904 10.2885 20.5904 10.1979 20.5904C10.0753 20.5903 9.95229 20.5903 9.83042 20.5904C9.7856 20.5905 9.74079 20.5905 9.69598 20.5904C9.49723 20.5903 9.29848 20.5905 9.09973 20.6006L9.10229 20.6027ZM6.06479 22.6465C5.90335 22.7489 5.75729 22.8677 5.61479 22.9952C5.60256 23.0061 5.59041 23.017 5.57766 23.0282C5.37891 23.2157 5.23266 23.4464 5.10891 23.6882C5.09333 23.7177 5.09333 23.7177 5.07741 23.7475C5.01648 23.8699 4.97391 23.995 4.93548 24.1262C4.92854 24.1495 4.92854 24.1495 4.92147 24.1731C4.84797 24.4356 4.83991 24.6981 4.84047 24.9681C4.84053 25.0229 4.84009 25.0774 4.83961 25.1322C4.8386 25.4265 4.86061 25.7209 4.95886 26.0003C4.96715 26.0243 4.96715 26.0243 4.97563 26.049C5.08363 26.349 5.23813 26.6153 5.44625 26.8553C5.45971 26.8716 5.47325 26.8879 5.48713 26.9046C5.53044 26.9567 5.53044 26.9567 5.5775 27.0053H5.615V27.0428C6.11375 27.5078 6.75688 27.744 7.43563 27.7384C7.46525 27.7383 7.46525 27.7383 7.49563 27.7382C7.544 27.7379 7.59238 27.7376 7.64075 27.7373C7.64398 27.2029 7.64711 26.6704 7.65013 26.136C7.65029 26.1066 7.65029 26.1066 7.65046 26.0764C7.65613 25.077 7.66145 24.0701 7.66066 23.0764C7.66064 23.0451 7.66064 23.0451 7.66061 23.0134C7.66042 22.7753 7.66007 22.5371 7.65949 22.299C7.17387 22.1693 6.48387 22.3903 6.06574 22.644L6.06479 22.6465ZM10.096 30.2402C10.0952 30.8421 10.0945 31.4421 10.0941 32.044C10.0941 32.115 10.094 32.1859 10.094 32.2577C10.094 32.2719 10.094 32.286 10.094 32.3005C10.0938 32.5292 10.0935 32.758 10.0931 32.9867C10.0928 33.2211 10.0926 33.4555 10.0925 33.6917C10.0925 33.8365 10.0923 33.9805 10.092 34.1267C10.0918 34.2379 10.0917 34.3499 10.0918 34.4605C10.0918 34.506 10.0917 34.5516 10.0916 34.597C10.0914 34.6592 10.0914 34.7215 10.0915 34.7837C10.0914 34.8016 10.0913 34.8195 10.0912 34.8379C10.0925 35.1229 10.1838 35.361 10.3593 35.586C10.3682 35.598 10.377 35.6099 10.3861 35.6222C10.5534 35.8341 10.8455 35.9804 11.1099 36.0179C11.4624 36.0454 11.7643 35.9689 12.0474 35.7479C12.1297 35.6766 12.1949 35.6037 12.2536 35.5116C12.2632 35.4978 12.2728 35.484 12.2827 35.4698C12.4323 35.2429 12.4629 34.9823 12.4623 34.7179C12.4624 34.6988 12.4624 34.6797 12.4624 34.66C12.4625 34.5962 12.4624 34.5325 12.4624 34.4687C12.4624 34.423 12.4624 34.377 12.4625 34.3313C12.4625 34.2199 12.4625 34.1082 12.4625 33.9975C12.4624 33.9072 12.4624 33.8168 12.4625 33.7257C12.4625 33.7064 12.4625 33.7064 12.4625 33.6867C12.4625 33.6604 12.4625 33.6344 12.4625 33.6081C12.4625 33.3625 12.4625 33.1187 12.4624 32.8731C12.4623 32.6631 12.4623 32.4531 12.4624 32.2412C12.4625 31.9975 12.4625 31.7519 12.4625 31.5081C12.4625 31.482 12.4625 31.456 12.4625 31.4301C12.4624 31.4173 12.4624 31.4044 12.4624 31.3913C12.4624 31.3009 12.4625 31.2105 12.4625 31.1194C12.4626 30.9979 12.4625 30.8757 12.4624 30.7557C12.4624 30.711 12.4624 30.6662 12.4624 30.6216C12.4625 30.5609 12.4624 30.5001 12.4623 30.4394C12.4624 30.4214 12.4624 30.4035 12.4624 30.385C12.4701 30.3077 12.4701 30.3077 12.4413 30.2429C12.4109 30.2411 12.3805 30.2406 12.3499 30.2406C12.3203 30.2406 12.3203 30.2406 12.2901 30.2405C12.2682 30.2406 12.2464 30.2407 12.2239 30.2407C12.2011 30.2407 12.1782 30.2407 12.1548 30.2407C12.0919 30.2407 12.0289 30.2408 11.9654 30.241C11.8998 30.2411 11.8341 30.2411 11.7685 30.2411C11.6442 30.2412 11.5191 30.2413 11.3954 30.2415C11.2538 30.2417 11.1123 30.2418 10.9698 30.2419C10.6791 30.2421 10.3866 30.2424 10.096 30.2429L10.096 30.2402Z" fill="#1C1C1C"/>
</svg>
