<svg width="50" height="50" viewBox="0 0 50 50" fill="none" xmlns="http://www.w3.org/2000/svg">
<path fill-rule="evenodd" clip-rule="evenodd" d="M25.0004 0.000675157C11.1932 0.000675157 0 11.1938 0 25.0003C0 38.8081 11.1932 50 25.0004 50C38.809 50 50.0014 38.8074 50.0014 25.0003C50.0014 11.1945 38.809 0.00135031 25.0004 0.00135031V0V0.000675157ZM36.4653 36.058C36.0173 36.7922 35.0563 37.0251 34.322 36.5744C28.4524 32.989 21.0631 32.1766 12.3602 34.165C11.5216 34.3558 10.6857 33.8312 10.4949 32.9918C10.3027 32.1525 10.826 31.3173 11.6667 31.1258C21.1902 28.9494 29.3587 29.8869 35.9488 33.9141C36.683 34.3649 36.916 35.3231 36.4653 36.0573V36.058ZM39.5252 29.2494C38.9611 30.1676 37.7608 30.4573 36.844 29.8931C30.124 25.7616 19.8801 24.5655 11.9315 26.9783C10.9007 27.2895 9.81182 26.7086 9.49933 25.6799C9.18891 24.6491 9.7704 23.5624 10.7991 23.2492C19.8788 20.4948 31.1659 21.829 38.8829 26.5711C39.7996 27.1352 40.0894 28.3354 39.5252 29.2508V29.2501V29.2494ZM39.7878 22.161C31.73 17.3754 18.4366 16.9349 10.7431 19.2697C9.50764 19.6444 8.20168 18.9474 7.82696 17.7113C7.45225 16.4751 8.14907 15.1699 9.38523 14.7945C18.216 12.1134 32.8972 12.6318 42.1738 18.1385C43.2869 18.7981 43.6513 20.2334 42.9917 21.3431C42.3349 22.4541 40.8961 22.8205 39.7878 22.161Z" fill="#1ED760"/>
</svg>
