<svg width="117" height="70" viewBox="0 0 117 70" fill="none" xmlns="http://www.w3.org/2000/svg">
<path d="M58.3343 70C57.738 70 57.1407 69.9894 56.5425 69.9671C23.5563 68.8084 1.17997 36.3832 0.243814 35.0038C-0.19411 34.3581 -0.0259683 33.4811 0.618722 33.0436C1.2639 32.6041 2.14188 32.7715 2.58057 33.4182C2.80196 33.7434 25.1118 66.0467 56.6567 67.1454C76.2946 67.8375 95.4553 56.4547 113.641 33.3378C114.123 32.7231 115.011 32.6186 115.624 33.1007C116.237 33.5837 116.343 34.4714 115.861 35.0841C97.6285 58.261 78.2839 70 58.3343 70Z" fill="#00CCC6"/>
<path d="M39.8669 2.8238C35.9754 2.8238 32.6875 8.41305 32.6875 15.0284C32.6875 21.6437 35.9754 27.233 39.8669 27.233C43.7589 27.233 47.0467 21.6437 47.0467 15.0284C47.0467 8.41305 43.7589 2.8238 39.8669 2.8238ZM39.8669 30.0566C34.2572 30.0566 29.8633 23.4549 29.8633 15.0284C29.8633 6.60094 34.2572 -0.000837326 39.8669 -0.000837326C45.4766 -0.000837326 49.871 6.60094 49.871 15.0284C49.871 23.4549 45.4766 30.0566 39.8669 30.0566Z" fill="#00CCC6"/>
<path d="M66.2995 19.8174C66.0343 19.8174 65.7661 19.7428 65.527 19.587C64.8746 19.1591 64.6926 18.2841 65.1195 17.6316C67.8105 13.5215 72.5325 10.9205 77.4431 10.843C82.3529 10.7656 87.1571 13.2146 89.9769 17.2357C90.425 17.8746 90.2702 18.7555 89.6313 19.2027C88.9924 19.6519 88.1125 19.496 87.6643 18.8571C85.4437 15.6898 81.5339 13.6657 77.6639 13.6657C77.6048 13.6657 77.5467 13.6657 77.4886 13.6667C73.5615 13.7296 69.6343 15.8931 67.4824 19.1785C67.2113 19.5918 66.7603 19.8174 66.2995 19.8174Z" fill="#00CCC6"/>
</svg>
